G04 #@! TF.GenerationSoftware,KiCad,Pcbnew,(5.99.0-576-ga860ac506)*
G04 #@! TF.CreationDate,2021-04-05T16:40:01+02:00*
G04 #@! TF.ProjectId,8 Inch Floppy Power Supply,3820496e-6368-4204-966c-6f7070792050,rev?*
G04 #@! TF.SameCoordinates,Original*
G04 #@! TF.FileFunction,Soldermask,Bot*
G04 #@! TF.FilePolarity,Negative*
%FSLAX46Y46*%
G04 Gerber Fmt 4.6, Leading zero omitted, Abs format (unit mm)*
G04 Created by KiCad (PCBNEW (5.99.0-576-ga860ac506)) date 2021-04-05 16:40:01*
%MOMM*%
%LPD*%
G04 APERTURE LIST*
G04 APERTURE END LIST*
G36*
X22042742Y-79847002D02*
G01*
X22066523Y-79846255D01*
X22144921Y-79857832D01*
X22226500Y-79866478D01*
X22249247Y-79873237D01*
X22269783Y-79876270D01*
X22347754Y-79902510D01*
X22429275Y-79926735D01*
X22447713Y-79936150D01*
X22464517Y-79941805D01*
X22539255Y-79982894D01*
X22617674Y-80022936D01*
X22631693Y-80033713D01*
X22644561Y-80040787D01*
X22713190Y-80096361D01*
X22785387Y-80151860D01*
X22795176Y-80162751D01*
X22804238Y-80170089D01*
X22863939Y-80239254D01*
X22926797Y-80309187D01*
X22932859Y-80319099D01*
X22938493Y-80325626D01*
X22986568Y-80406916D01*
X23037168Y-80489650D01*
X23040236Y-80497663D01*
X23043084Y-80502479D01*
X23077154Y-80594089D01*
X23112804Y-80687205D01*
X23113808Y-80692650D01*
X23114700Y-80695048D01*
X23132616Y-80794622D01*
X23151173Y-80895235D01*
X23143823Y-81166866D01*
X23120018Y-81265638D01*
X23097214Y-81362864D01*
X23095798Y-81366137D01*
X23094260Y-81372517D01*
X23053954Y-81462834D01*
X23015613Y-81551436D01*
X23011958Y-81556937D01*
X23008051Y-81565692D01*
X22953631Y-81644726D01*
X22901911Y-81722570D01*
X22895240Y-81729526D01*
X22888082Y-81739922D01*
X22822260Y-81805629D01*
X22759704Y-81870862D01*
X22749451Y-81878311D01*
X22738371Y-81889372D01*
X22664116Y-81940311D01*
X22593480Y-81991631D01*
X22579343Y-81998465D01*
X22563932Y-82009037D01*
X22484362Y-82044381D01*
X22408493Y-82081057D01*
X22390450Y-82086095D01*
X22370606Y-82094909D01*
X22288862Y-82114458D01*
X22210602Y-82136309D01*
X22188931Y-82138357D01*
X22164869Y-82144112D01*
X22083921Y-82148284D01*
X22006054Y-82155644D01*
X21981349Y-82153569D01*
X21953610Y-82154999D01*
X21876221Y-82144742D01*
X21801308Y-82138451D01*
X21774436Y-82131251D01*
X21743905Y-82127204D01*
X21672551Y-82103951D01*
X21602843Y-82085273D01*
X21574930Y-82072138D01*
X21542777Y-82061660D01*
X21479502Y-82027233D01*
X21416937Y-81997792D01*
X21389322Y-81978167D01*
X21356961Y-81960560D01*
X21303361Y-81917078D01*
X21249459Y-81878772D01*
X21223637Y-81852404D01*
X21192681Y-81827291D01*
X21149857Y-81777062D01*
X21105705Y-81731975D01*
X21083260Y-81698948D01*
X21055438Y-81666315D01*
X21023987Y-81611730D01*
X20990216Y-81562038D01*
X20972746Y-81522800D01*
X20949828Y-81483025D01*
X20929854Y-81426464D01*
X20906647Y-81374340D01*
X20895680Y-81329690D01*
X20879389Y-81283558D01*
X20870526Y-81227283D01*
X20857636Y-81174804D01*
X20854560Y-81125903D01*
X20846479Y-81074595D01*
X20847939Y-81020657D01*
X20844736Y-80969752D01*
X20850714Y-80918085D01*
X20852201Y-80863133D01*
X20862837Y-80813308D01*
X20868352Y-80765644D01*
X20884258Y-80712960D01*
X20896363Y-80656255D01*
X20914741Y-80611995D01*
X20927736Y-80568955D01*
X20954092Y-80517229D01*
X20977486Y-80460890D01*
X21001979Y-80423246D01*
X21021016Y-80385884D01*
X21057938Y-80337240D01*
X21092853Y-80283579D01*
X21121712Y-80253221D01*
X21145237Y-80222228D01*
X21192415Y-80178846D01*
X21238601Y-80130261D01*
X21270068Y-80107441D01*
X21296482Y-80083152D01*
X21353149Y-80047190D01*
X21409848Y-80006071D01*
X21442207Y-79990671D01*
X21469956Y-79973061D01*
X21534906Y-79946555D01*
X21600859Y-79915168D01*
X21632560Y-79906703D01*
X21660192Y-79895427D01*
X21731773Y-79880212D01*
X21805238Y-79860596D01*
X21834933Y-79858285D01*
X21861162Y-79852710D01*
X21937337Y-79850316D01*
X22016139Y-79844183D01*
X22042742Y-79847002D01*
G37*
G36*
X41842399Y-79211959D02*
G01*
X41859269Y-79223231D01*
X41870541Y-79240101D01*
X41876948Y-79272312D01*
X41876948Y-80747688D01*
X41874499Y-80760000D01*
X41870541Y-80779899D01*
X41859269Y-80796769D01*
X41842399Y-80808041D01*
X41822500Y-80811999D01*
X41810188Y-80814448D01*
X38834812Y-80814448D01*
X38802601Y-80808041D01*
X38785731Y-80796769D01*
X38774459Y-80779899D01*
X38768052Y-80747688D01*
X38768052Y-79272312D01*
X38774459Y-79240101D01*
X38785731Y-79223231D01*
X38802601Y-79211959D01*
X38834812Y-79205552D01*
X41810188Y-79205552D01*
X41842399Y-79211959D01*
G37*
G36*
X66400476Y-77955826D02*
G01*
X66442266Y-77953782D01*
X66486556Y-77960639D01*
X66537310Y-77963476D01*
X66577663Y-77974743D01*
X66613121Y-77980232D01*
X66660704Y-77997928D01*
X66715398Y-78013199D01*
X66747122Y-78030067D01*
X66775159Y-78040494D01*
X66823257Y-78070549D01*
X66878653Y-78100004D01*
X66901468Y-78119421D01*
X66921771Y-78132108D01*
X66967141Y-78175313D01*
X67019461Y-78219841D01*
X67033963Y-78238947D01*
X67046972Y-78251335D01*
X67086116Y-78307655D01*
X67131251Y-78367118D01*
X67138802Y-78383459D01*
X67145642Y-78393301D01*
X67175008Y-78461817D01*
X67208807Y-78534965D01*
X67211385Y-78546692D01*
X67213747Y-78552202D01*
X67229929Y-78631036D01*
X67248511Y-78715551D01*
X67247845Y-78906388D01*
X67228681Y-78990738D01*
X67211943Y-79069485D01*
X67209541Y-79074982D01*
X67206881Y-79086692D01*
X67172569Y-79159609D01*
X67142727Y-79227915D01*
X67135818Y-79237709D01*
X67128155Y-79253994D01*
X67082614Y-79313130D01*
X67043070Y-79369187D01*
X67029972Y-79381487D01*
X67015340Y-79400487D01*
X66962727Y-79444635D01*
X66917044Y-79487534D01*
X66896647Y-79500082D01*
X66873699Y-79519338D01*
X66818100Y-79548405D01*
X66769793Y-79578123D01*
X66741684Y-79588354D01*
X66709841Y-79605001D01*
X66655034Y-79619892D01*
X66607331Y-79637254D01*
X66571840Y-79642495D01*
X66531411Y-79653479D01*
X66480639Y-79655962D01*
X66436303Y-79662509D01*
X66394527Y-79660174D01*
X66346733Y-79662511D01*
X66302492Y-79655028D01*
X66263689Y-79652859D01*
X66217480Y-79640650D01*
X66164423Y-79631676D01*
X66128339Y-79617097D01*
X66096535Y-79608694D01*
X66048397Y-79584799D01*
X65992988Y-79562412D01*
X65965811Y-79543804D01*
X65941682Y-79531826D01*
X65894628Y-79495063D01*
X65840426Y-79457950D01*
X65821969Y-79438295D01*
X65805450Y-79425389D01*
X65762900Y-79375393D01*
X65713854Y-79323164D01*
X65703108Y-79305138D01*
X65693396Y-79293726D01*
X65658901Y-79230981D01*
X65619178Y-79164344D01*
X65614443Y-79150111D01*
X65610110Y-79142229D01*
X65587192Y-79068192D01*
X65560814Y-78988898D01*
X65559872Y-78979934D01*
X65558986Y-78977072D01*
X65550847Y-78894068D01*
X65541487Y-78805012D01*
X65551467Y-78716044D01*
X65560187Y-78633078D01*
X65561093Y-78630220D01*
X65562098Y-78621265D01*
X65589030Y-78542153D01*
X65612463Y-78468281D01*
X65616850Y-78460432D01*
X65621684Y-78446231D01*
X65661882Y-78379857D01*
X65696804Y-78317371D01*
X65706592Y-78306031D01*
X65717467Y-78288075D01*
X65766885Y-78236181D01*
X65809773Y-78186495D01*
X65826379Y-78173707D01*
X65844977Y-78154177D01*
X65899452Y-78117433D01*
X65946750Y-78081009D01*
X65970958Y-78069202D01*
X65998265Y-78050783D01*
X66053819Y-78028787D01*
X66102133Y-78005223D01*
X66134003Y-77997040D01*
X66170179Y-77982717D01*
X66223295Y-77974114D01*
X66269588Y-77962228D01*
X66308403Y-77960330D01*
X66352699Y-77953155D01*
X66400476Y-77955826D01*
G37*
G36*
X68900476Y-77955826D02*
G01*
X68942266Y-77953782D01*
X68986556Y-77960639D01*
X69037310Y-77963476D01*
X69077663Y-77974743D01*
X69113121Y-77980232D01*
X69160704Y-77997928D01*
X69215398Y-78013199D01*
X69247122Y-78030067D01*
X69275159Y-78040494D01*
X69323257Y-78070549D01*
X69378653Y-78100004D01*
X69401468Y-78119421D01*
X69421771Y-78132108D01*
X69467141Y-78175313D01*
X69519461Y-78219841D01*
X69533963Y-78238947D01*
X69546972Y-78251335D01*
X69586116Y-78307655D01*
X69631251Y-78367118D01*
X69638802Y-78383459D01*
X69645642Y-78393301D01*
X69675008Y-78461817D01*
X69708807Y-78534965D01*
X69711385Y-78546692D01*
X69713747Y-78552202D01*
X69729929Y-78631036D01*
X69748511Y-78715551D01*
X69747845Y-78906388D01*
X69728681Y-78990738D01*
X69711943Y-79069485D01*
X69709541Y-79074982D01*
X69706881Y-79086692D01*
X69672569Y-79159609D01*
X69642727Y-79227915D01*
X69635818Y-79237709D01*
X69628155Y-79253994D01*
X69582614Y-79313130D01*
X69543070Y-79369187D01*
X69529972Y-79381487D01*
X69515340Y-79400487D01*
X69462727Y-79444635D01*
X69417044Y-79487534D01*
X69396647Y-79500082D01*
X69373699Y-79519338D01*
X69318100Y-79548405D01*
X69269793Y-79578123D01*
X69241684Y-79588354D01*
X69209841Y-79605001D01*
X69155034Y-79619892D01*
X69107331Y-79637254D01*
X69071840Y-79642495D01*
X69031411Y-79653479D01*
X68980639Y-79655962D01*
X68936303Y-79662509D01*
X68894527Y-79660174D01*
X68846733Y-79662511D01*
X68802492Y-79655028D01*
X68763689Y-79652859D01*
X68717480Y-79640650D01*
X68664423Y-79631676D01*
X68628339Y-79617097D01*
X68596535Y-79608694D01*
X68548397Y-79584799D01*
X68492988Y-79562412D01*
X68465811Y-79543804D01*
X68441682Y-79531826D01*
X68394628Y-79495063D01*
X68340426Y-79457950D01*
X68321969Y-79438295D01*
X68305450Y-79425389D01*
X68262900Y-79375393D01*
X68213854Y-79323164D01*
X68203108Y-79305138D01*
X68193396Y-79293726D01*
X68158901Y-79230981D01*
X68119178Y-79164344D01*
X68114443Y-79150111D01*
X68110110Y-79142229D01*
X68087192Y-79068192D01*
X68060814Y-78988898D01*
X68059872Y-78979934D01*
X68058986Y-78977072D01*
X68050847Y-78894068D01*
X68041487Y-78805012D01*
X68051467Y-78716044D01*
X68060187Y-78633078D01*
X68061093Y-78630220D01*
X68062098Y-78621265D01*
X68089030Y-78542153D01*
X68112463Y-78468281D01*
X68116850Y-78460432D01*
X68121684Y-78446231D01*
X68161882Y-78379857D01*
X68196804Y-78317371D01*
X68206592Y-78306031D01*
X68217467Y-78288075D01*
X68266885Y-78236181D01*
X68309773Y-78186495D01*
X68326379Y-78173707D01*
X68344977Y-78154177D01*
X68399452Y-78117433D01*
X68446750Y-78081009D01*
X68470958Y-78069202D01*
X68498265Y-78050783D01*
X68553819Y-78028787D01*
X68602133Y-78005223D01*
X68634003Y-77997040D01*
X68670179Y-77982717D01*
X68723295Y-77974114D01*
X68769588Y-77962228D01*
X68808403Y-77960330D01*
X68852699Y-77953155D01*
X68900476Y-77955826D01*
G37*
G36*
X53124868Y-75998001D02*
G01*
X53206501Y-75998001D01*
X53247884Y-76004555D01*
X53287308Y-76006656D01*
X53370820Y-76024027D01*
X53455402Y-76037423D01*
X53491295Y-76049085D01*
X53525793Y-76056261D01*
X53609876Y-76087615D01*
X53695070Y-76115296D01*
X53724980Y-76130536D01*
X53754021Y-76141365D01*
X53836321Y-76187267D01*
X53919607Y-76229703D01*
X53943395Y-76246986D01*
X53966752Y-76260013D01*
X54044787Y-76320651D01*
X54123481Y-76377826D01*
X54141317Y-76395662D01*
X54159098Y-76409479D01*
X54230352Y-76484697D01*
X54301674Y-76556019D01*
X54314044Y-76573045D01*
X54326610Y-76586310D01*
X54388514Y-76675544D01*
X54449797Y-76759893D01*
X54457454Y-76774920D01*
X54465455Y-76786454D01*
X54515598Y-76889035D01*
X54564204Y-76984430D01*
X54568121Y-76996485D01*
X54572423Y-77005286D01*
X54608490Y-77120729D01*
X54642077Y-77224098D01*
X54643405Y-77232483D01*
X54645065Y-77237796D01*
X54664952Y-77368528D01*
X54681499Y-77472999D01*
X54681499Y-77725001D01*
X54672344Y-77782806D01*
X54671361Y-77815915D01*
X54654848Y-77893271D01*
X54642077Y-77973902D01*
X54629127Y-78013757D01*
X54620886Y-78052363D01*
X54590667Y-78132124D01*
X54564204Y-78213570D01*
X54547071Y-78247195D01*
X54534587Y-78280147D01*
X54490464Y-78358294D01*
X54449797Y-78438107D01*
X54430066Y-78465264D01*
X54414830Y-78492249D01*
X54356628Y-78566343D01*
X54301674Y-78641981D01*
X54280878Y-78662777D01*
X54264357Y-78683809D01*
X54192267Y-78751388D01*
X54123481Y-78820174D01*
X54103070Y-78835003D01*
X54086650Y-78850396D01*
X54001243Y-78908985D01*
X53919607Y-78968297D01*
X53900851Y-78977853D01*
X53885782Y-78988191D01*
X53787947Y-79035381D01*
X53695070Y-79082704D01*
X53679033Y-79087915D01*
X53666390Y-79094013D01*
X53557242Y-79127487D01*
X53455402Y-79160577D01*
X53442880Y-79162560D01*
X53433513Y-79165433D01*
X53313859Y-79182995D01*
X53206501Y-79199999D01*
X53198009Y-79199999D01*
X53192511Y-79200806D01*
X53060407Y-79199999D01*
X52954499Y-79199999D01*
X52950250Y-79199326D01*
X52948928Y-79199318D01*
X52723838Y-79163466D01*
X52705598Y-79160577D01*
X52609513Y-79129357D01*
X52476393Y-79086745D01*
X52472677Y-79084896D01*
X52465930Y-79082704D01*
X52369168Y-79033402D01*
X52258305Y-78978248D01*
X52251450Y-78973421D01*
X52241393Y-78968297D01*
X52154120Y-78904889D01*
X52059138Y-78838011D01*
X52050040Y-78829271D01*
X52037519Y-78820174D01*
X51963050Y-78745705D01*
X51883476Y-78669263D01*
X51873227Y-78655882D01*
X51859326Y-78641981D01*
X51799318Y-78559387D01*
X51735360Y-78475884D01*
X51725217Y-78457395D01*
X51711203Y-78438107D01*
X51666477Y-78350327D01*
X51618199Y-78262328D01*
X51609513Y-78238529D01*
X51596796Y-78213570D01*
X51567520Y-78123469D01*
X51534687Y-78033506D01*
X51528864Y-78004499D01*
X51518923Y-77973902D01*
X51504709Y-77884158D01*
X51486750Y-77794688D01*
X51485186Y-77760895D01*
X51479501Y-77725001D01*
X51479501Y-77638056D01*
X51475489Y-77551367D01*
X51479501Y-77513513D01*
X51479501Y-77472999D01*
X51492480Y-77391051D01*
X51501162Y-77309137D01*
X51511935Y-77268219D01*
X51518923Y-77224098D01*
X51543319Y-77149016D01*
X51563180Y-77073578D01*
X51581710Y-77030859D01*
X51596796Y-76984430D01*
X51630788Y-76917717D01*
X51660112Y-76850114D01*
X51687162Y-76807076D01*
X51711203Y-76759893D01*
X51752816Y-76702618D01*
X51789731Y-76643884D01*
X51825765Y-76602212D01*
X51859326Y-76556019D01*
X51906496Y-76508849D01*
X51949054Y-76459632D01*
X51994222Y-76421123D01*
X52037519Y-76377826D01*
X52088166Y-76341029D01*
X52134421Y-76301593D01*
X52188540Y-76268103D01*
X52241393Y-76229703D01*
X52293483Y-76203162D01*
X52341545Y-76173420D01*
X52404065Y-76146818D01*
X52465930Y-76115296D01*
X52517611Y-76098504D01*
X52565688Y-76078047D01*
X52635675Y-76060142D01*
X52705598Y-76037423D01*
X52755177Y-76029571D01*
X52801667Y-76017677D01*
X52877863Y-76010139D01*
X52954499Y-75998001D01*
X53000555Y-75998001D01*
X53044071Y-75993696D01*
X53124868Y-75998001D01*
G37*
G36*
X57824868Y-75998001D02*
G01*
X57906501Y-75998001D01*
X57947884Y-76004555D01*
X57987308Y-76006656D01*
X58070820Y-76024027D01*
X58155402Y-76037423D01*
X58191295Y-76049085D01*
X58225793Y-76056261D01*
X58309876Y-76087615D01*
X58395070Y-76115296D01*
X58424980Y-76130536D01*
X58454021Y-76141365D01*
X58536321Y-76187267D01*
X58619607Y-76229703D01*
X58643395Y-76246986D01*
X58666752Y-76260013D01*
X58744787Y-76320651D01*
X58823481Y-76377826D01*
X58841317Y-76395662D01*
X58859098Y-76409479D01*
X58930352Y-76484697D01*
X59001674Y-76556019D01*
X59014044Y-76573045D01*
X59026610Y-76586310D01*
X59088514Y-76675544D01*
X59149797Y-76759893D01*
X59157454Y-76774920D01*
X59165455Y-76786454D01*
X59215598Y-76889035D01*
X59264204Y-76984430D01*
X59268121Y-76996485D01*
X59272423Y-77005286D01*
X59308490Y-77120729D01*
X59342077Y-77224098D01*
X59343405Y-77232483D01*
X59345065Y-77237796D01*
X59364952Y-77368528D01*
X59381499Y-77472999D01*
X59381499Y-77725001D01*
X59372344Y-77782806D01*
X59371361Y-77815915D01*
X59354848Y-77893271D01*
X59342077Y-77973902D01*
X59329127Y-78013757D01*
X59320886Y-78052363D01*
X59290667Y-78132124D01*
X59264204Y-78213570D01*
X59247071Y-78247195D01*
X59234587Y-78280147D01*
X59190464Y-78358294D01*
X59149797Y-78438107D01*
X59130066Y-78465264D01*
X59114830Y-78492249D01*
X59056628Y-78566343D01*
X59001674Y-78641981D01*
X58980878Y-78662777D01*
X58964357Y-78683809D01*
X58892267Y-78751388D01*
X58823481Y-78820174D01*
X58803070Y-78835003D01*
X58786650Y-78850396D01*
X58701243Y-78908985D01*
X58619607Y-78968297D01*
X58600851Y-78977853D01*
X58585782Y-78988191D01*
X58487947Y-79035381D01*
X58395070Y-79082704D01*
X58379033Y-79087915D01*
X58366390Y-79094013D01*
X58257242Y-79127487D01*
X58155402Y-79160577D01*
X58142880Y-79162560D01*
X58133513Y-79165433D01*
X58013859Y-79182995D01*
X57906501Y-79199999D01*
X57898009Y-79199999D01*
X57892511Y-79200806D01*
X57760407Y-79199999D01*
X57654499Y-79199999D01*
X57650250Y-79199326D01*
X57648928Y-79199318D01*
X57423838Y-79163466D01*
X57405598Y-79160577D01*
X57309513Y-79129357D01*
X57176393Y-79086745D01*
X57172677Y-79084896D01*
X57165930Y-79082704D01*
X57069168Y-79033402D01*
X56958305Y-78978248D01*
X56951450Y-78973421D01*
X56941393Y-78968297D01*
X56854120Y-78904889D01*
X56759138Y-78838011D01*
X56750040Y-78829271D01*
X56737519Y-78820174D01*
X56663050Y-78745705D01*
X56583476Y-78669263D01*
X56573227Y-78655882D01*
X56559326Y-78641981D01*
X56499318Y-78559387D01*
X56435360Y-78475884D01*
X56425217Y-78457395D01*
X56411203Y-78438107D01*
X56366477Y-78350327D01*
X56318199Y-78262328D01*
X56309513Y-78238529D01*
X56296796Y-78213570D01*
X56267520Y-78123469D01*
X56234687Y-78033506D01*
X56228864Y-78004499D01*
X56218923Y-77973902D01*
X56204709Y-77884158D01*
X56186750Y-77794688D01*
X56185186Y-77760895D01*
X56179501Y-77725001D01*
X56179501Y-77638056D01*
X56175489Y-77551367D01*
X56179501Y-77513513D01*
X56179501Y-77472999D01*
X56192480Y-77391051D01*
X56201162Y-77309137D01*
X56211935Y-77268219D01*
X56218923Y-77224098D01*
X56243319Y-77149016D01*
X56263180Y-77073578D01*
X56281710Y-77030859D01*
X56296796Y-76984430D01*
X56330788Y-76917717D01*
X56360112Y-76850114D01*
X56387162Y-76807076D01*
X56411203Y-76759893D01*
X56452816Y-76702618D01*
X56489731Y-76643884D01*
X56525765Y-76602212D01*
X56559326Y-76556019D01*
X56606496Y-76508849D01*
X56649054Y-76459632D01*
X56694222Y-76421123D01*
X56737519Y-76377826D01*
X56788166Y-76341029D01*
X56834421Y-76301593D01*
X56888540Y-76268103D01*
X56941393Y-76229703D01*
X56993483Y-76203162D01*
X57041545Y-76173420D01*
X57104065Y-76146818D01*
X57165930Y-76115296D01*
X57217611Y-76098504D01*
X57265688Y-76078047D01*
X57335675Y-76060142D01*
X57405598Y-76037423D01*
X57455177Y-76029571D01*
X57501667Y-76017677D01*
X57577863Y-76010139D01*
X57654499Y-75998001D01*
X57700555Y-75998001D01*
X57744071Y-75993696D01*
X57824868Y-75998001D01*
G37*
G36*
X41118929Y-76669468D02*
G01*
X41239953Y-76682189D01*
X41248268Y-76684891D01*
X41262041Y-76686533D01*
X41334572Y-76712932D01*
X41400093Y-76734221D01*
X41412085Y-76741145D01*
X41430906Y-76747995D01*
X41490753Y-76786564D01*
X41545907Y-76818407D01*
X41560367Y-76831427D01*
X41581959Y-76845342D01*
X41627717Y-76892069D01*
X41671039Y-76931076D01*
X41685768Y-76951349D01*
X41707690Y-76973735D01*
X41738952Y-77024551D01*
X41770006Y-77067293D01*
X41782471Y-77095290D01*
X41801852Y-77126793D01*
X41819245Y-77177886D01*
X41838491Y-77221112D01*
X41846022Y-77256541D01*
X41859764Y-77296909D01*
X41864813Y-77344949D01*
X41873499Y-77385813D01*
X41873499Y-77427589D01*
X41878548Y-77475627D01*
X41873499Y-77517970D01*
X41873499Y-77554187D01*
X41863662Y-77600465D01*
X41857271Y-77654066D01*
X41844862Y-77688914D01*
X41838491Y-77718888D01*
X41817004Y-77767150D01*
X41796989Y-77823357D01*
X41780200Y-77849812D01*
X41770007Y-77872706D01*
X41735736Y-77919876D01*
X41700699Y-77975085D01*
X41682477Y-77993180D01*
X41671037Y-78008926D01*
X41623702Y-78051547D01*
X41573187Y-78101710D01*
X41556202Y-78112323D01*
X41545907Y-78121593D01*
X41486209Y-78156060D01*
X41420790Y-78196938D01*
X41407223Y-78201663D01*
X41400093Y-78205779D01*
X41330065Y-78228532D01*
X41251083Y-78256037D01*
X41242423Y-78257008D01*
X41239953Y-78257811D01*
X41165478Y-78265639D01*
X41117683Y-78271000D01*
X39529998Y-78271000D01*
X39526071Y-78270532D01*
X39405047Y-78257811D01*
X39396732Y-78255109D01*
X39382959Y-78253467D01*
X39310428Y-78227068D01*
X39244907Y-78205779D01*
X39232915Y-78198855D01*
X39214094Y-78192005D01*
X39154247Y-78153436D01*
X39099093Y-78121593D01*
X39084633Y-78108573D01*
X39063041Y-78094658D01*
X39017283Y-78047931D01*
X38973961Y-78008924D01*
X38959232Y-77988651D01*
X38937310Y-77966265D01*
X38906048Y-77915449D01*
X38874994Y-77872707D01*
X38862529Y-77844710D01*
X38843148Y-77813207D01*
X38825755Y-77762114D01*
X38806509Y-77718888D01*
X38798978Y-77683459D01*
X38785236Y-77643091D01*
X38780187Y-77595051D01*
X38771501Y-77554187D01*
X38771501Y-77512411D01*
X38766452Y-77464373D01*
X38771501Y-77422030D01*
X38771501Y-77385813D01*
X38781338Y-77339535D01*
X38787729Y-77285934D01*
X38800138Y-77251086D01*
X38806509Y-77221112D01*
X38827996Y-77172850D01*
X38848011Y-77116643D01*
X38864800Y-77090188D01*
X38874993Y-77067294D01*
X38909264Y-77020124D01*
X38944301Y-76964915D01*
X38962523Y-76946820D01*
X38973963Y-76931074D01*
X39021298Y-76888453D01*
X39071813Y-76838290D01*
X39088798Y-76827677D01*
X39099093Y-76818407D01*
X39158791Y-76783940D01*
X39224210Y-76743062D01*
X39237777Y-76738337D01*
X39244907Y-76734221D01*
X39314935Y-76711468D01*
X39393917Y-76683963D01*
X39402577Y-76682992D01*
X39405047Y-76682189D01*
X39479522Y-76674361D01*
X39527317Y-76669000D01*
X41115002Y-76669000D01*
X41118929Y-76669468D01*
G37*
G36*
X41118929Y-74129468D02*
G01*
X41239953Y-74142189D01*
X41248268Y-74144891D01*
X41262041Y-74146533D01*
X41334572Y-74172932D01*
X41400093Y-74194221D01*
X41412085Y-74201145D01*
X41430906Y-74207995D01*
X41490753Y-74246564D01*
X41545907Y-74278407D01*
X41560367Y-74291427D01*
X41581959Y-74305342D01*
X41627717Y-74352069D01*
X41671039Y-74391076D01*
X41685768Y-74411349D01*
X41707690Y-74433735D01*
X41738952Y-74484551D01*
X41770006Y-74527293D01*
X41782471Y-74555290D01*
X41801852Y-74586793D01*
X41819245Y-74637886D01*
X41838491Y-74681112D01*
X41846022Y-74716541D01*
X41859764Y-74756909D01*
X41864813Y-74804949D01*
X41873499Y-74845813D01*
X41873499Y-74887589D01*
X41878548Y-74935627D01*
X41873499Y-74977970D01*
X41873499Y-75014187D01*
X41863662Y-75060465D01*
X41857271Y-75114066D01*
X41844862Y-75148914D01*
X41838491Y-75178888D01*
X41817004Y-75227150D01*
X41796989Y-75283357D01*
X41780200Y-75309812D01*
X41770007Y-75332706D01*
X41735736Y-75379876D01*
X41700699Y-75435085D01*
X41682477Y-75453180D01*
X41671037Y-75468926D01*
X41623702Y-75511547D01*
X41573187Y-75561710D01*
X41556202Y-75572323D01*
X41545907Y-75581593D01*
X41486209Y-75616060D01*
X41420790Y-75656938D01*
X41407223Y-75661663D01*
X41400093Y-75665779D01*
X41330065Y-75688532D01*
X41251083Y-75716037D01*
X41242423Y-75717008D01*
X41239953Y-75717811D01*
X41165478Y-75725639D01*
X41117683Y-75731000D01*
X39529998Y-75731000D01*
X39526071Y-75730532D01*
X39405047Y-75717811D01*
X39396732Y-75715109D01*
X39382959Y-75713467D01*
X39310428Y-75687068D01*
X39244907Y-75665779D01*
X39232915Y-75658855D01*
X39214094Y-75652005D01*
X39154247Y-75613436D01*
X39099093Y-75581593D01*
X39084633Y-75568573D01*
X39063041Y-75554658D01*
X39017283Y-75507931D01*
X38973961Y-75468924D01*
X38959232Y-75448651D01*
X38937310Y-75426265D01*
X38906048Y-75375449D01*
X38874994Y-75332707D01*
X38862529Y-75304710D01*
X38843148Y-75273207D01*
X38825755Y-75222114D01*
X38806509Y-75178888D01*
X38798978Y-75143459D01*
X38785236Y-75103091D01*
X38780187Y-75055051D01*
X38771501Y-75014187D01*
X38771501Y-74972411D01*
X38766452Y-74924373D01*
X38771501Y-74882030D01*
X38771501Y-74845813D01*
X38781338Y-74799535D01*
X38787729Y-74745934D01*
X38800138Y-74711086D01*
X38806509Y-74681112D01*
X38827996Y-74632850D01*
X38848011Y-74576643D01*
X38864800Y-74550188D01*
X38874993Y-74527294D01*
X38909264Y-74480124D01*
X38944301Y-74424915D01*
X38962523Y-74406820D01*
X38973963Y-74391074D01*
X39021298Y-74348453D01*
X39071813Y-74298290D01*
X39088798Y-74287677D01*
X39099093Y-74278407D01*
X39158791Y-74243940D01*
X39224210Y-74203062D01*
X39237777Y-74198337D01*
X39244907Y-74194221D01*
X39314935Y-74171468D01*
X39393917Y-74143963D01*
X39402577Y-74142992D01*
X39405047Y-74142189D01*
X39479522Y-74134361D01*
X39527317Y-74129000D01*
X41115002Y-74129000D01*
X41118929Y-74129468D01*
G37*
G36*
X56924808Y-72478245D02*
G01*
X56975942Y-72478602D01*
X57014708Y-72487695D01*
X57047953Y-72491189D01*
X57095575Y-72506662D01*
X57150897Y-72519638D01*
X57181602Y-72534614D01*
X57208093Y-72543221D01*
X57256218Y-72571006D01*
X57312413Y-72598414D01*
X57334632Y-72616278D01*
X57353907Y-72627407D01*
X57399243Y-72668227D01*
X57452462Y-72711017D01*
X57466659Y-72728929D01*
X57479039Y-72740076D01*
X57518035Y-72793749D01*
X57564084Y-72851849D01*
X57571515Y-72867360D01*
X57578006Y-72876293D01*
X57607040Y-72941504D01*
X57641732Y-73013911D01*
X57644289Y-73025167D01*
X57646491Y-73030112D01*
X57662145Y-73103759D01*
X57681545Y-73189148D01*
X57681468Y-73194667D01*
X57681499Y-73194813D01*
X57681499Y-73363187D01*
X57678946Y-73375197D01*
X57678723Y-73391183D01*
X57660281Y-73463008D01*
X57646491Y-73527888D01*
X57639717Y-73543103D01*
X57634033Y-73565240D01*
X57602821Y-73625972D01*
X57578006Y-73681707D01*
X57564922Y-73699716D01*
X57551891Y-73725071D01*
X57511705Y-73772963D01*
X57479039Y-73817924D01*
X57458339Y-73836563D01*
X57436380Y-73862732D01*
X57391122Y-73897085D01*
X57353907Y-73930593D01*
X57324951Y-73947311D01*
X57293241Y-73971380D01*
X57246677Y-73992502D01*
X57208093Y-74014779D01*
X57171000Y-74026831D01*
X57129589Y-74045616D01*
X57085041Y-74054761D01*
X57047953Y-74066811D01*
X57003653Y-74071467D01*
X56953556Y-74081751D01*
X56913750Y-74080917D01*
X56880500Y-74084412D01*
X56830696Y-74079177D01*
X56773892Y-74077987D01*
X56740744Y-74069722D01*
X56713047Y-74066811D01*
X56660204Y-74049641D01*
X56599527Y-74034513D01*
X56574078Y-74021658D01*
X56552907Y-74014779D01*
X56500072Y-73984274D01*
X56439127Y-73953489D01*
X56421517Y-73938921D01*
X56407093Y-73930593D01*
X56357802Y-73886211D01*
X56300663Y-73838942D01*
X56290167Y-73825313D01*
X56281961Y-73817924D01*
X56240001Y-73760171D01*
X56191018Y-73696565D01*
X56186177Y-73686088D01*
X56182994Y-73681707D01*
X56152354Y-73612890D01*
X56115641Y-73533435D01*
X56078279Y-73357658D01*
X56079501Y-73270143D01*
X56079501Y-73194813D01*
X56080627Y-73189516D01*
X56080788Y-73177973D01*
X56099670Y-73099926D01*
X56114509Y-73030112D01*
X56119000Y-73020026D01*
X56123044Y-73003309D01*
X56156014Y-72936891D01*
X56182994Y-72876293D01*
X56192783Y-72862820D01*
X56202946Y-72842346D01*
X56246104Y-72789430D01*
X56281961Y-72740076D01*
X56298504Y-72725181D01*
X56316524Y-72703086D01*
X56365798Y-72664589D01*
X56407093Y-72627407D01*
X56431213Y-72613481D01*
X56458132Y-72592450D01*
X56509539Y-72568260D01*
X56552907Y-72543221D01*
X56584703Y-72532890D01*
X56620732Y-72515936D01*
X56670683Y-72504954D01*
X56713047Y-72491189D01*
X56751831Y-72487112D01*
X56796243Y-72477348D01*
X56841709Y-72477665D01*
X56880500Y-72473588D01*
X56924808Y-72478245D01*
G37*
G36*
X50924808Y-72478245D02*
G01*
X50975942Y-72478602D01*
X51014708Y-72487695D01*
X51047953Y-72491189D01*
X51095575Y-72506662D01*
X51150897Y-72519638D01*
X51181602Y-72534614D01*
X51208093Y-72543221D01*
X51256218Y-72571006D01*
X51312413Y-72598414D01*
X51334632Y-72616278D01*
X51353907Y-72627407D01*
X51399243Y-72668227D01*
X51452462Y-72711017D01*
X51466659Y-72728929D01*
X51479039Y-72740076D01*
X51518035Y-72793749D01*
X51564084Y-72851849D01*
X51571515Y-72867360D01*
X51578006Y-72876293D01*
X51607040Y-72941504D01*
X51641732Y-73013911D01*
X51644289Y-73025167D01*
X51646491Y-73030112D01*
X51662145Y-73103759D01*
X51681545Y-73189148D01*
X51681468Y-73194667D01*
X51681499Y-73194813D01*
X51681499Y-73363187D01*
X51678946Y-73375197D01*
X51678723Y-73391183D01*
X51660281Y-73463008D01*
X51646491Y-73527888D01*
X51639717Y-73543103D01*
X51634033Y-73565240D01*
X51602821Y-73625972D01*
X51578006Y-73681707D01*
X51564922Y-73699716D01*
X51551891Y-73725071D01*
X51511705Y-73772963D01*
X51479039Y-73817924D01*
X51458339Y-73836563D01*
X51436380Y-73862732D01*
X51391122Y-73897085D01*
X51353907Y-73930593D01*
X51324951Y-73947311D01*
X51293241Y-73971380D01*
X51246677Y-73992502D01*
X51208093Y-74014779D01*
X51171000Y-74026831D01*
X51129589Y-74045616D01*
X51085041Y-74054761D01*
X51047953Y-74066811D01*
X51003653Y-74071467D01*
X50953556Y-74081751D01*
X50913750Y-74080917D01*
X50880500Y-74084412D01*
X50830696Y-74079177D01*
X50773892Y-74077987D01*
X50740744Y-74069722D01*
X50713047Y-74066811D01*
X50660204Y-74049641D01*
X50599527Y-74034513D01*
X50574078Y-74021658D01*
X50552907Y-74014779D01*
X50500072Y-73984274D01*
X50439127Y-73953489D01*
X50421517Y-73938921D01*
X50407093Y-73930593D01*
X50357802Y-73886211D01*
X50300663Y-73838942D01*
X50290167Y-73825313D01*
X50281961Y-73817924D01*
X50240001Y-73760171D01*
X50191018Y-73696565D01*
X50186177Y-73686088D01*
X50182994Y-73681707D01*
X50152354Y-73612890D01*
X50115641Y-73533435D01*
X50078279Y-73357658D01*
X50079501Y-73270143D01*
X50079501Y-73194813D01*
X50080627Y-73189516D01*
X50080788Y-73177973D01*
X50099670Y-73099926D01*
X50114509Y-73030112D01*
X50119000Y-73020026D01*
X50123044Y-73003309D01*
X50156014Y-72936891D01*
X50182994Y-72876293D01*
X50192783Y-72862820D01*
X50202946Y-72842346D01*
X50246104Y-72789430D01*
X50281961Y-72740076D01*
X50298504Y-72725181D01*
X50316524Y-72703086D01*
X50365798Y-72664589D01*
X50407093Y-72627407D01*
X50431213Y-72613481D01*
X50458132Y-72592450D01*
X50509539Y-72568260D01*
X50552907Y-72543221D01*
X50584703Y-72532890D01*
X50620732Y-72515936D01*
X50670683Y-72504954D01*
X50713047Y-72491189D01*
X50751831Y-72487112D01*
X50796243Y-72477348D01*
X50841709Y-72477665D01*
X50880500Y-72473588D01*
X50924808Y-72478245D01*
G37*
G36*
X53924808Y-72478245D02*
G01*
X53975942Y-72478602D01*
X54014708Y-72487695D01*
X54047953Y-72491189D01*
X54095575Y-72506662D01*
X54150897Y-72519638D01*
X54181602Y-72534614D01*
X54208093Y-72543221D01*
X54256218Y-72571006D01*
X54312413Y-72598414D01*
X54334632Y-72616278D01*
X54353907Y-72627407D01*
X54399243Y-72668227D01*
X54452462Y-72711017D01*
X54466659Y-72728929D01*
X54479039Y-72740076D01*
X54518035Y-72793749D01*
X54564084Y-72851849D01*
X54571515Y-72867360D01*
X54578006Y-72876293D01*
X54607040Y-72941504D01*
X54641732Y-73013911D01*
X54644289Y-73025167D01*
X54646491Y-73030112D01*
X54662145Y-73103759D01*
X54681545Y-73189148D01*
X54681468Y-73194667D01*
X54681499Y-73194813D01*
X54681499Y-73363187D01*
X54678946Y-73375197D01*
X54678723Y-73391183D01*
X54660281Y-73463008D01*
X54646491Y-73527888D01*
X54639717Y-73543103D01*
X54634033Y-73565240D01*
X54602821Y-73625972D01*
X54578006Y-73681707D01*
X54564922Y-73699716D01*
X54551891Y-73725071D01*
X54511705Y-73772963D01*
X54479039Y-73817924D01*
X54458339Y-73836563D01*
X54436380Y-73862732D01*
X54391122Y-73897085D01*
X54353907Y-73930593D01*
X54324951Y-73947311D01*
X54293241Y-73971380D01*
X54246677Y-73992502D01*
X54208093Y-74014779D01*
X54171000Y-74026831D01*
X54129589Y-74045616D01*
X54085041Y-74054761D01*
X54047953Y-74066811D01*
X54003653Y-74071467D01*
X53953556Y-74081751D01*
X53913750Y-74080917D01*
X53880500Y-74084412D01*
X53830696Y-74079177D01*
X53773892Y-74077987D01*
X53740744Y-74069722D01*
X53713047Y-74066811D01*
X53660204Y-74049641D01*
X53599527Y-74034513D01*
X53574078Y-74021658D01*
X53552907Y-74014779D01*
X53500072Y-73984274D01*
X53439127Y-73953489D01*
X53421517Y-73938921D01*
X53407093Y-73930593D01*
X53357802Y-73886211D01*
X53300663Y-73838942D01*
X53290167Y-73825313D01*
X53281961Y-73817924D01*
X53240001Y-73760171D01*
X53191018Y-73696565D01*
X53186177Y-73686088D01*
X53182994Y-73681707D01*
X53152354Y-73612890D01*
X53115641Y-73533435D01*
X53078279Y-73357658D01*
X53079501Y-73270143D01*
X53079501Y-73194813D01*
X53080627Y-73189516D01*
X53080788Y-73177973D01*
X53099670Y-73099926D01*
X53114509Y-73030112D01*
X53119000Y-73020026D01*
X53123044Y-73003309D01*
X53156014Y-72936891D01*
X53182994Y-72876293D01*
X53192783Y-72862820D01*
X53202946Y-72842346D01*
X53246104Y-72789430D01*
X53281961Y-72740076D01*
X53298504Y-72725181D01*
X53316524Y-72703086D01*
X53365798Y-72664589D01*
X53407093Y-72627407D01*
X53431213Y-72613481D01*
X53458132Y-72592450D01*
X53509539Y-72568260D01*
X53552907Y-72543221D01*
X53584703Y-72532890D01*
X53620732Y-72515936D01*
X53670683Y-72504954D01*
X53713047Y-72491189D01*
X53751831Y-72487112D01*
X53796243Y-72477348D01*
X53841709Y-72477665D01*
X53880500Y-72473588D01*
X53924808Y-72478245D01*
G37*
G36*
X59924808Y-72478245D02*
G01*
X59975942Y-72478602D01*
X60014708Y-72487695D01*
X60047953Y-72491189D01*
X60095575Y-72506662D01*
X60150897Y-72519638D01*
X60181602Y-72534614D01*
X60208093Y-72543221D01*
X60256218Y-72571006D01*
X60312413Y-72598414D01*
X60334632Y-72616278D01*
X60353907Y-72627407D01*
X60399243Y-72668227D01*
X60452462Y-72711017D01*
X60466659Y-72728929D01*
X60479039Y-72740076D01*
X60518035Y-72793749D01*
X60564084Y-72851849D01*
X60571515Y-72867360D01*
X60578006Y-72876293D01*
X60607040Y-72941504D01*
X60641732Y-73013911D01*
X60644289Y-73025167D01*
X60646491Y-73030112D01*
X60662145Y-73103759D01*
X60681545Y-73189148D01*
X60681468Y-73194667D01*
X60681499Y-73194813D01*
X60681499Y-73363187D01*
X60678946Y-73375197D01*
X60678723Y-73391183D01*
X60660281Y-73463008D01*
X60646491Y-73527888D01*
X60639717Y-73543103D01*
X60634033Y-73565240D01*
X60602821Y-73625972D01*
X60578006Y-73681707D01*
X60564922Y-73699716D01*
X60551891Y-73725071D01*
X60511705Y-73772963D01*
X60479039Y-73817924D01*
X60458339Y-73836563D01*
X60436380Y-73862732D01*
X60391122Y-73897085D01*
X60353907Y-73930593D01*
X60324951Y-73947311D01*
X60293241Y-73971380D01*
X60246677Y-73992502D01*
X60208093Y-74014779D01*
X60171000Y-74026831D01*
X60129589Y-74045616D01*
X60085041Y-74054761D01*
X60047953Y-74066811D01*
X60003653Y-74071467D01*
X59953556Y-74081751D01*
X59913750Y-74080917D01*
X59880500Y-74084412D01*
X59830696Y-74079177D01*
X59773892Y-74077987D01*
X59740744Y-74069722D01*
X59713047Y-74066811D01*
X59660204Y-74049641D01*
X59599527Y-74034513D01*
X59574078Y-74021658D01*
X59552907Y-74014779D01*
X59500072Y-73984274D01*
X59439127Y-73953489D01*
X59421517Y-73938921D01*
X59407093Y-73930593D01*
X59357802Y-73886211D01*
X59300663Y-73838942D01*
X59290167Y-73825313D01*
X59281961Y-73817924D01*
X59240001Y-73760171D01*
X59191018Y-73696565D01*
X59186177Y-73686088D01*
X59182994Y-73681707D01*
X59152354Y-73612890D01*
X59115641Y-73533435D01*
X59078279Y-73357658D01*
X59079501Y-73270143D01*
X59079501Y-73194813D01*
X59080627Y-73189516D01*
X59080788Y-73177973D01*
X59099670Y-73099926D01*
X59114509Y-73030112D01*
X59119000Y-73020026D01*
X59123044Y-73003309D01*
X59156014Y-72936891D01*
X59182994Y-72876293D01*
X59192783Y-72862820D01*
X59202946Y-72842346D01*
X59246104Y-72789430D01*
X59281961Y-72740076D01*
X59298504Y-72725181D01*
X59316524Y-72703086D01*
X59365798Y-72664589D01*
X59407093Y-72627407D01*
X59431213Y-72613481D01*
X59458132Y-72592450D01*
X59509539Y-72568260D01*
X59552907Y-72543221D01*
X59584703Y-72532890D01*
X59620732Y-72515936D01*
X59670683Y-72504954D01*
X59713047Y-72491189D01*
X59751831Y-72487112D01*
X59796243Y-72477348D01*
X59841709Y-72477665D01*
X59880500Y-72473588D01*
X59924808Y-72478245D01*
G37*
G36*
X66499261Y-70630818D02*
G01*
X66542655Y-70632979D01*
X66593357Y-70645385D01*
X66651123Y-70654328D01*
X66691941Y-70669508D01*
X66728194Y-70678379D01*
X66781205Y-70702705D01*
X66841726Y-70725213D01*
X66873447Y-70745035D01*
X66901797Y-70758044D01*
X66954221Y-70795507D01*
X67014184Y-70832976D01*
X67036828Y-70854540D01*
X67057200Y-70869098D01*
X67105793Y-70920215D01*
X67161450Y-70973216D01*
X67175784Y-70993840D01*
X67188805Y-71007537D01*
X67230149Y-71072061D01*
X67277509Y-71140203D01*
X67284979Y-71157632D01*
X67291857Y-71168366D01*
X67322515Y-71245210D01*
X67357620Y-71327117D01*
X67360193Y-71339650D01*
X67362636Y-71345774D01*
X67379344Y-71432948D01*
X67398511Y-71526321D01*
X67398488Y-71532832D01*
X67398560Y-71533206D01*
X67397873Y-71729779D01*
X67397800Y-71730147D01*
X67397777Y-71736665D01*
X67377938Y-71829998D01*
X67360641Y-71916957D01*
X67358157Y-71923058D01*
X67355496Y-71935579D01*
X67319811Y-72017259D01*
X67288627Y-72093865D01*
X67281674Y-72104551D01*
X67274082Y-72121929D01*
X67226239Y-72189751D01*
X67184451Y-72253976D01*
X67171337Y-72267580D01*
X67156860Y-72288102D01*
X67100844Y-72340704D01*
X67051889Y-72391487D01*
X67031411Y-72405906D01*
X67008618Y-72427310D01*
X66948390Y-72464363D01*
X66895711Y-72501455D01*
X66867280Y-72514262D01*
X66835413Y-72533867D01*
X66774722Y-72555956D01*
X66721554Y-72579907D01*
X66685243Y-72588524D01*
X66644319Y-72603419D01*
X66586500Y-72611957D01*
X66535710Y-72624010D01*
X66492299Y-72625867D01*
X66443143Y-72633126D01*
X66390906Y-72630205D01*
X66344872Y-72632175D01*
X66295832Y-72624890D01*
X66240102Y-72621774D01*
X66195459Y-72609979D01*
X66155938Y-72604108D01*
X66103387Y-72585653D01*
X66043490Y-72569828D01*
X66007619Y-72552021D01*
X65975720Y-72540819D01*
X65922329Y-72509682D01*
X65861340Y-72479407D01*
X65834627Y-72458537D01*
X65810719Y-72444594D01*
X65759580Y-72399903D01*
X65701092Y-72354208D01*
X65683101Y-72333069D01*
X65666890Y-72318902D01*
X65621380Y-72260547D01*
X65569291Y-72199343D01*
X65558883Y-72180411D01*
X65549424Y-72168282D01*
X65512998Y-72096946D01*
X65471323Y-72021139D01*
X65466757Y-72006388D01*
X65462560Y-71998169D01*
X65438600Y-71915428D01*
X65411188Y-71826875D01*
X65410283Y-71817641D01*
X65409431Y-71814700D01*
X65401032Y-71723299D01*
X65391344Y-71624488D01*
X65401710Y-71525861D01*
X65410758Y-71434405D01*
X65411632Y-71431464D01*
X65412601Y-71422244D01*
X65440618Y-71333922D01*
X65465166Y-71251316D01*
X65469420Y-71243126D01*
X65474090Y-71228405D01*
X65516298Y-71152883D01*
X65553217Y-71081810D01*
X65562760Y-71069748D01*
X65573300Y-71050889D01*
X65625813Y-70990052D01*
X65671733Y-70932012D01*
X65688044Y-70917957D01*
X65706179Y-70896948D01*
X65764977Y-70851667D01*
X65816435Y-70807328D01*
X65840442Y-70793551D01*
X65867297Y-70772870D01*
X65928481Y-70743029D01*
X65982101Y-70712258D01*
X66014090Y-70701275D01*
X66050074Y-70683724D01*
X66110071Y-70668319D01*
X66162756Y-70650230D01*
X66202316Y-70644635D01*
X66247043Y-70633151D01*
X66302792Y-70630424D01*
X66351886Y-70623481D01*
X66397909Y-70625772D01*
X66450158Y-70623217D01*
X66499261Y-70630818D01*
G37*
G36*
X69867399Y-70629959D02*
G01*
X69884269Y-70641231D01*
X69895541Y-70658101D01*
X69901948Y-70690312D01*
X69901948Y-72565688D01*
X69899499Y-72578000D01*
X69895541Y-72597899D01*
X69884269Y-72614769D01*
X69867399Y-72626041D01*
X69847500Y-72629999D01*
X69835188Y-72632448D01*
X67959812Y-72632448D01*
X67927601Y-72626041D01*
X67910731Y-72614769D01*
X67899459Y-72597899D01*
X67893052Y-72565688D01*
X67893052Y-70690312D01*
X67899459Y-70658101D01*
X67910731Y-70641231D01*
X67927601Y-70629959D01*
X67959812Y-70623552D01*
X69835188Y-70623552D01*
X69867399Y-70629959D01*
G37*
G36*
X50924808Y-69478245D02*
G01*
X50975942Y-69478602D01*
X51014708Y-69487695D01*
X51047953Y-69491189D01*
X51095575Y-69506662D01*
X51150897Y-69519638D01*
X51181602Y-69534614D01*
X51208093Y-69543221D01*
X51256218Y-69571006D01*
X51312413Y-69598414D01*
X51334632Y-69616278D01*
X51353907Y-69627407D01*
X51399243Y-69668227D01*
X51452462Y-69711017D01*
X51466659Y-69728929D01*
X51479039Y-69740076D01*
X51518035Y-69793749D01*
X51564084Y-69851849D01*
X51571515Y-69867360D01*
X51578006Y-69876293D01*
X51607040Y-69941504D01*
X51641732Y-70013911D01*
X51644289Y-70025167D01*
X51646491Y-70030112D01*
X51662145Y-70103759D01*
X51681545Y-70189148D01*
X51681468Y-70194667D01*
X51681499Y-70194813D01*
X51681499Y-70363187D01*
X51678946Y-70375197D01*
X51678723Y-70391183D01*
X51660281Y-70463008D01*
X51646491Y-70527888D01*
X51639717Y-70543103D01*
X51634033Y-70565240D01*
X51602821Y-70625972D01*
X51578006Y-70681707D01*
X51564922Y-70699716D01*
X51551891Y-70725071D01*
X51511705Y-70772963D01*
X51479039Y-70817924D01*
X51458339Y-70836563D01*
X51436380Y-70862732D01*
X51391122Y-70897085D01*
X51353907Y-70930593D01*
X51324951Y-70947311D01*
X51293241Y-70971380D01*
X51246677Y-70992502D01*
X51208093Y-71014779D01*
X51171000Y-71026831D01*
X51129589Y-71045616D01*
X51085041Y-71054761D01*
X51047953Y-71066811D01*
X51003653Y-71071467D01*
X50953556Y-71081751D01*
X50913750Y-71080917D01*
X50880500Y-71084412D01*
X50830696Y-71079177D01*
X50773892Y-71077987D01*
X50740744Y-71069722D01*
X50713047Y-71066811D01*
X50660204Y-71049641D01*
X50599527Y-71034513D01*
X50574078Y-71021658D01*
X50552907Y-71014779D01*
X50500072Y-70984274D01*
X50439127Y-70953489D01*
X50421517Y-70938921D01*
X50407093Y-70930593D01*
X50357802Y-70886211D01*
X50300663Y-70838942D01*
X50290167Y-70825313D01*
X50281961Y-70817924D01*
X50240001Y-70760171D01*
X50191018Y-70696565D01*
X50186177Y-70686088D01*
X50182994Y-70681707D01*
X50152354Y-70612890D01*
X50115641Y-70533435D01*
X50078279Y-70357658D01*
X50079501Y-70270143D01*
X50079501Y-70194813D01*
X50080627Y-70189516D01*
X50080788Y-70177973D01*
X50099670Y-70099926D01*
X50114509Y-70030112D01*
X50119000Y-70020026D01*
X50123044Y-70003309D01*
X50156014Y-69936891D01*
X50182994Y-69876293D01*
X50192783Y-69862820D01*
X50202946Y-69842346D01*
X50246104Y-69789430D01*
X50281961Y-69740076D01*
X50298504Y-69725181D01*
X50316524Y-69703086D01*
X50365798Y-69664589D01*
X50407093Y-69627407D01*
X50431213Y-69613481D01*
X50458132Y-69592450D01*
X50509539Y-69568260D01*
X50552907Y-69543221D01*
X50584703Y-69532890D01*
X50620732Y-69515936D01*
X50670683Y-69504954D01*
X50713047Y-69491189D01*
X50751831Y-69487112D01*
X50796243Y-69477348D01*
X50841709Y-69477665D01*
X50880500Y-69473588D01*
X50924808Y-69478245D01*
G37*
G36*
X53924808Y-69478245D02*
G01*
X53975942Y-69478602D01*
X54014708Y-69487695D01*
X54047953Y-69491189D01*
X54095575Y-69506662D01*
X54150897Y-69519638D01*
X54181602Y-69534614D01*
X54208093Y-69543221D01*
X54256218Y-69571006D01*
X54312413Y-69598414D01*
X54334632Y-69616278D01*
X54353907Y-69627407D01*
X54399243Y-69668227D01*
X54452462Y-69711017D01*
X54466659Y-69728929D01*
X54479039Y-69740076D01*
X54518035Y-69793749D01*
X54564084Y-69851849D01*
X54571515Y-69867360D01*
X54578006Y-69876293D01*
X54607040Y-69941504D01*
X54641732Y-70013911D01*
X54644289Y-70025167D01*
X54646491Y-70030112D01*
X54662145Y-70103759D01*
X54681545Y-70189148D01*
X54681468Y-70194667D01*
X54681499Y-70194813D01*
X54681499Y-70363187D01*
X54678946Y-70375197D01*
X54678723Y-70391183D01*
X54660281Y-70463008D01*
X54646491Y-70527888D01*
X54639717Y-70543103D01*
X54634033Y-70565240D01*
X54602821Y-70625972D01*
X54578006Y-70681707D01*
X54564922Y-70699716D01*
X54551891Y-70725071D01*
X54511705Y-70772963D01*
X54479039Y-70817924D01*
X54458339Y-70836563D01*
X54436380Y-70862732D01*
X54391122Y-70897085D01*
X54353907Y-70930593D01*
X54324951Y-70947311D01*
X54293241Y-70971380D01*
X54246677Y-70992502D01*
X54208093Y-71014779D01*
X54171000Y-71026831D01*
X54129589Y-71045616D01*
X54085041Y-71054761D01*
X54047953Y-71066811D01*
X54003653Y-71071467D01*
X53953556Y-71081751D01*
X53913750Y-71080917D01*
X53880500Y-71084412D01*
X53830696Y-71079177D01*
X53773892Y-71077987D01*
X53740744Y-71069722D01*
X53713047Y-71066811D01*
X53660204Y-71049641D01*
X53599527Y-71034513D01*
X53574078Y-71021658D01*
X53552907Y-71014779D01*
X53500072Y-70984274D01*
X53439127Y-70953489D01*
X53421517Y-70938921D01*
X53407093Y-70930593D01*
X53357802Y-70886211D01*
X53300663Y-70838942D01*
X53290167Y-70825313D01*
X53281961Y-70817924D01*
X53240001Y-70760171D01*
X53191018Y-70696565D01*
X53186177Y-70686088D01*
X53182994Y-70681707D01*
X53152354Y-70612890D01*
X53115641Y-70533435D01*
X53078279Y-70357658D01*
X53079501Y-70270143D01*
X53079501Y-70194813D01*
X53080627Y-70189516D01*
X53080788Y-70177973D01*
X53099670Y-70099926D01*
X53114509Y-70030112D01*
X53119000Y-70020026D01*
X53123044Y-70003309D01*
X53156014Y-69936891D01*
X53182994Y-69876293D01*
X53192783Y-69862820D01*
X53202946Y-69842346D01*
X53246104Y-69789430D01*
X53281961Y-69740076D01*
X53298504Y-69725181D01*
X53316524Y-69703086D01*
X53365798Y-69664589D01*
X53407093Y-69627407D01*
X53431213Y-69613481D01*
X53458132Y-69592450D01*
X53509539Y-69568260D01*
X53552907Y-69543221D01*
X53584703Y-69532890D01*
X53620732Y-69515936D01*
X53670683Y-69504954D01*
X53713047Y-69491189D01*
X53751831Y-69487112D01*
X53796243Y-69477348D01*
X53841709Y-69477665D01*
X53880500Y-69473588D01*
X53924808Y-69478245D01*
G37*
G36*
X56924808Y-69478245D02*
G01*
X56975942Y-69478602D01*
X57014708Y-69487695D01*
X57047953Y-69491189D01*
X57095575Y-69506662D01*
X57150897Y-69519638D01*
X57181602Y-69534614D01*
X57208093Y-69543221D01*
X57256218Y-69571006D01*
X57312413Y-69598414D01*
X57334632Y-69616278D01*
X57353907Y-69627407D01*
X57399243Y-69668227D01*
X57452462Y-69711017D01*
X57466659Y-69728929D01*
X57479039Y-69740076D01*
X57518035Y-69793749D01*
X57564084Y-69851849D01*
X57571515Y-69867360D01*
X57578006Y-69876293D01*
X57607040Y-69941504D01*
X57641732Y-70013911D01*
X57644289Y-70025167D01*
X57646491Y-70030112D01*
X57662145Y-70103759D01*
X57681545Y-70189148D01*
X57681468Y-70194667D01*
X57681499Y-70194813D01*
X57681499Y-70363187D01*
X57678946Y-70375197D01*
X57678723Y-70391183D01*
X57660281Y-70463008D01*
X57646491Y-70527888D01*
X57639717Y-70543103D01*
X57634033Y-70565240D01*
X57602821Y-70625972D01*
X57578006Y-70681707D01*
X57564922Y-70699716D01*
X57551891Y-70725071D01*
X57511705Y-70772963D01*
X57479039Y-70817924D01*
X57458339Y-70836563D01*
X57436380Y-70862732D01*
X57391122Y-70897085D01*
X57353907Y-70930593D01*
X57324951Y-70947311D01*
X57293241Y-70971380D01*
X57246677Y-70992502D01*
X57208093Y-71014779D01*
X57171000Y-71026831D01*
X57129589Y-71045616D01*
X57085041Y-71054761D01*
X57047953Y-71066811D01*
X57003653Y-71071467D01*
X56953556Y-71081751D01*
X56913750Y-71080917D01*
X56880500Y-71084412D01*
X56830696Y-71079177D01*
X56773892Y-71077987D01*
X56740744Y-71069722D01*
X56713047Y-71066811D01*
X56660204Y-71049641D01*
X56599527Y-71034513D01*
X56574078Y-71021658D01*
X56552907Y-71014779D01*
X56500072Y-70984274D01*
X56439127Y-70953489D01*
X56421517Y-70938921D01*
X56407093Y-70930593D01*
X56357802Y-70886211D01*
X56300663Y-70838942D01*
X56290167Y-70825313D01*
X56281961Y-70817924D01*
X56240001Y-70760171D01*
X56191018Y-70696565D01*
X56186177Y-70686088D01*
X56182994Y-70681707D01*
X56152354Y-70612890D01*
X56115641Y-70533435D01*
X56078279Y-70357658D01*
X56079501Y-70270143D01*
X56079501Y-70194813D01*
X56080627Y-70189516D01*
X56080788Y-70177973D01*
X56099670Y-70099926D01*
X56114509Y-70030112D01*
X56119000Y-70020026D01*
X56123044Y-70003309D01*
X56156014Y-69936891D01*
X56182994Y-69876293D01*
X56192783Y-69862820D01*
X56202946Y-69842346D01*
X56246104Y-69789430D01*
X56281961Y-69740076D01*
X56298504Y-69725181D01*
X56316524Y-69703086D01*
X56365798Y-69664589D01*
X56407093Y-69627407D01*
X56431213Y-69613481D01*
X56458132Y-69592450D01*
X56509539Y-69568260D01*
X56552907Y-69543221D01*
X56584703Y-69532890D01*
X56620732Y-69515936D01*
X56670683Y-69504954D01*
X56713047Y-69491189D01*
X56751831Y-69487112D01*
X56796243Y-69477348D01*
X56841709Y-69477665D01*
X56880500Y-69473588D01*
X56924808Y-69478245D01*
G37*
G36*
X59924808Y-69478245D02*
G01*
X59975942Y-69478602D01*
X60014708Y-69487695D01*
X60047953Y-69491189D01*
X60095575Y-69506662D01*
X60150897Y-69519638D01*
X60181602Y-69534614D01*
X60208093Y-69543221D01*
X60256218Y-69571006D01*
X60312413Y-69598414D01*
X60334632Y-69616278D01*
X60353907Y-69627407D01*
X60399243Y-69668227D01*
X60452462Y-69711017D01*
X60466659Y-69728929D01*
X60479039Y-69740076D01*
X60518035Y-69793749D01*
X60564084Y-69851849D01*
X60571515Y-69867360D01*
X60578006Y-69876293D01*
X60607040Y-69941504D01*
X60641732Y-70013911D01*
X60644289Y-70025167D01*
X60646491Y-70030112D01*
X60662145Y-70103759D01*
X60681545Y-70189148D01*
X60681468Y-70194667D01*
X60681499Y-70194813D01*
X60681499Y-70363187D01*
X60678946Y-70375197D01*
X60678723Y-70391183D01*
X60660281Y-70463008D01*
X60646491Y-70527888D01*
X60639717Y-70543103D01*
X60634033Y-70565240D01*
X60602821Y-70625972D01*
X60578006Y-70681707D01*
X60564922Y-70699716D01*
X60551891Y-70725071D01*
X60511705Y-70772963D01*
X60479039Y-70817924D01*
X60458339Y-70836563D01*
X60436380Y-70862732D01*
X60391122Y-70897085D01*
X60353907Y-70930593D01*
X60324951Y-70947311D01*
X60293241Y-70971380D01*
X60246677Y-70992502D01*
X60208093Y-71014779D01*
X60171000Y-71026831D01*
X60129589Y-71045616D01*
X60085041Y-71054761D01*
X60047953Y-71066811D01*
X60003653Y-71071467D01*
X59953556Y-71081751D01*
X59913750Y-71080917D01*
X59880500Y-71084412D01*
X59830696Y-71079177D01*
X59773892Y-71077987D01*
X59740744Y-71069722D01*
X59713047Y-71066811D01*
X59660204Y-71049641D01*
X59599527Y-71034513D01*
X59574078Y-71021658D01*
X59552907Y-71014779D01*
X59500072Y-70984274D01*
X59439127Y-70953489D01*
X59421517Y-70938921D01*
X59407093Y-70930593D01*
X59357802Y-70886211D01*
X59300663Y-70838942D01*
X59290167Y-70825313D01*
X59281961Y-70817924D01*
X59240001Y-70760171D01*
X59191018Y-70696565D01*
X59186177Y-70686088D01*
X59182994Y-70681707D01*
X59152354Y-70612890D01*
X59115641Y-70533435D01*
X59078279Y-70357658D01*
X59079501Y-70270143D01*
X59079501Y-70194813D01*
X59080627Y-70189516D01*
X59080788Y-70177973D01*
X59099670Y-70099926D01*
X59114509Y-70030112D01*
X59119000Y-70020026D01*
X59123044Y-70003309D01*
X59156014Y-69936891D01*
X59182994Y-69876293D01*
X59192783Y-69862820D01*
X59202946Y-69842346D01*
X59246104Y-69789430D01*
X59281961Y-69740076D01*
X59298504Y-69725181D01*
X59316524Y-69703086D01*
X59365798Y-69664589D01*
X59407093Y-69627407D01*
X59431213Y-69613481D01*
X59458132Y-69592450D01*
X59509539Y-69568260D01*
X59552907Y-69543221D01*
X59584703Y-69532890D01*
X59620732Y-69515936D01*
X59670683Y-69504954D01*
X59713047Y-69491189D01*
X59751831Y-69487112D01*
X59796243Y-69477348D01*
X59841709Y-69477665D01*
X59880500Y-69473588D01*
X59924808Y-69478245D01*
G37*
G36*
X41118929Y-69049468D02*
G01*
X41239953Y-69062189D01*
X41248268Y-69064891D01*
X41262041Y-69066533D01*
X41334572Y-69092932D01*
X41400093Y-69114221D01*
X41412085Y-69121145D01*
X41430906Y-69127995D01*
X41490753Y-69166564D01*
X41545907Y-69198407D01*
X41560367Y-69211427D01*
X41581959Y-69225342D01*
X41627717Y-69272069D01*
X41671039Y-69311076D01*
X41685768Y-69331349D01*
X41707690Y-69353735D01*
X41738952Y-69404551D01*
X41770006Y-69447293D01*
X41782471Y-69475290D01*
X41801852Y-69506793D01*
X41819245Y-69557886D01*
X41838491Y-69601112D01*
X41846022Y-69636541D01*
X41859764Y-69676909D01*
X41864813Y-69724949D01*
X41873499Y-69765813D01*
X41873499Y-69807589D01*
X41878548Y-69855627D01*
X41873499Y-69897970D01*
X41873499Y-69934187D01*
X41863662Y-69980465D01*
X41857271Y-70034066D01*
X41844862Y-70068914D01*
X41838491Y-70098888D01*
X41817004Y-70147150D01*
X41796989Y-70203357D01*
X41780200Y-70229812D01*
X41770007Y-70252706D01*
X41735736Y-70299876D01*
X41700699Y-70355085D01*
X41682477Y-70373180D01*
X41671037Y-70388926D01*
X41623702Y-70431547D01*
X41573187Y-70481710D01*
X41556202Y-70492323D01*
X41545907Y-70501593D01*
X41486209Y-70536060D01*
X41420790Y-70576938D01*
X41407223Y-70581663D01*
X41400093Y-70585779D01*
X41330065Y-70608532D01*
X41251083Y-70636037D01*
X41242423Y-70637008D01*
X41239953Y-70637811D01*
X41165478Y-70645639D01*
X41117683Y-70651000D01*
X39529998Y-70651000D01*
X39526071Y-70650532D01*
X39405047Y-70637811D01*
X39396732Y-70635109D01*
X39382959Y-70633467D01*
X39310428Y-70607068D01*
X39244907Y-70585779D01*
X39232915Y-70578855D01*
X39214094Y-70572005D01*
X39154245Y-70533435D01*
X39099093Y-70501593D01*
X39084633Y-70488573D01*
X39063041Y-70474658D01*
X39017283Y-70427931D01*
X38973961Y-70388924D01*
X38959232Y-70368651D01*
X38937310Y-70346265D01*
X38906048Y-70295449D01*
X38874994Y-70252707D01*
X38862529Y-70224710D01*
X38843148Y-70193207D01*
X38825755Y-70142114D01*
X38806509Y-70098888D01*
X38798978Y-70063459D01*
X38785236Y-70023091D01*
X38780187Y-69975051D01*
X38771501Y-69934187D01*
X38771501Y-69892411D01*
X38766452Y-69844373D01*
X38771501Y-69802030D01*
X38771501Y-69765813D01*
X38781338Y-69719535D01*
X38787729Y-69665934D01*
X38800138Y-69631086D01*
X38806509Y-69601112D01*
X38827996Y-69552850D01*
X38848011Y-69496643D01*
X38864800Y-69470188D01*
X38874993Y-69447294D01*
X38909264Y-69400124D01*
X38944301Y-69344915D01*
X38962523Y-69326820D01*
X38973963Y-69311074D01*
X39021298Y-69268453D01*
X39071813Y-69218290D01*
X39088798Y-69207677D01*
X39099093Y-69198407D01*
X39158791Y-69163940D01*
X39224210Y-69123062D01*
X39237777Y-69118337D01*
X39244907Y-69114221D01*
X39314935Y-69091468D01*
X39393917Y-69063963D01*
X39402577Y-69062992D01*
X39405047Y-69062189D01*
X39479522Y-69054361D01*
X39527317Y-69049000D01*
X41115002Y-69049000D01*
X41118929Y-69049468D01*
G37*
G36*
X24704205Y-66692994D02*
G01*
X24766804Y-66691027D01*
X24816728Y-66698399D01*
X24860549Y-66700504D01*
X24920265Y-66713688D01*
X24987720Y-66723649D01*
X25030324Y-66737987D01*
X25067864Y-66746275D01*
X25129472Y-66771354D01*
X25199369Y-66794877D01*
X25233923Y-66813873D01*
X25264497Y-66826319D01*
X25325522Y-66864230D01*
X25395059Y-66902458D01*
X25421421Y-66923806D01*
X25444833Y-66938350D01*
X25502535Y-66989490D01*
X25568605Y-67042993D01*
X25587172Y-67064503D01*
X25603715Y-67079165D01*
X25655209Y-67143325D01*
X25714522Y-67212040D01*
X25726181Y-67231754D01*
X25736601Y-67244737D01*
X25778959Y-67320996D01*
X25828198Y-67404254D01*
X25834263Y-67420563D01*
X25839690Y-67430333D01*
X25870085Y-67516886D01*
X25906038Y-67613561D01*
X25908143Y-67625258D01*
X25910034Y-67630644D01*
X25925894Y-67723915D01*
X25945583Y-67833344D01*
X25945439Y-67838858D01*
X25945521Y-67839343D01*
X25943033Y-68076833D01*
X25938602Y-68099953D01*
X25938025Y-68121980D01*
X25918088Y-68206982D01*
X25903184Y-68284744D01*
X25894276Y-68308506D01*
X25887032Y-68339392D01*
X25854616Y-68414301D01*
X25828661Y-68483537D01*
X25813132Y-68510166D01*
X25798344Y-68544338D01*
X25756291Y-68607633D01*
X25721707Y-68666935D01*
X25698415Y-68694742D01*
X25674764Y-68730340D01*
X25626035Y-68781154D01*
X25585383Y-68829687D01*
X25553600Y-68856688D01*
X25520200Y-68891518D01*
X25467738Y-68929634D01*
X25423586Y-68967144D01*
X25383045Y-68991167D01*
X25339537Y-69022778D01*
X25286137Y-69048593D01*
X25240948Y-69075370D01*
X25191891Y-69094152D01*
X25138484Y-69119970D01*
X25086680Y-69134434D01*
X25042672Y-69151283D01*
X24985855Y-69162585D01*
X24923398Y-69180023D01*
X24875358Y-69184564D01*
X24834452Y-69192701D01*
X24771169Y-69194413D01*
X24701077Y-69201039D01*
X24658483Y-69197462D01*
X24622231Y-69198443D01*
X24554277Y-69188711D01*
X24478547Y-69182352D01*
X24442587Y-69172716D01*
X24412068Y-69168346D01*
X24341684Y-69145680D01*
X24262844Y-69124555D01*
X24234134Y-69111045D01*
X24209984Y-69103268D01*
X24139801Y-69066655D01*
X24060785Y-69029473D01*
X24039416Y-69014287D01*
X24021758Y-69005075D01*
X23954679Y-68954067D01*
X23878757Y-68900112D01*
X23864271Y-68885320D01*
X23852762Y-68876568D01*
X23791938Y-68811456D01*
X23722513Y-68740562D01*
X23713970Y-68727991D01*
X23707838Y-68721427D01*
X23656605Y-68643581D01*
X23596993Y-68555864D01*
X23593056Y-68547021D01*
X23591123Y-68544084D01*
X23553612Y-68458429D01*
X23506164Y-68351858D01*
X23475045Y-68225165D01*
X23454777Y-68143572D01*
X23454679Y-68142250D01*
X23452896Y-68134992D01*
X23446032Y-68025887D01*
X23439044Y-67931855D01*
X23439690Y-67925086D01*
X23438874Y-67912120D01*
X23450577Y-67810974D01*
X23459208Y-67720511D01*
X23462414Y-67708670D01*
X23464541Y-67690288D01*
X23492155Y-67598827D01*
X23514693Y-67515586D01*
X23522145Y-67499494D01*
X23529086Y-67476506D01*
X23569775Y-67396649D01*
X23603913Y-67322936D01*
X23617068Y-67303832D01*
X23630467Y-67277534D01*
X23681182Y-67210719D01*
X23724314Y-67148080D01*
X23744304Y-67127560D01*
X23765482Y-67099659D01*
X23823076Y-67046699D01*
X23872457Y-66996008D01*
X23900019Y-66975946D01*
X23929862Y-66948504D01*
X23991196Y-66909580D01*
X24044107Y-66871067D01*
X24079528Y-66853522D01*
X24118410Y-66828847D01*
X24180510Y-66803505D01*
X24234347Y-66776838D01*
X24277415Y-66763958D01*
X24325169Y-66744470D01*
X24385360Y-66731676D01*
X24437751Y-66716008D01*
X24487745Y-66709914D01*
X24543601Y-66698041D01*
X24599564Y-66696282D01*
X24648491Y-66690318D01*
X24704205Y-66692994D01*
G37*
G36*
X33414399Y-66696959D02*
G01*
X33431269Y-66708231D01*
X33442541Y-66725101D01*
X33448948Y-66757312D01*
X33448948Y-69132688D01*
X33446499Y-69145000D01*
X33442541Y-69164899D01*
X33431269Y-69181769D01*
X33414399Y-69193041D01*
X33394500Y-69196999D01*
X33382188Y-69199448D01*
X31006812Y-69199448D01*
X30974601Y-69193041D01*
X30957731Y-69181769D01*
X30946459Y-69164899D01*
X30940052Y-69132688D01*
X30940052Y-66757312D01*
X30946459Y-66725101D01*
X30957731Y-66708231D01*
X30974601Y-66696959D01*
X31006812Y-66690552D01*
X33382188Y-66690552D01*
X33414399Y-66696959D01*
G37*
G36*
X41118929Y-66509468D02*
G01*
X41239953Y-66522189D01*
X41248268Y-66524891D01*
X41262041Y-66526533D01*
X41334572Y-66552932D01*
X41400093Y-66574221D01*
X41412085Y-66581145D01*
X41430906Y-66587995D01*
X41490753Y-66626564D01*
X41545907Y-66658407D01*
X41560367Y-66671427D01*
X41581959Y-66685342D01*
X41627717Y-66732069D01*
X41671039Y-66771076D01*
X41685768Y-66791349D01*
X41707690Y-66813735D01*
X41738952Y-66864551D01*
X41770006Y-66907293D01*
X41782471Y-66935290D01*
X41801852Y-66966793D01*
X41819245Y-67017886D01*
X41838491Y-67061112D01*
X41846022Y-67096541D01*
X41859764Y-67136909D01*
X41864813Y-67184949D01*
X41873499Y-67225813D01*
X41873499Y-67267589D01*
X41878548Y-67315627D01*
X41873499Y-67357970D01*
X41873499Y-67394187D01*
X41863662Y-67440465D01*
X41857271Y-67494066D01*
X41844862Y-67528914D01*
X41838491Y-67558888D01*
X41817004Y-67607150D01*
X41796989Y-67663357D01*
X41780200Y-67689812D01*
X41770007Y-67712706D01*
X41735736Y-67759876D01*
X41700699Y-67815085D01*
X41682477Y-67833180D01*
X41671037Y-67848926D01*
X41623702Y-67891547D01*
X41573187Y-67941710D01*
X41556202Y-67952323D01*
X41545907Y-67961593D01*
X41486209Y-67996060D01*
X41420790Y-68036938D01*
X41407223Y-68041663D01*
X41400093Y-68045779D01*
X41330065Y-68068532D01*
X41251083Y-68096037D01*
X41242423Y-68097008D01*
X41239953Y-68097811D01*
X41165478Y-68105639D01*
X41117683Y-68111000D01*
X39529998Y-68111000D01*
X39526071Y-68110532D01*
X39405047Y-68097811D01*
X39396732Y-68095109D01*
X39382959Y-68093467D01*
X39310428Y-68067068D01*
X39244907Y-68045779D01*
X39232915Y-68038855D01*
X39214094Y-68032005D01*
X39154247Y-67993436D01*
X39099093Y-67961593D01*
X39084633Y-67948573D01*
X39063041Y-67934658D01*
X39017283Y-67887931D01*
X38973961Y-67848924D01*
X38959232Y-67828651D01*
X38937310Y-67806265D01*
X38906048Y-67755449D01*
X38874994Y-67712707D01*
X38862529Y-67684710D01*
X38843148Y-67653207D01*
X38825755Y-67602114D01*
X38806509Y-67558888D01*
X38798978Y-67523459D01*
X38785236Y-67483091D01*
X38780187Y-67435051D01*
X38771501Y-67394187D01*
X38771501Y-67352411D01*
X38766452Y-67304373D01*
X38771501Y-67262030D01*
X38771501Y-67225813D01*
X38781338Y-67179535D01*
X38787729Y-67125934D01*
X38800138Y-67091086D01*
X38806509Y-67061112D01*
X38827996Y-67012850D01*
X38848011Y-66956643D01*
X38864800Y-66930188D01*
X38874993Y-66907294D01*
X38909264Y-66860124D01*
X38944301Y-66804915D01*
X38962523Y-66786820D01*
X38973963Y-66771074D01*
X39021298Y-66728453D01*
X39071813Y-66678290D01*
X39088798Y-66667677D01*
X39099093Y-66658407D01*
X39158791Y-66623940D01*
X39224210Y-66583062D01*
X39237777Y-66578337D01*
X39244907Y-66574221D01*
X39314935Y-66551468D01*
X39393917Y-66523963D01*
X39402577Y-66522992D01*
X39405047Y-66522189D01*
X39479522Y-66514361D01*
X39527317Y-66509000D01*
X41115002Y-66509000D01*
X41118929Y-66509468D01*
G37*
G36*
X56454476Y-65886326D02*
G01*
X56496266Y-65884282D01*
X56540556Y-65891139D01*
X56591310Y-65893976D01*
X56631663Y-65905243D01*
X56667121Y-65910732D01*
X56714704Y-65928428D01*
X56769398Y-65943699D01*
X56801122Y-65960567D01*
X56829159Y-65970994D01*
X56877257Y-66001049D01*
X56932653Y-66030504D01*
X56955468Y-66049921D01*
X56975771Y-66062608D01*
X57021141Y-66105813D01*
X57073461Y-66150341D01*
X57087963Y-66169447D01*
X57100972Y-66181835D01*
X57140116Y-66238155D01*
X57185251Y-66297618D01*
X57192802Y-66313959D01*
X57199642Y-66323801D01*
X57229008Y-66392317D01*
X57262807Y-66465465D01*
X57265385Y-66477192D01*
X57267747Y-66482702D01*
X57283929Y-66561536D01*
X57302511Y-66646051D01*
X57301845Y-66836888D01*
X57282681Y-66921238D01*
X57265943Y-66999985D01*
X57263541Y-67005482D01*
X57260881Y-67017192D01*
X57226569Y-67090109D01*
X57196727Y-67158415D01*
X57189818Y-67168209D01*
X57182155Y-67184494D01*
X57136614Y-67243630D01*
X57097070Y-67299687D01*
X57083972Y-67311987D01*
X57069340Y-67330987D01*
X57016727Y-67375135D01*
X56971044Y-67418034D01*
X56950647Y-67430582D01*
X56927699Y-67449838D01*
X56872100Y-67478905D01*
X56823793Y-67508623D01*
X56795684Y-67518854D01*
X56763841Y-67535501D01*
X56709034Y-67550392D01*
X56661331Y-67567754D01*
X56625840Y-67572995D01*
X56585411Y-67583979D01*
X56534639Y-67586462D01*
X56490303Y-67593009D01*
X56448527Y-67590674D01*
X56400733Y-67593011D01*
X56356492Y-67585528D01*
X56317689Y-67583359D01*
X56271480Y-67571150D01*
X56218423Y-67562176D01*
X56182339Y-67547597D01*
X56150535Y-67539194D01*
X56102397Y-67515299D01*
X56046988Y-67492912D01*
X56019811Y-67474304D01*
X55995682Y-67462326D01*
X55948628Y-67425563D01*
X55894426Y-67388450D01*
X55875969Y-67368795D01*
X55859450Y-67355889D01*
X55816900Y-67305893D01*
X55767854Y-67253664D01*
X55757108Y-67235638D01*
X55747396Y-67224226D01*
X55712901Y-67161481D01*
X55673178Y-67094844D01*
X55668443Y-67080611D01*
X55664110Y-67072729D01*
X55641192Y-66998692D01*
X55614814Y-66919398D01*
X55613872Y-66910434D01*
X55612986Y-66907572D01*
X55604847Y-66824568D01*
X55595487Y-66735512D01*
X55605467Y-66646544D01*
X55614187Y-66563578D01*
X55615093Y-66560720D01*
X55616098Y-66551765D01*
X55643030Y-66472653D01*
X55666463Y-66398781D01*
X55670850Y-66390932D01*
X55675684Y-66376731D01*
X55715882Y-66310357D01*
X55750804Y-66247871D01*
X55760592Y-66236531D01*
X55771467Y-66218575D01*
X55820885Y-66166681D01*
X55863773Y-66116995D01*
X55880379Y-66104207D01*
X55898977Y-66084677D01*
X55953452Y-66047933D01*
X56000750Y-66011509D01*
X56024958Y-65999702D01*
X56052265Y-65981283D01*
X56107819Y-65959287D01*
X56156133Y-65935723D01*
X56188003Y-65927540D01*
X56224179Y-65913217D01*
X56277295Y-65904614D01*
X56323588Y-65892728D01*
X56362403Y-65890830D01*
X56406699Y-65883655D01*
X56454476Y-65886326D01*
G37*
G36*
X61454476Y-65886326D02*
G01*
X61496266Y-65884282D01*
X61540556Y-65891139D01*
X61591310Y-65893976D01*
X61631663Y-65905243D01*
X61667121Y-65910732D01*
X61714704Y-65928428D01*
X61769398Y-65943699D01*
X61801122Y-65960567D01*
X61829159Y-65970994D01*
X61877257Y-66001049D01*
X61932653Y-66030504D01*
X61955468Y-66049921D01*
X61975771Y-66062608D01*
X62021141Y-66105813D01*
X62073461Y-66150341D01*
X62087963Y-66169447D01*
X62100972Y-66181835D01*
X62140116Y-66238155D01*
X62185251Y-66297618D01*
X62192802Y-66313959D01*
X62199642Y-66323801D01*
X62229008Y-66392317D01*
X62262807Y-66465465D01*
X62265385Y-66477192D01*
X62267747Y-66482702D01*
X62283929Y-66561536D01*
X62302511Y-66646051D01*
X62301845Y-66836888D01*
X62282681Y-66921238D01*
X62265943Y-66999985D01*
X62263541Y-67005482D01*
X62260881Y-67017192D01*
X62226569Y-67090109D01*
X62196727Y-67158415D01*
X62189818Y-67168209D01*
X62182155Y-67184494D01*
X62136614Y-67243630D01*
X62097070Y-67299687D01*
X62083972Y-67311987D01*
X62069340Y-67330987D01*
X62016727Y-67375135D01*
X61971044Y-67418034D01*
X61950647Y-67430582D01*
X61927699Y-67449838D01*
X61872100Y-67478905D01*
X61823793Y-67508623D01*
X61795684Y-67518854D01*
X61763841Y-67535501D01*
X61709034Y-67550392D01*
X61661331Y-67567754D01*
X61625840Y-67572995D01*
X61585411Y-67583979D01*
X61534639Y-67586462D01*
X61490303Y-67593009D01*
X61448527Y-67590674D01*
X61400733Y-67593011D01*
X61356492Y-67585528D01*
X61317689Y-67583359D01*
X61271480Y-67571150D01*
X61218423Y-67562176D01*
X61182339Y-67547597D01*
X61150535Y-67539194D01*
X61102397Y-67515299D01*
X61046988Y-67492912D01*
X61019811Y-67474304D01*
X60995682Y-67462326D01*
X60948628Y-67425563D01*
X60894426Y-67388450D01*
X60875969Y-67368795D01*
X60859450Y-67355889D01*
X60816900Y-67305893D01*
X60767854Y-67253664D01*
X60757108Y-67235638D01*
X60747396Y-67224226D01*
X60712901Y-67161481D01*
X60673178Y-67094844D01*
X60668443Y-67080611D01*
X60664110Y-67072729D01*
X60641192Y-66998692D01*
X60614814Y-66919398D01*
X60613872Y-66910434D01*
X60612986Y-66907572D01*
X60604847Y-66824568D01*
X60595487Y-66735512D01*
X60605467Y-66646544D01*
X60614187Y-66563578D01*
X60615093Y-66560720D01*
X60616098Y-66551765D01*
X60643030Y-66472653D01*
X60666463Y-66398781D01*
X60670850Y-66390932D01*
X60675684Y-66376731D01*
X60715882Y-66310357D01*
X60750804Y-66247871D01*
X60760592Y-66236531D01*
X60771467Y-66218575D01*
X60820885Y-66166681D01*
X60863773Y-66116995D01*
X60880379Y-66104207D01*
X60898977Y-66084677D01*
X60953452Y-66047933D01*
X61000750Y-66011509D01*
X61024958Y-65999702D01*
X61052265Y-65981283D01*
X61107819Y-65959287D01*
X61156133Y-65935723D01*
X61188003Y-65927540D01*
X61224179Y-65913217D01*
X61277295Y-65904614D01*
X61323588Y-65892728D01*
X61362403Y-65890830D01*
X61406699Y-65883655D01*
X61454476Y-65886326D01*
G37*
G36*
X67748899Y-65199459D02*
G01*
X67765769Y-65210731D01*
X67777041Y-65227601D01*
X67783448Y-65259812D01*
X67783448Y-66835188D01*
X67780999Y-66847500D01*
X67777041Y-66867399D01*
X67765769Y-66884269D01*
X67748899Y-66895541D01*
X67729000Y-66899499D01*
X67716688Y-66901948D01*
X66141312Y-66901948D01*
X66109101Y-66895541D01*
X66092231Y-66884269D01*
X66080959Y-66867399D01*
X66074552Y-66835188D01*
X66074552Y-65259812D01*
X66080959Y-65227601D01*
X66092231Y-65210731D01*
X66109101Y-65199459D01*
X66141312Y-65193052D01*
X67716688Y-65193052D01*
X67748899Y-65199459D01*
G37*
G36*
X51810399Y-65191959D02*
G01*
X51827269Y-65203231D01*
X51838541Y-65220101D01*
X51844948Y-65252312D01*
X51844948Y-66827688D01*
X51842499Y-66840000D01*
X51838541Y-66859899D01*
X51827269Y-66876769D01*
X51810399Y-66888041D01*
X51790500Y-66891999D01*
X51778188Y-66894448D01*
X50202812Y-66894448D01*
X50170601Y-66888041D01*
X50153731Y-66876769D01*
X50142459Y-66859899D01*
X50136052Y-66827688D01*
X50136052Y-65252312D01*
X50142459Y-65220101D01*
X50153731Y-65203231D01*
X50170601Y-65191959D01*
X50202812Y-65185552D01*
X51778188Y-65185552D01*
X51810399Y-65191959D01*
G37*
G36*
X41118929Y-63969468D02*
G01*
X41239953Y-63982189D01*
X41248268Y-63984891D01*
X41262041Y-63986533D01*
X41334572Y-64012932D01*
X41400093Y-64034221D01*
X41412085Y-64041145D01*
X41430906Y-64047995D01*
X41490753Y-64086564D01*
X41545907Y-64118407D01*
X41560367Y-64131427D01*
X41581959Y-64145342D01*
X41627717Y-64192069D01*
X41671039Y-64231076D01*
X41685768Y-64251349D01*
X41707690Y-64273735D01*
X41738952Y-64324551D01*
X41770006Y-64367293D01*
X41782471Y-64395290D01*
X41801852Y-64426793D01*
X41819245Y-64477886D01*
X41838491Y-64521112D01*
X41846022Y-64556541D01*
X41859764Y-64596909D01*
X41864813Y-64644949D01*
X41873499Y-64685813D01*
X41873499Y-64727589D01*
X41878548Y-64775627D01*
X41873499Y-64817970D01*
X41873499Y-64854187D01*
X41863662Y-64900465D01*
X41857271Y-64954066D01*
X41844862Y-64988914D01*
X41838491Y-65018888D01*
X41817004Y-65067150D01*
X41796989Y-65123357D01*
X41780200Y-65149812D01*
X41770007Y-65172706D01*
X41735736Y-65219876D01*
X41700699Y-65275085D01*
X41682477Y-65293180D01*
X41671037Y-65308926D01*
X41623702Y-65351547D01*
X41573187Y-65401710D01*
X41556202Y-65412323D01*
X41545907Y-65421593D01*
X41486209Y-65456060D01*
X41420790Y-65496938D01*
X41407223Y-65501663D01*
X41400093Y-65505779D01*
X41330065Y-65528532D01*
X41251083Y-65556037D01*
X41242423Y-65557008D01*
X41239953Y-65557811D01*
X41165478Y-65565639D01*
X41117683Y-65571000D01*
X39529998Y-65571000D01*
X39526071Y-65570532D01*
X39405047Y-65557811D01*
X39396732Y-65555109D01*
X39382959Y-65553467D01*
X39310428Y-65527068D01*
X39244907Y-65505779D01*
X39232915Y-65498855D01*
X39214094Y-65492005D01*
X39154247Y-65453436D01*
X39099093Y-65421593D01*
X39084633Y-65408573D01*
X39063041Y-65394658D01*
X39017283Y-65347931D01*
X38973961Y-65308924D01*
X38959232Y-65288651D01*
X38937310Y-65266265D01*
X38906048Y-65215449D01*
X38874994Y-65172707D01*
X38862529Y-65144710D01*
X38843148Y-65113207D01*
X38825755Y-65062114D01*
X38806509Y-65018888D01*
X38798978Y-64983459D01*
X38785236Y-64943091D01*
X38780187Y-64895051D01*
X38771501Y-64854187D01*
X38771501Y-64812411D01*
X38766452Y-64764373D01*
X38771501Y-64722030D01*
X38771501Y-64685813D01*
X38781338Y-64639535D01*
X38787729Y-64585934D01*
X38800138Y-64551086D01*
X38806509Y-64521112D01*
X38827996Y-64472850D01*
X38848011Y-64416643D01*
X38864800Y-64390188D01*
X38874993Y-64367294D01*
X38909264Y-64320124D01*
X38944301Y-64264915D01*
X38962523Y-64246820D01*
X38973963Y-64231074D01*
X39021298Y-64188453D01*
X39071813Y-64138290D01*
X39088798Y-64127677D01*
X39099093Y-64118407D01*
X39158791Y-64083940D01*
X39224210Y-64043062D01*
X39237777Y-64038337D01*
X39244907Y-64034221D01*
X39314935Y-64011468D01*
X39393917Y-63983963D01*
X39402577Y-63982992D01*
X39405047Y-63982189D01*
X39479522Y-63974361D01*
X39527317Y-63969000D01*
X41115002Y-63969000D01*
X41118929Y-63969468D01*
G37*
G36*
X66931976Y-61695326D02*
G01*
X66973766Y-61693282D01*
X67018056Y-61700139D01*
X67068810Y-61702976D01*
X67109163Y-61714243D01*
X67144621Y-61719732D01*
X67192204Y-61737428D01*
X67246898Y-61752699D01*
X67278622Y-61769567D01*
X67306659Y-61779994D01*
X67354757Y-61810049D01*
X67410153Y-61839504D01*
X67432968Y-61858921D01*
X67453271Y-61871608D01*
X67498641Y-61914813D01*
X67550961Y-61959341D01*
X67565463Y-61978447D01*
X67578472Y-61990835D01*
X67617616Y-62047155D01*
X67662751Y-62106618D01*
X67670302Y-62122959D01*
X67677142Y-62132801D01*
X67706508Y-62201317D01*
X67740307Y-62274465D01*
X67742885Y-62286192D01*
X67745247Y-62291702D01*
X67761429Y-62370536D01*
X67780011Y-62455051D01*
X67779345Y-62645888D01*
X67760181Y-62730238D01*
X67743443Y-62808985D01*
X67741041Y-62814482D01*
X67738381Y-62826192D01*
X67704069Y-62899109D01*
X67674227Y-62967415D01*
X67667318Y-62977209D01*
X67659655Y-62993494D01*
X67614114Y-63052630D01*
X67574570Y-63108687D01*
X67561472Y-63120987D01*
X67546840Y-63139987D01*
X67494227Y-63184135D01*
X67448544Y-63227034D01*
X67428147Y-63239582D01*
X67405199Y-63258838D01*
X67349600Y-63287905D01*
X67301293Y-63317623D01*
X67273184Y-63327854D01*
X67241341Y-63344501D01*
X67186534Y-63359392D01*
X67138831Y-63376754D01*
X67103340Y-63381995D01*
X67062911Y-63392979D01*
X67012139Y-63395462D01*
X66967803Y-63402009D01*
X66926027Y-63399674D01*
X66878233Y-63402011D01*
X66833992Y-63394528D01*
X66795189Y-63392359D01*
X66748980Y-63380150D01*
X66695923Y-63371176D01*
X66659839Y-63356597D01*
X66628035Y-63348194D01*
X66579897Y-63324299D01*
X66524488Y-63301912D01*
X66497311Y-63283304D01*
X66473182Y-63271326D01*
X66426128Y-63234563D01*
X66371926Y-63197450D01*
X66353469Y-63177795D01*
X66336950Y-63164889D01*
X66294400Y-63114893D01*
X66245354Y-63062664D01*
X66234608Y-63044638D01*
X66224896Y-63033226D01*
X66190401Y-62970481D01*
X66150678Y-62903844D01*
X66145943Y-62889611D01*
X66141610Y-62881729D01*
X66118692Y-62807692D01*
X66092314Y-62728398D01*
X66091372Y-62719434D01*
X66090486Y-62716572D01*
X66082347Y-62633568D01*
X66072987Y-62544512D01*
X66082971Y-62455501D01*
X66091687Y-62372578D01*
X66092593Y-62369720D01*
X66093598Y-62360765D01*
X66120530Y-62281653D01*
X66143963Y-62207781D01*
X66148350Y-62199932D01*
X66153184Y-62185731D01*
X66193382Y-62119357D01*
X66228304Y-62056871D01*
X66238092Y-62045531D01*
X66248967Y-62027575D01*
X66298385Y-61975681D01*
X66341273Y-61925995D01*
X66357879Y-61913207D01*
X66376477Y-61893677D01*
X66430952Y-61856933D01*
X66478250Y-61820509D01*
X66502458Y-61808702D01*
X66529765Y-61790283D01*
X66585319Y-61768287D01*
X66633633Y-61744723D01*
X66665503Y-61736540D01*
X66701679Y-61722217D01*
X66754795Y-61713614D01*
X66801088Y-61701728D01*
X66839903Y-61699830D01*
X66884199Y-61692655D01*
X66931976Y-61695326D01*
G37*
G36*
X50993476Y-61687826D02*
G01*
X51035266Y-61685782D01*
X51079556Y-61692639D01*
X51130310Y-61695476D01*
X51170663Y-61706743D01*
X51206121Y-61712232D01*
X51253704Y-61729928D01*
X51308398Y-61745199D01*
X51340122Y-61762067D01*
X51368159Y-61772494D01*
X51416257Y-61802549D01*
X51471653Y-61832004D01*
X51494468Y-61851421D01*
X51514771Y-61864108D01*
X51560141Y-61907313D01*
X51612461Y-61951841D01*
X51626963Y-61970947D01*
X51639972Y-61983335D01*
X51679116Y-62039655D01*
X51724251Y-62099118D01*
X51731802Y-62115459D01*
X51738642Y-62125301D01*
X51768008Y-62193817D01*
X51801807Y-62266965D01*
X51804385Y-62278692D01*
X51806747Y-62284202D01*
X51822929Y-62363036D01*
X51841511Y-62447551D01*
X51840845Y-62638388D01*
X51821681Y-62722738D01*
X51804943Y-62801485D01*
X51802541Y-62806982D01*
X51799881Y-62818692D01*
X51765569Y-62891609D01*
X51735727Y-62959915D01*
X51728818Y-62969709D01*
X51721155Y-62985994D01*
X51675614Y-63045130D01*
X51636070Y-63101187D01*
X51622972Y-63113487D01*
X51608340Y-63132487D01*
X51555727Y-63176635D01*
X51510044Y-63219534D01*
X51489647Y-63232082D01*
X51466699Y-63251338D01*
X51411100Y-63280405D01*
X51362793Y-63310123D01*
X51334684Y-63320354D01*
X51302841Y-63337001D01*
X51248034Y-63351892D01*
X51200331Y-63369254D01*
X51164840Y-63374495D01*
X51124411Y-63385479D01*
X51073639Y-63387962D01*
X51029303Y-63394509D01*
X50987527Y-63392174D01*
X50939733Y-63394511D01*
X50895492Y-63387028D01*
X50856689Y-63384859D01*
X50810480Y-63372650D01*
X50757423Y-63363676D01*
X50721339Y-63349097D01*
X50689535Y-63340694D01*
X50641397Y-63316799D01*
X50585988Y-63294412D01*
X50558811Y-63275804D01*
X50534682Y-63263826D01*
X50487628Y-63227063D01*
X50433426Y-63189950D01*
X50414969Y-63170295D01*
X50398450Y-63157389D01*
X50355900Y-63107393D01*
X50306854Y-63055164D01*
X50296108Y-63037138D01*
X50286396Y-63025726D01*
X50251901Y-62962981D01*
X50212178Y-62896344D01*
X50207443Y-62882111D01*
X50203110Y-62874229D01*
X50180192Y-62800192D01*
X50153814Y-62720898D01*
X50152872Y-62711934D01*
X50151986Y-62709072D01*
X50143847Y-62626068D01*
X50134487Y-62537012D01*
X50144467Y-62448044D01*
X50153187Y-62365078D01*
X50154093Y-62362220D01*
X50155098Y-62353265D01*
X50182030Y-62274153D01*
X50205463Y-62200281D01*
X50209850Y-62192432D01*
X50214684Y-62178231D01*
X50254882Y-62111857D01*
X50289804Y-62049371D01*
X50299592Y-62038031D01*
X50310467Y-62020075D01*
X50359885Y-61968181D01*
X50402773Y-61918495D01*
X50419379Y-61905707D01*
X50437977Y-61886177D01*
X50492452Y-61849433D01*
X50539750Y-61813009D01*
X50563958Y-61801202D01*
X50591265Y-61782783D01*
X50646819Y-61760787D01*
X50695133Y-61737223D01*
X50727003Y-61729040D01*
X50763179Y-61714717D01*
X50816295Y-61706114D01*
X50862588Y-61694228D01*
X50901403Y-61692330D01*
X50945699Y-61685155D01*
X50993476Y-61687826D01*
G37*
G36*
X41118929Y-61429468D02*
G01*
X41239953Y-61442189D01*
X41248268Y-61444891D01*
X41262041Y-61446533D01*
X41334572Y-61472932D01*
X41400093Y-61494221D01*
X41412085Y-61501145D01*
X41430906Y-61507995D01*
X41490753Y-61546564D01*
X41545907Y-61578407D01*
X41560367Y-61591427D01*
X41581959Y-61605342D01*
X41627717Y-61652069D01*
X41671039Y-61691076D01*
X41685768Y-61711349D01*
X41707690Y-61733735D01*
X41738952Y-61784551D01*
X41770006Y-61827293D01*
X41782471Y-61855290D01*
X41801852Y-61886793D01*
X41819245Y-61937886D01*
X41838491Y-61981112D01*
X41846022Y-62016541D01*
X41859764Y-62056909D01*
X41864813Y-62104949D01*
X41873499Y-62145813D01*
X41873499Y-62187589D01*
X41878548Y-62235627D01*
X41873499Y-62277970D01*
X41873499Y-62314187D01*
X41863662Y-62360465D01*
X41857271Y-62414066D01*
X41844862Y-62448914D01*
X41838491Y-62478888D01*
X41817004Y-62527150D01*
X41796989Y-62583357D01*
X41780200Y-62609812D01*
X41770007Y-62632706D01*
X41735736Y-62679876D01*
X41700699Y-62735085D01*
X41682477Y-62753180D01*
X41671037Y-62768926D01*
X41623702Y-62811547D01*
X41573187Y-62861710D01*
X41556202Y-62872323D01*
X41545907Y-62881593D01*
X41486209Y-62916060D01*
X41420790Y-62956938D01*
X41407223Y-62961663D01*
X41400093Y-62965779D01*
X41330065Y-62988532D01*
X41251083Y-63016037D01*
X41242423Y-63017008D01*
X41239953Y-63017811D01*
X41165478Y-63025639D01*
X41117683Y-63031000D01*
X39529998Y-63031000D01*
X39526071Y-63030532D01*
X39405047Y-63017811D01*
X39396732Y-63015109D01*
X39382959Y-63013467D01*
X39310428Y-62987068D01*
X39244907Y-62965779D01*
X39232915Y-62958855D01*
X39214094Y-62952005D01*
X39154247Y-62913436D01*
X39099093Y-62881593D01*
X39084633Y-62868573D01*
X39063041Y-62854658D01*
X39017283Y-62807931D01*
X38973961Y-62768924D01*
X38959232Y-62748651D01*
X38937310Y-62726265D01*
X38906048Y-62675449D01*
X38874994Y-62632707D01*
X38862529Y-62604710D01*
X38843148Y-62573207D01*
X38825755Y-62522114D01*
X38806509Y-62478888D01*
X38798978Y-62443459D01*
X38785236Y-62403091D01*
X38780187Y-62355051D01*
X38771501Y-62314187D01*
X38771501Y-62272411D01*
X38766452Y-62224373D01*
X38771501Y-62182030D01*
X38771501Y-62145813D01*
X38781338Y-62099535D01*
X38787729Y-62045934D01*
X38800138Y-62011086D01*
X38806509Y-61981112D01*
X38827996Y-61932850D01*
X38848011Y-61876643D01*
X38864800Y-61850188D01*
X38874993Y-61827294D01*
X38909264Y-61780124D01*
X38944301Y-61724915D01*
X38962523Y-61706820D01*
X38973963Y-61691074D01*
X39021298Y-61648453D01*
X39071813Y-61598290D01*
X39088798Y-61587677D01*
X39099093Y-61578407D01*
X39158791Y-61543940D01*
X39224210Y-61503062D01*
X39237777Y-61498337D01*
X39244907Y-61494221D01*
X39314935Y-61471468D01*
X39393917Y-61443963D01*
X39402577Y-61442992D01*
X39405047Y-61442189D01*
X39479522Y-61434361D01*
X39527317Y-61429000D01*
X41115002Y-61429000D01*
X41118929Y-61429468D01*
G37*
G36*
X56454476Y-60806326D02*
G01*
X56496266Y-60804282D01*
X56540556Y-60811139D01*
X56591310Y-60813976D01*
X56631663Y-60825243D01*
X56667121Y-60830732D01*
X56714704Y-60848428D01*
X56769398Y-60863699D01*
X56801122Y-60880567D01*
X56829159Y-60890994D01*
X56877257Y-60921049D01*
X56932653Y-60950504D01*
X56955468Y-60969921D01*
X56975771Y-60982608D01*
X57021141Y-61025813D01*
X57073461Y-61070341D01*
X57087963Y-61089447D01*
X57100972Y-61101835D01*
X57140116Y-61158155D01*
X57185251Y-61217618D01*
X57192802Y-61233959D01*
X57199642Y-61243801D01*
X57229008Y-61312317D01*
X57262807Y-61385465D01*
X57265385Y-61397192D01*
X57267747Y-61402702D01*
X57283929Y-61481536D01*
X57302511Y-61566051D01*
X57301845Y-61756888D01*
X57282681Y-61841238D01*
X57265943Y-61919985D01*
X57263541Y-61925482D01*
X57260881Y-61937192D01*
X57226569Y-62010109D01*
X57196727Y-62078415D01*
X57189818Y-62088209D01*
X57182155Y-62104494D01*
X57136614Y-62163630D01*
X57097070Y-62219687D01*
X57083972Y-62231987D01*
X57069340Y-62250987D01*
X57016727Y-62295135D01*
X56971044Y-62338034D01*
X56950647Y-62350582D01*
X56927699Y-62369838D01*
X56872100Y-62398905D01*
X56823793Y-62428623D01*
X56795684Y-62438854D01*
X56763841Y-62455501D01*
X56709034Y-62470392D01*
X56661331Y-62487754D01*
X56625840Y-62492995D01*
X56585411Y-62503979D01*
X56534639Y-62506462D01*
X56490303Y-62513009D01*
X56448527Y-62510674D01*
X56400733Y-62513011D01*
X56356492Y-62505528D01*
X56317689Y-62503359D01*
X56271480Y-62491150D01*
X56218423Y-62482176D01*
X56182339Y-62467597D01*
X56150535Y-62459194D01*
X56102397Y-62435299D01*
X56046988Y-62412912D01*
X56019811Y-62394304D01*
X55995682Y-62382326D01*
X55948628Y-62345563D01*
X55894426Y-62308450D01*
X55875969Y-62288795D01*
X55859450Y-62275889D01*
X55816900Y-62225893D01*
X55767854Y-62173664D01*
X55757108Y-62155638D01*
X55747396Y-62144226D01*
X55712901Y-62081481D01*
X55673178Y-62014844D01*
X55668443Y-62000611D01*
X55664110Y-61992729D01*
X55641192Y-61918692D01*
X55614814Y-61839398D01*
X55613872Y-61830434D01*
X55612986Y-61827572D01*
X55604847Y-61744568D01*
X55595487Y-61655512D01*
X55605467Y-61566544D01*
X55614187Y-61483578D01*
X55615093Y-61480720D01*
X55616098Y-61471765D01*
X55643030Y-61392653D01*
X55666463Y-61318781D01*
X55670850Y-61310932D01*
X55675684Y-61296731D01*
X55715882Y-61230357D01*
X55750804Y-61167871D01*
X55760592Y-61156531D01*
X55771467Y-61138575D01*
X55820885Y-61086681D01*
X55863773Y-61036995D01*
X55880379Y-61024207D01*
X55898977Y-61004677D01*
X55953452Y-60967933D01*
X56000750Y-60931509D01*
X56024958Y-60919702D01*
X56052265Y-60901283D01*
X56107819Y-60879287D01*
X56156133Y-60855723D01*
X56188003Y-60847540D01*
X56224179Y-60833217D01*
X56277295Y-60824614D01*
X56323588Y-60812728D01*
X56362403Y-60810830D01*
X56406699Y-60803655D01*
X56454476Y-60806326D01*
G37*
G36*
X61454476Y-60806326D02*
G01*
X61496266Y-60804282D01*
X61540556Y-60811139D01*
X61591310Y-60813976D01*
X61631663Y-60825243D01*
X61667121Y-60830732D01*
X61714704Y-60848428D01*
X61769398Y-60863699D01*
X61801122Y-60880567D01*
X61829159Y-60890994D01*
X61877257Y-60921049D01*
X61932653Y-60950504D01*
X61955468Y-60969921D01*
X61975771Y-60982608D01*
X62021141Y-61025813D01*
X62073461Y-61070341D01*
X62087963Y-61089447D01*
X62100972Y-61101835D01*
X62140116Y-61158155D01*
X62185251Y-61217618D01*
X62192802Y-61233959D01*
X62199642Y-61243801D01*
X62229008Y-61312317D01*
X62262807Y-61385465D01*
X62265385Y-61397192D01*
X62267747Y-61402702D01*
X62283929Y-61481536D01*
X62302511Y-61566051D01*
X62301845Y-61756888D01*
X62282681Y-61841238D01*
X62265943Y-61919985D01*
X62263541Y-61925482D01*
X62260881Y-61937192D01*
X62226569Y-62010109D01*
X62196727Y-62078415D01*
X62189818Y-62088209D01*
X62182155Y-62104494D01*
X62136614Y-62163630D01*
X62097070Y-62219687D01*
X62083972Y-62231987D01*
X62069340Y-62250987D01*
X62016727Y-62295135D01*
X61971044Y-62338034D01*
X61950647Y-62350582D01*
X61927699Y-62369838D01*
X61872100Y-62398905D01*
X61823793Y-62428623D01*
X61795684Y-62438854D01*
X61763841Y-62455501D01*
X61709034Y-62470392D01*
X61661331Y-62487754D01*
X61625840Y-62492995D01*
X61585411Y-62503979D01*
X61534639Y-62506462D01*
X61490303Y-62513009D01*
X61448527Y-62510674D01*
X61400733Y-62513011D01*
X61356492Y-62505528D01*
X61317689Y-62503359D01*
X61271480Y-62491150D01*
X61218423Y-62482176D01*
X61182339Y-62467597D01*
X61150535Y-62459194D01*
X61102397Y-62435299D01*
X61046988Y-62412912D01*
X61019811Y-62394304D01*
X60995682Y-62382326D01*
X60948628Y-62345563D01*
X60894426Y-62308450D01*
X60875969Y-62288795D01*
X60859450Y-62275889D01*
X60816900Y-62225893D01*
X60767854Y-62173664D01*
X60757108Y-62155638D01*
X60747396Y-62144226D01*
X60712901Y-62081481D01*
X60673178Y-62014844D01*
X60668443Y-62000611D01*
X60664110Y-61992729D01*
X60641192Y-61918692D01*
X60614814Y-61839398D01*
X60613872Y-61830434D01*
X60612986Y-61827572D01*
X60604847Y-61744568D01*
X60595487Y-61655512D01*
X60605467Y-61566544D01*
X60614187Y-61483578D01*
X60615093Y-61480720D01*
X60616098Y-61471765D01*
X60643030Y-61392653D01*
X60666463Y-61318781D01*
X60670850Y-61310932D01*
X60675684Y-61296731D01*
X60715882Y-61230357D01*
X60750804Y-61167871D01*
X60760592Y-61156531D01*
X60771467Y-61138575D01*
X60820885Y-61086681D01*
X60863773Y-61036995D01*
X60880379Y-61024207D01*
X60898977Y-61004677D01*
X60953452Y-60967933D01*
X61000750Y-60931509D01*
X61024958Y-60919702D01*
X61052265Y-60901283D01*
X61107819Y-60879287D01*
X61156133Y-60855723D01*
X61188003Y-60847540D01*
X61224179Y-60833217D01*
X61277295Y-60824614D01*
X61323588Y-60812728D01*
X61362403Y-60810830D01*
X61406699Y-60803655D01*
X61454476Y-60806326D01*
G37*
G36*
X57856779Y-55482872D02*
G01*
X57869664Y-55486325D01*
X57875360Y-55486863D01*
X57980716Y-55516081D01*
X58076668Y-55541791D01*
X58139077Y-55570893D01*
X58274829Y-55633907D01*
X58276164Y-55634818D01*
X58282984Y-55637998D01*
X58364540Y-55695104D01*
X58451557Y-55754463D01*
X58457706Y-55760339D01*
X58469461Y-55768570D01*
X58537114Y-55836223D01*
X58606222Y-55902264D01*
X58615463Y-55914572D01*
X58630430Y-55929539D01*
X58682024Y-56003223D01*
X58734678Y-56073352D01*
X58744964Y-56093111D01*
X58761002Y-56116016D01*
X58796364Y-56191851D01*
X58833458Y-56263107D01*
X58842519Y-56290830D01*
X58857209Y-56322332D01*
X58877193Y-56396915D01*
X58899925Y-56466462D01*
X58905379Y-56502105D01*
X58916128Y-56542221D01*
X58922284Y-56612581D01*
X58932284Y-56677934D01*
X58931760Y-56720887D01*
X58935969Y-56769000D01*
X58930394Y-56832721D01*
X58929672Y-56891856D01*
X58920923Y-56940970D01*
X58916128Y-56995779D01*
X58901308Y-57051089D01*
X58892154Y-57102477D01*
X58873186Y-57156040D01*
X58857209Y-57215668D01*
X58835852Y-57261469D01*
X58820741Y-57304140D01*
X58789913Y-57359985D01*
X58761002Y-57421985D01*
X58735889Y-57457851D01*
X58717348Y-57491437D01*
X58673453Y-57547018D01*
X58630430Y-57608461D01*
X58604262Y-57634629D01*
X58584760Y-57659323D01*
X58527119Y-57711772D01*
X58469461Y-57769430D01*
X58444697Y-57786770D01*
X58426524Y-57803306D01*
X58354981Y-57849589D01*
X58282984Y-57900002D01*
X58261749Y-57909904D01*
X58246899Y-57919511D01*
X58161747Y-57956536D01*
X58076668Y-57996209D01*
X58060607Y-58000513D01*
X58050705Y-58004818D01*
X57952163Y-58029570D01*
X57856779Y-58055128D01*
X57847009Y-58055983D01*
X57843218Y-58056935D01*
X57725575Y-58066607D01*
X57686795Y-58070000D01*
X54073205Y-58070000D01*
X53903221Y-58055128D01*
X53890336Y-58051675D01*
X53884640Y-58051137D01*
X53779284Y-58021919D01*
X53683332Y-57996209D01*
X53620923Y-57967107D01*
X53485171Y-57904093D01*
X53483836Y-57903182D01*
X53477016Y-57900002D01*
X53395460Y-57842896D01*
X53308443Y-57783537D01*
X53302294Y-57777661D01*
X53290539Y-57769430D01*
X53222886Y-57701777D01*
X53153778Y-57635736D01*
X53144537Y-57623428D01*
X53129570Y-57608461D01*
X53077976Y-57534777D01*
X53025322Y-57464648D01*
X53015036Y-57444889D01*
X52998998Y-57421984D01*
X52963636Y-57346149D01*
X52926542Y-57274893D01*
X52917481Y-57247170D01*
X52902791Y-57215668D01*
X52882807Y-57141085D01*
X52860075Y-57071538D01*
X52854621Y-57035895D01*
X52843872Y-56995779D01*
X52837716Y-56925419D01*
X52827716Y-56860066D01*
X52828240Y-56817113D01*
X52824031Y-56769000D01*
X52829606Y-56705279D01*
X52830328Y-56646144D01*
X52839077Y-56597030D01*
X52843872Y-56542221D01*
X52858692Y-56486911D01*
X52867846Y-56435523D01*
X52886814Y-56381960D01*
X52902791Y-56322332D01*
X52924148Y-56276531D01*
X52939259Y-56233860D01*
X52970087Y-56178015D01*
X52998998Y-56116015D01*
X53024111Y-56080149D01*
X53042652Y-56046563D01*
X53086547Y-55990982D01*
X53129570Y-55929539D01*
X53155738Y-55903371D01*
X53175240Y-55878677D01*
X53232881Y-55826228D01*
X53290539Y-55768570D01*
X53315303Y-55751230D01*
X53333476Y-55734694D01*
X53405019Y-55688411D01*
X53477016Y-55637998D01*
X53498251Y-55628096D01*
X53513101Y-55618489D01*
X53598253Y-55581464D01*
X53683332Y-55541791D01*
X53699393Y-55537487D01*
X53709295Y-55533182D01*
X53807837Y-55508430D01*
X53903221Y-55482872D01*
X53912991Y-55482017D01*
X53916782Y-55481065D01*
X54034425Y-55471393D01*
X54073205Y-55468000D01*
X57686795Y-55468000D01*
X57856779Y-55482872D01*
G37*
G36*
X38579899Y-47850959D02*
G01*
X38596769Y-47862231D01*
X38608041Y-47879101D01*
X38614448Y-47911312D01*
X38614448Y-50386688D01*
X38611999Y-50399000D01*
X38608041Y-50418899D01*
X38596769Y-50435769D01*
X38579899Y-50447041D01*
X38560000Y-50450999D01*
X38547688Y-50453448D01*
X32572312Y-50453448D01*
X32540101Y-50447041D01*
X32523231Y-50435769D01*
X32511959Y-50418899D01*
X32505552Y-50386688D01*
X32505552Y-47911312D01*
X32511959Y-47879101D01*
X32523231Y-47862231D01*
X32540101Y-47850959D01*
X32572312Y-47844552D01*
X38547688Y-47844552D01*
X38579899Y-47850959D01*
G37*
G36*
X37536779Y-42782872D02*
G01*
X37549664Y-42786325D01*
X37555360Y-42786863D01*
X37660716Y-42816081D01*
X37756668Y-42841791D01*
X37819077Y-42870893D01*
X37954829Y-42933907D01*
X37956164Y-42934818D01*
X37962984Y-42937998D01*
X38044540Y-42995104D01*
X38131557Y-43054463D01*
X38137706Y-43060339D01*
X38149461Y-43068570D01*
X38217114Y-43136223D01*
X38286222Y-43202264D01*
X38295463Y-43214572D01*
X38310430Y-43229539D01*
X38362024Y-43303223D01*
X38414678Y-43373352D01*
X38424964Y-43393111D01*
X38441002Y-43416016D01*
X38476364Y-43491851D01*
X38513458Y-43563107D01*
X38522519Y-43590830D01*
X38537209Y-43622332D01*
X38557193Y-43696915D01*
X38579925Y-43766462D01*
X38585379Y-43802105D01*
X38596128Y-43842221D01*
X38602284Y-43912581D01*
X38612284Y-43977934D01*
X38611760Y-44020887D01*
X38615969Y-44069000D01*
X38610394Y-44132721D01*
X38609672Y-44191856D01*
X38600923Y-44240970D01*
X38596128Y-44295779D01*
X38581308Y-44351089D01*
X38572154Y-44402477D01*
X38553186Y-44456040D01*
X38537209Y-44515668D01*
X38515852Y-44561469D01*
X38500741Y-44604140D01*
X38469913Y-44659985D01*
X38441002Y-44721985D01*
X38415889Y-44757851D01*
X38397348Y-44791437D01*
X38353453Y-44847018D01*
X38310430Y-44908461D01*
X38284262Y-44934629D01*
X38264760Y-44959323D01*
X38207119Y-45011772D01*
X38149461Y-45069430D01*
X38124697Y-45086770D01*
X38106524Y-45103306D01*
X38034981Y-45149589D01*
X37962984Y-45200002D01*
X37941749Y-45209904D01*
X37926899Y-45219511D01*
X37841747Y-45256536D01*
X37756668Y-45296209D01*
X37740607Y-45300513D01*
X37730705Y-45304818D01*
X37632163Y-45329570D01*
X37536779Y-45355128D01*
X37527009Y-45355983D01*
X37523218Y-45356935D01*
X37405575Y-45366607D01*
X37366795Y-45370000D01*
X33753205Y-45370000D01*
X33583221Y-45355128D01*
X33570336Y-45351675D01*
X33564640Y-45351137D01*
X33459284Y-45321919D01*
X33363332Y-45296209D01*
X33300923Y-45267107D01*
X33165171Y-45204093D01*
X33163836Y-45203182D01*
X33157016Y-45200002D01*
X33075460Y-45142896D01*
X32988443Y-45083537D01*
X32982294Y-45077661D01*
X32970539Y-45069430D01*
X32902886Y-45001777D01*
X32833778Y-44935736D01*
X32824537Y-44923428D01*
X32809570Y-44908461D01*
X32757976Y-44834777D01*
X32705322Y-44764648D01*
X32695036Y-44744889D01*
X32678998Y-44721984D01*
X32643636Y-44646149D01*
X32606542Y-44574893D01*
X32597481Y-44547170D01*
X32582791Y-44515668D01*
X32562807Y-44441085D01*
X32540075Y-44371538D01*
X32534621Y-44335895D01*
X32523872Y-44295779D01*
X32517716Y-44225419D01*
X32507716Y-44160066D01*
X32508240Y-44117113D01*
X32504031Y-44069000D01*
X32509606Y-44005279D01*
X32510328Y-43946144D01*
X32519077Y-43897030D01*
X32523872Y-43842221D01*
X32538692Y-43786911D01*
X32547846Y-43735523D01*
X32566814Y-43681960D01*
X32582791Y-43622332D01*
X32604148Y-43576531D01*
X32619259Y-43533860D01*
X32650087Y-43478015D01*
X32678998Y-43416015D01*
X32704111Y-43380149D01*
X32722652Y-43346563D01*
X32766547Y-43290982D01*
X32809570Y-43229539D01*
X32835738Y-43203371D01*
X32855240Y-43178677D01*
X32912881Y-43126228D01*
X32970539Y-43068570D01*
X32995303Y-43051230D01*
X33013476Y-43034694D01*
X33085019Y-42988411D01*
X33157016Y-42937998D01*
X33178251Y-42928096D01*
X33193101Y-42918489D01*
X33278253Y-42881464D01*
X33363332Y-42841791D01*
X33379393Y-42837487D01*
X33389295Y-42833182D01*
X33487837Y-42808430D01*
X33583221Y-42782872D01*
X33592991Y-42782017D01*
X33596782Y-42781065D01*
X33714425Y-42771393D01*
X33753205Y-42768000D01*
X37366795Y-42768000D01*
X37536779Y-42782872D01*
G37*
G36*
X57856779Y-35162872D02*
G01*
X57869664Y-35166325D01*
X57875360Y-35166863D01*
X57980716Y-35196081D01*
X58076668Y-35221791D01*
X58139077Y-35250893D01*
X58274829Y-35313907D01*
X58276164Y-35314818D01*
X58282984Y-35317998D01*
X58364540Y-35375104D01*
X58451557Y-35434463D01*
X58457706Y-35440339D01*
X58469461Y-35448570D01*
X58537114Y-35516223D01*
X58606222Y-35582264D01*
X58615463Y-35594572D01*
X58630430Y-35609539D01*
X58682024Y-35683223D01*
X58734678Y-35753352D01*
X58744964Y-35773111D01*
X58761002Y-35796016D01*
X58796364Y-35871851D01*
X58833458Y-35943107D01*
X58842519Y-35970830D01*
X58857209Y-36002332D01*
X58877193Y-36076915D01*
X58899925Y-36146462D01*
X58905379Y-36182105D01*
X58916128Y-36222221D01*
X58922284Y-36292581D01*
X58932284Y-36357934D01*
X58931760Y-36400887D01*
X58935969Y-36449000D01*
X58930394Y-36512721D01*
X58929672Y-36571856D01*
X58920923Y-36620970D01*
X58916128Y-36675779D01*
X58901308Y-36731089D01*
X58892154Y-36782477D01*
X58873186Y-36836040D01*
X58857209Y-36895668D01*
X58835852Y-36941469D01*
X58820741Y-36984140D01*
X58789913Y-37039985D01*
X58761002Y-37101985D01*
X58735889Y-37137851D01*
X58717348Y-37171437D01*
X58673453Y-37227018D01*
X58630430Y-37288461D01*
X58604262Y-37314629D01*
X58584760Y-37339323D01*
X58527119Y-37391772D01*
X58469461Y-37449430D01*
X58444697Y-37466770D01*
X58426524Y-37483306D01*
X58354981Y-37529589D01*
X58282984Y-37580002D01*
X58261749Y-37589904D01*
X58246899Y-37599511D01*
X58161747Y-37636536D01*
X58076668Y-37676209D01*
X58060607Y-37680513D01*
X58050705Y-37684818D01*
X57952163Y-37709570D01*
X57856779Y-37735128D01*
X57847009Y-37735983D01*
X57843218Y-37736935D01*
X57725575Y-37746607D01*
X57686795Y-37750000D01*
X54073205Y-37750000D01*
X53903221Y-37735128D01*
X53890336Y-37731675D01*
X53884640Y-37731137D01*
X53779284Y-37701919D01*
X53683332Y-37676209D01*
X53620923Y-37647107D01*
X53485171Y-37584093D01*
X53483836Y-37583182D01*
X53477016Y-37580002D01*
X53395460Y-37522896D01*
X53308443Y-37463537D01*
X53302294Y-37457661D01*
X53290539Y-37449430D01*
X53222886Y-37381777D01*
X53153778Y-37315736D01*
X53144537Y-37303428D01*
X53129570Y-37288461D01*
X53077976Y-37214777D01*
X53025322Y-37144648D01*
X53015036Y-37124889D01*
X52998998Y-37101984D01*
X52963636Y-37026149D01*
X52926542Y-36954893D01*
X52917481Y-36927170D01*
X52902791Y-36895668D01*
X52882807Y-36821085D01*
X52860075Y-36751538D01*
X52854621Y-36715895D01*
X52843872Y-36675779D01*
X52837716Y-36605419D01*
X52827716Y-36540066D01*
X52828240Y-36497113D01*
X52824031Y-36449000D01*
X52829606Y-36385279D01*
X52830328Y-36326144D01*
X52839077Y-36277030D01*
X52843872Y-36222221D01*
X52858692Y-36166911D01*
X52867846Y-36115523D01*
X52886814Y-36061960D01*
X52902791Y-36002332D01*
X52924148Y-35956531D01*
X52939259Y-35913860D01*
X52970087Y-35858015D01*
X52998998Y-35796015D01*
X53024111Y-35760149D01*
X53042652Y-35726563D01*
X53086547Y-35670982D01*
X53129570Y-35609539D01*
X53155738Y-35583371D01*
X53175240Y-35558677D01*
X53232881Y-35506228D01*
X53290539Y-35448570D01*
X53315303Y-35431230D01*
X53333476Y-35414694D01*
X53405019Y-35368411D01*
X53477016Y-35317998D01*
X53498251Y-35308096D01*
X53513101Y-35298489D01*
X53598253Y-35261464D01*
X53683332Y-35221791D01*
X53699393Y-35217487D01*
X53709295Y-35213182D01*
X53807837Y-35188430D01*
X53903221Y-35162872D01*
X53912991Y-35162017D01*
X53916782Y-35161065D01*
X54034425Y-35151393D01*
X54073205Y-35148000D01*
X57686795Y-35148000D01*
X57856779Y-35162872D01*
G37*
G36*
X61978976Y-31088326D02*
G01*
X62020766Y-31086282D01*
X62065056Y-31093139D01*
X62115810Y-31095976D01*
X62156163Y-31107243D01*
X62191621Y-31112732D01*
X62239204Y-31130428D01*
X62293898Y-31145699D01*
X62325622Y-31162567D01*
X62353659Y-31172994D01*
X62401757Y-31203049D01*
X62457153Y-31232504D01*
X62479968Y-31251921D01*
X62500271Y-31264608D01*
X62545641Y-31307813D01*
X62597961Y-31352341D01*
X62612463Y-31371447D01*
X62625472Y-31383835D01*
X62664616Y-31440155D01*
X62709751Y-31499618D01*
X62717302Y-31515959D01*
X62724142Y-31525801D01*
X62753508Y-31594317D01*
X62787307Y-31667465D01*
X62789885Y-31679192D01*
X62792247Y-31684702D01*
X62808429Y-31763536D01*
X62827011Y-31848051D01*
X62826345Y-32038888D01*
X62807181Y-32123238D01*
X62790443Y-32201985D01*
X62788041Y-32207482D01*
X62785381Y-32219192D01*
X62751069Y-32292109D01*
X62721227Y-32360415D01*
X62714318Y-32370209D01*
X62706655Y-32386494D01*
X62661114Y-32445630D01*
X62621570Y-32501687D01*
X62608472Y-32513987D01*
X62593840Y-32532987D01*
X62541227Y-32577135D01*
X62495544Y-32620034D01*
X62475147Y-32632582D01*
X62452199Y-32651838D01*
X62396600Y-32680905D01*
X62348293Y-32710623D01*
X62320184Y-32720854D01*
X62288341Y-32737501D01*
X62233534Y-32752392D01*
X62185831Y-32769754D01*
X62150340Y-32774995D01*
X62109911Y-32785979D01*
X62059139Y-32788462D01*
X62014803Y-32795009D01*
X61973027Y-32792674D01*
X61925233Y-32795011D01*
X61880992Y-32787528D01*
X61842189Y-32785359D01*
X61795980Y-32773150D01*
X61742923Y-32764176D01*
X61706839Y-32749597D01*
X61675035Y-32741194D01*
X61626897Y-32717299D01*
X61571488Y-32694912D01*
X61544311Y-32676304D01*
X61520182Y-32664326D01*
X61473128Y-32627563D01*
X61418926Y-32590450D01*
X61400469Y-32570795D01*
X61383950Y-32557889D01*
X61341400Y-32507893D01*
X61292354Y-32455664D01*
X61281608Y-32437638D01*
X61271896Y-32426226D01*
X61237401Y-32363481D01*
X61197678Y-32296844D01*
X61192943Y-32282611D01*
X61188610Y-32274729D01*
X61165692Y-32200692D01*
X61139314Y-32121398D01*
X61138372Y-32112434D01*
X61137486Y-32109572D01*
X61129347Y-32026568D01*
X61119987Y-31937512D01*
X61129967Y-31848544D01*
X61138687Y-31765578D01*
X61139593Y-31762720D01*
X61140598Y-31753765D01*
X61167530Y-31674653D01*
X61190963Y-31600781D01*
X61195350Y-31592932D01*
X61200184Y-31578731D01*
X61240382Y-31512357D01*
X61275304Y-31449871D01*
X61285092Y-31438531D01*
X61295967Y-31420575D01*
X61345385Y-31368681D01*
X61388273Y-31318995D01*
X61404879Y-31306207D01*
X61423477Y-31286677D01*
X61477952Y-31249933D01*
X61525250Y-31213509D01*
X61549458Y-31201702D01*
X61576765Y-31183283D01*
X61632319Y-31161287D01*
X61680633Y-31137723D01*
X61712503Y-31129540D01*
X61748679Y-31115217D01*
X61801795Y-31106614D01*
X61848088Y-31094728D01*
X61886903Y-31092830D01*
X61931199Y-31085655D01*
X61978976Y-31088326D01*
G37*
G36*
X25426370Y-26514503D02*
G01*
X25482087Y-26512557D01*
X25549361Y-26521056D01*
X25611850Y-26524385D01*
X25667739Y-26536010D01*
X25729705Y-26543838D01*
X25788338Y-26561095D01*
X25842887Y-26572441D01*
X25902809Y-26594785D01*
X25969137Y-26614307D01*
X26018200Y-26637814D01*
X26063985Y-26654887D01*
X26125855Y-26689394D01*
X26194222Y-26722150D01*
X26233370Y-26749359D01*
X26270080Y-26769833D01*
X26331492Y-26817555D01*
X26399169Y-26864592D01*
X26428617Y-26893029D01*
X26456405Y-26914623D01*
X26514681Y-26976140D01*
X26578707Y-27037969D01*
X26599190Y-27065349D01*
X26618696Y-27085940D01*
X26671039Y-27161391D01*
X26728215Y-27237821D01*
X26740924Y-27262130D01*
X26753203Y-27279831D01*
X26796741Y-27368900D01*
X26843847Y-27459005D01*
X26850368Y-27478606D01*
X26856830Y-27491827D01*
X26888704Y-27593849D01*
X26922629Y-27695831D01*
X26924851Y-27709547D01*
X26927203Y-27717077D01*
X26944718Y-27832216D01*
X26962533Y-27942207D01*
X26959579Y-28224248D01*
X26953207Y-28258966D01*
X26952666Y-28277197D01*
X26932662Y-28370910D01*
X26914524Y-28469734D01*
X26907139Y-28490474D01*
X26903781Y-28506204D01*
X26866478Y-28604664D01*
X26830800Y-28704859D01*
X26823456Y-28718218D01*
X26820176Y-28726875D01*
X26763986Y-28826393D01*
X26710561Y-28923573D01*
X26705352Y-28930240D01*
X26704159Y-28932353D01*
X26619025Y-29040734D01*
X26556900Y-29120249D01*
X26475704Y-29195438D01*
X26386228Y-29279314D01*
X26381977Y-29282230D01*
X26373771Y-29289829D01*
X26282565Y-29350426D01*
X26191632Y-29412806D01*
X26180846Y-29418009D01*
X26165886Y-29427948D01*
X26071097Y-29470946D01*
X25979093Y-29515324D01*
X25961103Y-29520841D01*
X25938591Y-29531053D01*
X25844029Y-29556745D01*
X25753488Y-29584512D01*
X25728133Y-29588234D01*
X25697737Y-29596492D01*
X25606624Y-29606068D01*
X25520013Y-29618781D01*
X25487558Y-29618583D01*
X25449518Y-29622581D01*
X25364577Y-29617832D01*
X25284037Y-29617340D01*
X25245232Y-29611159D01*
X25200320Y-29608648D01*
X25123688Y-29591799D01*
X25051003Y-29580222D01*
X25007072Y-29566160D01*
X24956556Y-29555053D01*
X24889782Y-29528615D01*
X24826251Y-29508279D01*
X24778818Y-29484681D01*
X24724497Y-29463174D01*
X24668552Y-29429824D01*
X24614981Y-29403173D01*
X24566062Y-29368729D01*
X24510112Y-29335376D01*
X24465350Y-29297816D01*
X24422037Y-29267319D01*
X24373934Y-29221109D01*
X24318918Y-29174945D01*
X24285122Y-29135792D01*
X24251859Y-29103838D01*
X24207109Y-29045413D01*
X24155833Y-28986009D01*
X24132258Y-28947688D01*
X24108369Y-28916499D01*
X24069632Y-28845891D01*
X24025054Y-28773430D01*
X24010480Y-28738071D01*
X23994867Y-28709612D01*
X23964847Y-28627357D01*
X23929944Y-28542676D01*
X23922754Y-28512023D01*
X23913964Y-28487937D01*
X23895318Y-28395049D01*
X23872951Y-28299684D01*
X23871227Y-28275029D01*
X23867523Y-28256577D01*
X23862800Y-28154527D01*
X23855540Y-28050705D01*
X23857168Y-28032820D01*
X23856614Y-28020855D01*
X23868238Y-27911177D01*
X23878161Y-27802146D01*
X23880942Y-27791316D01*
X23881485Y-27786190D01*
X23912689Y-27667668D01*
X23940231Y-27560401D01*
X23980591Y-27468021D01*
X24035471Y-27341502D01*
X24036764Y-27339445D01*
X24040152Y-27331690D01*
X24100240Y-27238452D01*
X24161042Y-27141713D01*
X24167095Y-27134713D01*
X24175355Y-27121896D01*
X24246558Y-27042817D01*
X24315393Y-26963212D01*
X24327624Y-26952785D01*
X24342361Y-26936417D01*
X24420691Y-26873438D01*
X24494965Y-26810114D01*
X24514435Y-26798065D01*
X24536873Y-26780025D01*
X24618767Y-26733503D01*
X24695629Y-26685939D01*
X24722984Y-26674299D01*
X24753887Y-26656744D01*
X24836067Y-26626182D01*
X24912759Y-26593549D01*
X24948185Y-26584486D01*
X24987820Y-26569746D01*
X25067382Y-26553992D01*
X25141377Y-26535062D01*
X25184559Y-26530790D01*
X25232653Y-26521267D01*
X25307094Y-26518668D01*
X25376209Y-26511830D01*
X25426370Y-26514503D01*
G37*
G36*
X34926370Y-26514503D02*
G01*
X34982087Y-26512557D01*
X35049361Y-26521056D01*
X35111850Y-26524385D01*
X35167739Y-26536010D01*
X35229705Y-26543838D01*
X35288338Y-26561095D01*
X35342887Y-26572441D01*
X35402809Y-26594785D01*
X35469137Y-26614307D01*
X35518200Y-26637814D01*
X35563985Y-26654887D01*
X35625855Y-26689394D01*
X35694222Y-26722150D01*
X35733370Y-26749359D01*
X35770080Y-26769833D01*
X35831492Y-26817555D01*
X35899169Y-26864592D01*
X35928617Y-26893029D01*
X35956405Y-26914623D01*
X36014681Y-26976140D01*
X36078707Y-27037969D01*
X36099190Y-27065349D01*
X36118696Y-27085940D01*
X36171039Y-27161391D01*
X36228215Y-27237821D01*
X36240924Y-27262130D01*
X36253203Y-27279831D01*
X36296741Y-27368900D01*
X36343847Y-27459005D01*
X36350368Y-27478606D01*
X36356830Y-27491827D01*
X36388704Y-27593849D01*
X36422629Y-27695831D01*
X36424851Y-27709547D01*
X36427203Y-27717077D01*
X36444718Y-27832216D01*
X36462533Y-27942207D01*
X36459579Y-28224248D01*
X36453207Y-28258966D01*
X36452666Y-28277197D01*
X36432662Y-28370910D01*
X36414524Y-28469734D01*
X36407139Y-28490474D01*
X36403781Y-28506204D01*
X36366478Y-28604664D01*
X36330800Y-28704859D01*
X36323456Y-28718218D01*
X36320176Y-28726875D01*
X36263986Y-28826393D01*
X36210561Y-28923573D01*
X36205352Y-28930240D01*
X36204159Y-28932353D01*
X36119025Y-29040734D01*
X36056900Y-29120249D01*
X35975704Y-29195438D01*
X35886228Y-29279314D01*
X35881977Y-29282230D01*
X35873771Y-29289829D01*
X35782565Y-29350426D01*
X35691632Y-29412806D01*
X35680846Y-29418009D01*
X35665886Y-29427948D01*
X35571097Y-29470946D01*
X35479093Y-29515324D01*
X35461103Y-29520841D01*
X35438591Y-29531053D01*
X35344029Y-29556745D01*
X35253488Y-29584512D01*
X35228133Y-29588234D01*
X35197737Y-29596492D01*
X35106624Y-29606068D01*
X35020013Y-29618781D01*
X34987558Y-29618583D01*
X34949518Y-29622581D01*
X34864577Y-29617832D01*
X34784037Y-29617340D01*
X34745232Y-29611159D01*
X34700320Y-29608648D01*
X34623688Y-29591799D01*
X34551003Y-29580222D01*
X34507072Y-29566160D01*
X34456556Y-29555053D01*
X34389782Y-29528615D01*
X34326251Y-29508279D01*
X34278818Y-29484681D01*
X34224497Y-29463174D01*
X34168552Y-29429824D01*
X34114981Y-29403173D01*
X34066062Y-29368729D01*
X34010112Y-29335376D01*
X33965350Y-29297816D01*
X33922037Y-29267319D01*
X33873934Y-29221109D01*
X33818918Y-29174945D01*
X33785122Y-29135792D01*
X33751859Y-29103838D01*
X33707109Y-29045413D01*
X33655833Y-28986009D01*
X33632258Y-28947688D01*
X33608369Y-28916499D01*
X33569632Y-28845891D01*
X33525054Y-28773430D01*
X33510480Y-28738071D01*
X33494867Y-28709612D01*
X33464847Y-28627357D01*
X33429944Y-28542676D01*
X33422754Y-28512023D01*
X33413964Y-28487937D01*
X33395318Y-28395049D01*
X33372951Y-28299684D01*
X33371227Y-28275029D01*
X33367523Y-28256577D01*
X33362800Y-28154527D01*
X33355540Y-28050705D01*
X33357168Y-28032820D01*
X33356614Y-28020855D01*
X33368238Y-27911177D01*
X33378161Y-27802146D01*
X33380942Y-27791316D01*
X33381485Y-27786190D01*
X33412689Y-27667668D01*
X33440231Y-27560401D01*
X33480591Y-27468021D01*
X33535471Y-27341502D01*
X33536764Y-27339445D01*
X33540152Y-27331690D01*
X33600240Y-27238452D01*
X33661042Y-27141713D01*
X33667095Y-27134713D01*
X33675355Y-27121896D01*
X33746558Y-27042817D01*
X33815393Y-26963212D01*
X33827624Y-26952785D01*
X33842361Y-26936417D01*
X33920691Y-26873438D01*
X33994965Y-26810114D01*
X34014435Y-26798065D01*
X34036873Y-26780025D01*
X34118767Y-26733503D01*
X34195629Y-26685939D01*
X34222984Y-26674299D01*
X34253887Y-26656744D01*
X34336067Y-26626182D01*
X34412759Y-26593549D01*
X34448185Y-26584486D01*
X34487820Y-26569746D01*
X34567382Y-26553992D01*
X34641377Y-26535062D01*
X34684559Y-26530790D01*
X34732653Y-26521267D01*
X34807094Y-26518668D01*
X34876209Y-26511830D01*
X34926370Y-26514503D01*
G37*
G36*
X44426370Y-26514503D02*
G01*
X44482087Y-26512557D01*
X44549361Y-26521056D01*
X44611850Y-26524385D01*
X44667739Y-26536010D01*
X44729705Y-26543838D01*
X44788338Y-26561095D01*
X44842887Y-26572441D01*
X44902809Y-26594785D01*
X44969137Y-26614307D01*
X45018200Y-26637814D01*
X45063985Y-26654887D01*
X45125855Y-26689394D01*
X45194222Y-26722150D01*
X45233370Y-26749359D01*
X45270080Y-26769833D01*
X45331492Y-26817555D01*
X45399169Y-26864592D01*
X45428617Y-26893029D01*
X45456405Y-26914623D01*
X45514681Y-26976140D01*
X45578707Y-27037969D01*
X45599190Y-27065349D01*
X45618696Y-27085940D01*
X45671039Y-27161391D01*
X45728215Y-27237821D01*
X45740924Y-27262130D01*
X45753203Y-27279831D01*
X45796741Y-27368900D01*
X45843847Y-27459005D01*
X45850368Y-27478606D01*
X45856830Y-27491827D01*
X45888704Y-27593849D01*
X45922629Y-27695831D01*
X45924851Y-27709547D01*
X45927203Y-27717077D01*
X45944718Y-27832216D01*
X45962533Y-27942207D01*
X45959579Y-28224248D01*
X45953207Y-28258966D01*
X45952666Y-28277197D01*
X45932662Y-28370910D01*
X45914524Y-28469734D01*
X45907139Y-28490474D01*
X45903781Y-28506204D01*
X45866478Y-28604664D01*
X45830800Y-28704859D01*
X45823456Y-28718218D01*
X45820176Y-28726875D01*
X45763986Y-28826393D01*
X45710561Y-28923573D01*
X45705352Y-28930240D01*
X45704159Y-28932353D01*
X45619025Y-29040734D01*
X45556900Y-29120249D01*
X45475704Y-29195438D01*
X45386228Y-29279314D01*
X45381977Y-29282230D01*
X45373771Y-29289829D01*
X45282565Y-29350426D01*
X45191632Y-29412806D01*
X45180846Y-29418009D01*
X45165886Y-29427948D01*
X45071097Y-29470946D01*
X44979093Y-29515324D01*
X44961103Y-29520841D01*
X44938591Y-29531053D01*
X44844029Y-29556745D01*
X44753488Y-29584512D01*
X44728133Y-29588234D01*
X44697737Y-29596492D01*
X44606624Y-29606068D01*
X44520013Y-29618781D01*
X44487558Y-29618583D01*
X44449518Y-29622581D01*
X44364577Y-29617832D01*
X44284037Y-29617340D01*
X44245232Y-29611159D01*
X44200320Y-29608648D01*
X44123688Y-29591799D01*
X44051003Y-29580222D01*
X44007072Y-29566160D01*
X43956556Y-29555053D01*
X43889782Y-29528615D01*
X43826251Y-29508279D01*
X43778818Y-29484681D01*
X43724497Y-29463174D01*
X43668552Y-29429824D01*
X43614981Y-29403173D01*
X43566062Y-29368729D01*
X43510112Y-29335376D01*
X43465350Y-29297816D01*
X43422037Y-29267319D01*
X43373934Y-29221109D01*
X43318918Y-29174945D01*
X43285122Y-29135792D01*
X43251859Y-29103838D01*
X43207109Y-29045413D01*
X43155833Y-28986009D01*
X43132258Y-28947688D01*
X43108369Y-28916499D01*
X43069632Y-28845891D01*
X43025054Y-28773430D01*
X43010480Y-28738071D01*
X42994867Y-28709612D01*
X42964847Y-28627357D01*
X42929944Y-28542676D01*
X42922754Y-28512023D01*
X42913964Y-28487937D01*
X42895318Y-28395049D01*
X42872951Y-28299684D01*
X42871227Y-28275029D01*
X42867523Y-28256577D01*
X42862800Y-28154527D01*
X42855540Y-28050705D01*
X42857168Y-28032820D01*
X42856614Y-28020855D01*
X42868238Y-27911177D01*
X42878161Y-27802146D01*
X42880942Y-27791316D01*
X42881485Y-27786190D01*
X42912689Y-27667668D01*
X42940231Y-27560401D01*
X42980591Y-27468021D01*
X43035471Y-27341502D01*
X43036764Y-27339445D01*
X43040152Y-27331690D01*
X43100240Y-27238452D01*
X43161042Y-27141713D01*
X43167095Y-27134713D01*
X43175355Y-27121896D01*
X43246558Y-27042817D01*
X43315393Y-26963212D01*
X43327624Y-26952785D01*
X43342361Y-26936417D01*
X43420691Y-26873438D01*
X43494965Y-26810114D01*
X43514435Y-26798065D01*
X43536873Y-26780025D01*
X43618767Y-26733503D01*
X43695629Y-26685939D01*
X43722984Y-26674299D01*
X43753887Y-26656744D01*
X43836067Y-26626182D01*
X43912759Y-26593549D01*
X43948185Y-26584486D01*
X43987820Y-26569746D01*
X44067382Y-26553992D01*
X44141377Y-26535062D01*
X44184559Y-26530790D01*
X44232653Y-26521267D01*
X44307094Y-26518668D01*
X44376209Y-26511830D01*
X44426370Y-26514503D01*
G37*
G36*
X55431399Y-26518959D02*
G01*
X55448269Y-26530231D01*
X55459541Y-26547101D01*
X55465948Y-26579312D01*
X55465948Y-29554688D01*
X55463499Y-29567000D01*
X55459541Y-29586899D01*
X55448269Y-29603769D01*
X55431399Y-29615041D01*
X55411500Y-29618999D01*
X55399188Y-29621448D01*
X52423812Y-29621448D01*
X52391601Y-29615041D01*
X52374731Y-29603769D01*
X52363459Y-29586899D01*
X52357052Y-29554688D01*
X52357052Y-26579312D01*
X52363459Y-26547101D01*
X52374731Y-26530231D01*
X52391601Y-26518959D01*
X52423812Y-26512552D01*
X55399188Y-26512552D01*
X55431399Y-26518959D01*
G37*
G36*
X61978976Y-26088326D02*
G01*
X62020766Y-26086282D01*
X62065056Y-26093139D01*
X62115810Y-26095976D01*
X62156163Y-26107243D01*
X62191621Y-26112732D01*
X62239204Y-26130428D01*
X62293898Y-26145699D01*
X62325622Y-26162567D01*
X62353659Y-26172994D01*
X62401757Y-26203049D01*
X62457153Y-26232504D01*
X62479968Y-26251921D01*
X62500271Y-26264608D01*
X62545641Y-26307813D01*
X62597961Y-26352341D01*
X62612463Y-26371447D01*
X62625472Y-26383835D01*
X62664616Y-26440155D01*
X62709751Y-26499618D01*
X62717302Y-26515959D01*
X62724142Y-26525801D01*
X62753508Y-26594317D01*
X62787307Y-26667465D01*
X62789885Y-26679192D01*
X62792247Y-26684702D01*
X62808429Y-26763536D01*
X62827011Y-26848051D01*
X62826345Y-27038888D01*
X62807181Y-27123238D01*
X62790443Y-27201985D01*
X62788041Y-27207482D01*
X62785381Y-27219192D01*
X62751069Y-27292109D01*
X62721227Y-27360415D01*
X62714318Y-27370209D01*
X62706655Y-27386494D01*
X62661114Y-27445630D01*
X62621570Y-27501687D01*
X62608472Y-27513987D01*
X62593840Y-27532987D01*
X62541227Y-27577135D01*
X62495544Y-27620034D01*
X62475147Y-27632582D01*
X62452199Y-27651838D01*
X62396600Y-27680905D01*
X62348293Y-27710623D01*
X62320184Y-27720854D01*
X62288341Y-27737501D01*
X62233534Y-27752392D01*
X62185831Y-27769754D01*
X62150340Y-27774995D01*
X62109911Y-27785979D01*
X62059139Y-27788462D01*
X62014803Y-27795009D01*
X61973027Y-27792674D01*
X61925233Y-27795011D01*
X61880992Y-27787528D01*
X61842189Y-27785359D01*
X61795980Y-27773150D01*
X61742923Y-27764176D01*
X61706839Y-27749597D01*
X61675035Y-27741194D01*
X61626897Y-27717299D01*
X61571488Y-27694912D01*
X61544311Y-27676304D01*
X61520182Y-27664326D01*
X61473128Y-27627563D01*
X61418926Y-27590450D01*
X61400469Y-27570795D01*
X61383950Y-27557889D01*
X61341400Y-27507893D01*
X61292354Y-27455664D01*
X61281608Y-27437638D01*
X61271896Y-27426226D01*
X61237401Y-27363481D01*
X61197678Y-27296844D01*
X61192943Y-27282611D01*
X61188610Y-27274729D01*
X61165692Y-27200692D01*
X61139314Y-27121398D01*
X61138372Y-27112434D01*
X61137486Y-27109572D01*
X61129347Y-27026568D01*
X61119987Y-26937512D01*
X61129967Y-26848544D01*
X61138687Y-26765578D01*
X61139593Y-26762720D01*
X61140598Y-26753765D01*
X61167530Y-26674653D01*
X61190963Y-26600781D01*
X61195350Y-26592932D01*
X61200184Y-26578731D01*
X61240382Y-26512357D01*
X61275304Y-26449871D01*
X61285092Y-26438531D01*
X61295967Y-26420575D01*
X61345385Y-26368681D01*
X61388273Y-26318995D01*
X61404879Y-26306207D01*
X61423477Y-26286677D01*
X61477952Y-26249933D01*
X61525250Y-26213509D01*
X61549458Y-26201702D01*
X61576765Y-26183283D01*
X61632319Y-26161287D01*
X61680633Y-26137723D01*
X61712503Y-26129540D01*
X61748679Y-26115217D01*
X61801795Y-26106614D01*
X61848088Y-26094728D01*
X61886903Y-26092830D01*
X61931199Y-26085655D01*
X61978976Y-26088326D01*
G37*
G36*
X69542742Y-20847002D02*
G01*
X69566523Y-20846255D01*
X69644921Y-20857832D01*
X69726500Y-20866478D01*
X69749247Y-20873237D01*
X69769783Y-20876270D01*
X69847754Y-20902510D01*
X69929275Y-20926735D01*
X69947713Y-20936150D01*
X69964517Y-20941805D01*
X70039255Y-20982894D01*
X70117674Y-21022936D01*
X70131693Y-21033713D01*
X70144561Y-21040787D01*
X70213190Y-21096361D01*
X70285387Y-21151860D01*
X70295176Y-21162751D01*
X70304238Y-21170089D01*
X70363939Y-21239254D01*
X70426797Y-21309187D01*
X70432859Y-21319099D01*
X70438493Y-21325626D01*
X70486568Y-21406916D01*
X70537168Y-21489650D01*
X70540236Y-21497663D01*
X70543084Y-21502479D01*
X70577154Y-21594089D01*
X70612804Y-21687205D01*
X70613808Y-21692650D01*
X70614700Y-21695048D01*
X70632616Y-21794622D01*
X70651173Y-21895235D01*
X70643823Y-22166866D01*
X70620018Y-22265638D01*
X70597214Y-22362864D01*
X70595798Y-22366137D01*
X70594260Y-22372517D01*
X70553954Y-22462834D01*
X70515613Y-22551436D01*
X70511958Y-22556937D01*
X70508051Y-22565692D01*
X70453631Y-22644726D01*
X70401911Y-22722570D01*
X70395240Y-22729526D01*
X70388082Y-22739922D01*
X70322260Y-22805629D01*
X70259704Y-22870862D01*
X70249451Y-22878311D01*
X70238371Y-22889372D01*
X70164116Y-22940311D01*
X70093480Y-22991631D01*
X70079343Y-22998465D01*
X70063932Y-23009037D01*
X69984362Y-23044381D01*
X69908493Y-23081057D01*
X69890450Y-23086095D01*
X69870606Y-23094909D01*
X69788862Y-23114458D01*
X69710602Y-23136309D01*
X69688931Y-23138357D01*
X69664869Y-23144112D01*
X69583921Y-23148284D01*
X69506054Y-23155644D01*
X69481349Y-23153569D01*
X69453610Y-23154999D01*
X69376221Y-23144742D01*
X69301308Y-23138451D01*
X69274436Y-23131251D01*
X69243905Y-23127204D01*
X69172551Y-23103951D01*
X69102843Y-23085273D01*
X69074930Y-23072138D01*
X69042777Y-23061660D01*
X68979502Y-23027233D01*
X68916937Y-22997792D01*
X68889322Y-22978167D01*
X68856961Y-22960560D01*
X68803361Y-22917078D01*
X68749459Y-22878772D01*
X68723637Y-22852404D01*
X68692681Y-22827291D01*
X68649857Y-22777062D01*
X68605705Y-22731975D01*
X68583260Y-22698948D01*
X68555438Y-22666315D01*
X68523987Y-22611730D01*
X68490216Y-22562038D01*
X68472746Y-22522800D01*
X68449828Y-22483025D01*
X68429854Y-22426464D01*
X68406647Y-22374340D01*
X68395680Y-22329690D01*
X68379389Y-22283558D01*
X68370526Y-22227283D01*
X68357636Y-22174804D01*
X68354560Y-22125903D01*
X68346479Y-22074595D01*
X68347939Y-22020657D01*
X68344736Y-21969752D01*
X68350714Y-21918085D01*
X68352201Y-21863133D01*
X68362837Y-21813308D01*
X68368352Y-21765644D01*
X68384258Y-21712960D01*
X68396363Y-21656255D01*
X68414741Y-21611995D01*
X68427736Y-21568955D01*
X68454092Y-21517229D01*
X68477486Y-21460890D01*
X68501979Y-21423246D01*
X68521016Y-21385884D01*
X68557938Y-21337240D01*
X68592853Y-21283579D01*
X68621712Y-21253221D01*
X68645237Y-21222228D01*
X68692415Y-21178846D01*
X68738601Y-21130261D01*
X68770068Y-21107441D01*
X68796482Y-21083152D01*
X68853149Y-21047190D01*
X68909848Y-21006071D01*
X68942207Y-20990671D01*
X68969956Y-20973061D01*
X69034906Y-20946555D01*
X69100859Y-20915168D01*
X69132560Y-20906703D01*
X69160192Y-20895427D01*
X69231773Y-20880212D01*
X69305238Y-20860596D01*
X69334933Y-20858285D01*
X69361162Y-20852710D01*
X69437337Y-20850316D01*
X69516139Y-20844183D01*
X69542742Y-20847002D01*
G37*
M02*
