G04 #@! TF.GenerationSoftware,KiCad,Pcbnew,(5.99.0-576-ga860ac506)*
G04 #@! TF.CreationDate,2021-04-05T16:40:01+02:00*
G04 #@! TF.ProjectId,8 Inch Floppy Power Supply,3820496e-6368-4204-966c-6f7070792050,rev?*
G04 #@! TF.SameCoordinates,Original*
G04 #@! TF.FileFunction,AssemblyDrawing,Top*
%FSLAX46Y46*%
G04 Gerber Fmt 4.6, Leading zero omitted, Abs format (unit mm)*
G04 Created by KiCad (PCBNEW (5.99.0-576-ga860ac506)) date 2021-04-05 16:40:01*
%MOMM*%
%LPD*%
G04 APERTURE LIST*
%ADD10C,0.100000*%
%ADD11C,0.150000*%
G04 APERTURE END LIST*
D10*
X66279000Y-67647500D02*
X67579000Y-67647500D01*
X66929000Y-68247500D02*
X66929000Y-67047500D01*
X70929000Y-64297500D02*
G75*
G03*
X70929000Y-64297500I-4000000J0D01*
G01*
X70617500Y-82008000D02*
X70617500Y-73548000D01*
X70617500Y-73548000D02*
X64677500Y-73548000D01*
X64677500Y-73548000D02*
X64677500Y-82008000D01*
X64677500Y-82008000D02*
X70617500Y-82008000D01*
X70297500Y-71628000D02*
X70897500Y-71328000D01*
X70897500Y-71328000D02*
X70897500Y-71928000D01*
X70897500Y-71928000D02*
X70297500Y-71628000D01*
X43411500Y-33107000D02*
X45411500Y-33107000D01*
X43411500Y-32107000D02*
X43411500Y-33107000D01*
X45411500Y-32107000D02*
X43411500Y-32107000D01*
X45411500Y-33107000D02*
X45411500Y-32107000D01*
X43138500Y-29624000D02*
X45927500Y-26834000D01*
X42894500Y-29380000D02*
X45683500Y-26590000D01*
X52911500Y-33107000D02*
X54911500Y-33107000D01*
X52911500Y-32107000D02*
X52911500Y-33107000D01*
X54911500Y-32107000D02*
X52911500Y-32107000D01*
X54911500Y-33107000D02*
X54911500Y-32107000D01*
X52638500Y-29624000D02*
X55428500Y-26834000D01*
X52394500Y-29380000D02*
X55184500Y-26590000D01*
X58671500Y-31107000D02*
X20631500Y-31107000D01*
X58671500Y-25107000D02*
X20631500Y-25107000D01*
X58671500Y-21107000D02*
X20631500Y-21107000D01*
X58671500Y-21107000D02*
X58671500Y-33107000D01*
X58171500Y-20607000D02*
X58671500Y-21107000D01*
X20631500Y-20607000D02*
X58171500Y-20607000D01*
X20631500Y-33107000D02*
X20631500Y-20607000D01*
X58671500Y-33107000D02*
X20631500Y-33107000D01*
X46411500Y-28107000D02*
G75*
G03*
X46411500Y-28107000I-2000000J0D01*
G01*
X55911500Y-28107000D02*
G75*
G03*
X55911500Y-28107000I-2000000J0D01*
G01*
X33638500Y-29624000D02*
X36427500Y-26834000D01*
X35911500Y-33107000D02*
X35911500Y-32107000D01*
X33394500Y-29380000D02*
X36183500Y-26590000D01*
X35911500Y-32107000D02*
X33911500Y-32107000D01*
X33911500Y-32107000D02*
X33911500Y-33107000D01*
X33911500Y-33107000D02*
X35911500Y-33107000D01*
X36911500Y-28107000D02*
G75*
G03*
X36911500Y-28107000I-2000000J0D01*
G01*
X24138500Y-29624000D02*
X26927500Y-26834000D01*
X26411500Y-33107000D02*
X26411500Y-32107000D01*
X23894500Y-29380000D02*
X26683500Y-26590000D01*
X26411500Y-32107000D02*
X24411500Y-32107000D01*
X24411500Y-32107000D02*
X24411500Y-33107000D01*
X24411500Y-33107000D02*
X26411500Y-33107000D01*
X27411500Y-28107000D02*
G75*
G03*
X27411500Y-28107000I-2000000J0D01*
G01*
X54990500Y-64290000D02*
G75*
G03*
X54990500Y-64290000I-4000000J0D01*
G01*
X50990500Y-68240000D02*
X50990500Y-67040000D01*
X50340500Y-67640000D02*
X51640500Y-67640000D01*
X36560000Y-59269000D02*
X35560000Y-58269000D01*
X35560000Y-58269000D02*
X34560000Y-59269000D01*
X34560000Y-59269000D02*
X20360000Y-59269000D01*
X71160000Y-33909000D02*
X20360000Y-33909000D01*
X71160000Y-59269000D02*
X71160000Y-33909000D01*
X36560000Y-59269000D02*
X71160000Y-59269000D01*
X20360000Y-33909000D02*
X20360000Y-59269000D01*
X41322500Y-82010000D02*
X46322500Y-82010000D01*
X37122500Y-60210000D02*
X37122500Y-82010000D01*
X37122500Y-60210000D02*
X46322500Y-60210000D01*
X46322500Y-60210000D02*
X46322500Y-82010000D01*
X37122500Y-82010000D02*
X39322500Y-82010000D01*
X39322500Y-82010000D02*
X40322500Y-81010000D01*
X41322500Y-82010000D02*
X40322500Y-81010000D01*
X56401500Y-65138500D02*
X56401500Y-68338500D01*
X56401500Y-68338500D02*
X61501500Y-68338500D01*
X61501500Y-68338500D02*
X61501500Y-65138500D01*
X61501500Y-65138500D02*
X56401500Y-65138500D01*
X61501500Y-60058500D02*
X56401500Y-60058500D01*
X61501500Y-63258500D02*
X61501500Y-60058500D01*
X56401500Y-63258500D02*
X61501500Y-63258500D01*
X56401500Y-60058500D02*
X56401500Y-63258500D01*
X59776000Y-25690500D02*
X59776000Y-33190500D01*
X64176000Y-25690500D02*
X59776000Y-25690500D01*
X64176000Y-33190500D02*
X64176000Y-25690500D01*
X59776000Y-33190500D02*
X64176000Y-33190500D01*
X34494500Y-68845000D02*
X34494500Y-67045000D01*
X35394500Y-67945000D02*
X33594500Y-67945000D01*
X36444500Y-67945000D02*
G75*
G03*
X36444500Y-67945000I-8000000J0D01*
G01*
D11*
X67556214Y-64047714D02*
X67556214Y-64714380D01*
X67318119Y-63666761D02*
X67080023Y-64381047D01*
X67699071Y-64381047D01*
X67984785Y-63714380D02*
X68651452Y-63714380D01*
X68222880Y-64714380D01*
X69222880Y-63714380D02*
X69318119Y-63714380D01*
X69413357Y-63762000D01*
X69460976Y-63809619D01*
X69508595Y-63904857D01*
X69556214Y-64095333D01*
X69556214Y-64333428D01*
X69508595Y-64523904D01*
X69460976Y-64619142D01*
X69413357Y-64666761D01*
X69318119Y-64714380D01*
X69222880Y-64714380D01*
X69127642Y-64666761D01*
X69080023Y-64619142D01*
X69032404Y-64523904D01*
X68984785Y-64333428D01*
X68984785Y-64095333D01*
X69032404Y-63904857D01*
X69080023Y-63809619D01*
X69127642Y-63762000D01*
X69222880Y-63714380D01*
X70413357Y-64047714D02*
X70413357Y-64714380D01*
X69984785Y-64047714D02*
X69984785Y-64571523D01*
X70032404Y-64666761D01*
X70127642Y-64714380D01*
X70270500Y-64714380D01*
X70365738Y-64666761D01*
X70413357Y-64619142D01*
X63841333Y-64654642D02*
X63793714Y-64702261D01*
X63650857Y-64749880D01*
X63555619Y-64749880D01*
X63412761Y-64702261D01*
X63317523Y-64607023D01*
X63269904Y-64511785D01*
X63222285Y-64321309D01*
X63222285Y-64178452D01*
X63269904Y-63987976D01*
X63317523Y-63892738D01*
X63412761Y-63797500D01*
X63555619Y-63749880D01*
X63650857Y-63749880D01*
X63793714Y-63797500D01*
X63841333Y-63845119D01*
X64746095Y-63749880D02*
X64269904Y-63749880D01*
X64222285Y-64226071D01*
X64269904Y-64178452D01*
X64365142Y-64130833D01*
X64603238Y-64130833D01*
X64698476Y-64178452D01*
X64746095Y-64226071D01*
X64793714Y-64321309D01*
X64793714Y-64559404D01*
X64746095Y-64654642D01*
X64698476Y-64702261D01*
X64603238Y-64749880D01*
X64365142Y-64749880D01*
X64269904Y-64702261D01*
X64222285Y-64654642D01*
X66452904Y-74588666D02*
X66929095Y-74588666D01*
X66357666Y-74874380D02*
X66691000Y-73874380D01*
X67024333Y-74874380D01*
X67357666Y-73874380D02*
X67357666Y-74683904D01*
X67405285Y-74779142D01*
X67452904Y-74826761D01*
X67548142Y-74874380D01*
X67738619Y-74874380D01*
X67833857Y-74826761D01*
X67881476Y-74779142D01*
X67929095Y-74683904D01*
X67929095Y-73874380D01*
X68310047Y-73874380D02*
X68976714Y-74874380D01*
X68976714Y-73874380D02*
X68310047Y-74874380D01*
X67314166Y-75580380D02*
X67314166Y-76294666D01*
X67266547Y-76437523D01*
X67171309Y-76532761D01*
X67028452Y-76580380D01*
X66933214Y-76580380D01*
X68314166Y-76580380D02*
X67742738Y-76580380D01*
X68028452Y-76580380D02*
X68028452Y-75580380D01*
X67933214Y-75723238D01*
X67837976Y-75818476D01*
X67742738Y-75866095D01*
X40116190Y-22486880D02*
X40116190Y-21486880D01*
X40592380Y-22486880D02*
X40592380Y-21486880D01*
X41163809Y-22486880D01*
X41163809Y-21486880D01*
X40306666Y-23010880D02*
X40306666Y-23725166D01*
X40259047Y-23868023D01*
X40163809Y-23963261D01*
X40020952Y-24010880D01*
X39925714Y-24010880D01*
X40735238Y-23106119D02*
X40782857Y-23058500D01*
X40878095Y-23010880D01*
X41116190Y-23010880D01*
X41211428Y-23058500D01*
X41259047Y-23106119D01*
X41306666Y-23201357D01*
X41306666Y-23296595D01*
X41259047Y-23439452D01*
X40687619Y-24010880D01*
X41306666Y-24010880D01*
X51395523Y-63809619D02*
X51443142Y-63762000D01*
X51538380Y-63714380D01*
X51776476Y-63714380D01*
X51871714Y-63762000D01*
X51919333Y-63809619D01*
X51966952Y-63904857D01*
X51966952Y-64000095D01*
X51919333Y-64142952D01*
X51347904Y-64714380D01*
X51966952Y-64714380D01*
X52347904Y-63809619D02*
X52395523Y-63762000D01*
X52490761Y-63714380D01*
X52728857Y-63714380D01*
X52824095Y-63762000D01*
X52871714Y-63809619D01*
X52919333Y-63904857D01*
X52919333Y-64000095D01*
X52871714Y-64142952D01*
X52300285Y-64714380D01*
X52919333Y-64714380D01*
X53538380Y-63714380D02*
X53633619Y-63714380D01*
X53728857Y-63762000D01*
X53776476Y-63809619D01*
X53824095Y-63904857D01*
X53871714Y-64095333D01*
X53871714Y-64333428D01*
X53824095Y-64523904D01*
X53776476Y-64619142D01*
X53728857Y-64666761D01*
X53633619Y-64714380D01*
X53538380Y-64714380D01*
X53443142Y-64666761D01*
X53395523Y-64619142D01*
X53347904Y-64523904D01*
X53300285Y-64333428D01*
X53300285Y-64095333D01*
X53347904Y-63904857D01*
X53395523Y-63809619D01*
X53443142Y-63762000D01*
X53538380Y-63714380D01*
X54728857Y-64047714D02*
X54728857Y-64714380D01*
X54300285Y-64047714D02*
X54300285Y-64571523D01*
X54347904Y-64666761D01*
X54443142Y-64714380D01*
X54586000Y-64714380D01*
X54681238Y-64666761D01*
X54728857Y-64619142D01*
X47966333Y-64619142D02*
X47918714Y-64666761D01*
X47775857Y-64714380D01*
X47680619Y-64714380D01*
X47537761Y-64666761D01*
X47442523Y-64571523D01*
X47394904Y-64476285D01*
X47347285Y-64285809D01*
X47347285Y-64142952D01*
X47394904Y-63952476D01*
X47442523Y-63857238D01*
X47537761Y-63762000D01*
X47680619Y-63714380D01*
X47775857Y-63714380D01*
X47918714Y-63762000D01*
X47966333Y-63809619D01*
X48299666Y-63714380D02*
X48966333Y-63714380D01*
X48537761Y-64714380D01*
X41851595Y-48769261D02*
X41994452Y-48816880D01*
X42232547Y-48816880D01*
X42327785Y-48769261D01*
X42375404Y-48721642D01*
X42423023Y-48626404D01*
X42423023Y-48531166D01*
X42375404Y-48435928D01*
X42327785Y-48388309D01*
X42232547Y-48340690D01*
X42042071Y-48293071D01*
X41946833Y-48245452D01*
X41899214Y-48197833D01*
X41851595Y-48102595D01*
X41851595Y-48007357D01*
X41899214Y-47912119D01*
X41946833Y-47864500D01*
X42042071Y-47816880D01*
X42280166Y-47816880D01*
X42423023Y-47864500D01*
X42851595Y-48816880D02*
X42851595Y-47816880D01*
X43423023Y-48816880D02*
X42994452Y-48245452D01*
X43423023Y-47816880D02*
X42851595Y-48388309D01*
X43851595Y-48293071D02*
X44184928Y-48293071D01*
X44327785Y-48816880D02*
X43851595Y-48816880D01*
X43851595Y-47816880D01*
X44327785Y-47816880D01*
X45280166Y-48816880D02*
X44708738Y-48816880D01*
X44994452Y-48816880D02*
X44994452Y-47816880D01*
X44899214Y-47959738D01*
X44803976Y-48054976D01*
X44708738Y-48102595D01*
X45899214Y-47816880D02*
X45994452Y-47816880D01*
X46089690Y-47864500D01*
X46137309Y-47912119D01*
X46184928Y-48007357D01*
X46232547Y-48197833D01*
X46232547Y-48435928D01*
X46184928Y-48626404D01*
X46137309Y-48721642D01*
X46089690Y-48769261D01*
X45994452Y-48816880D01*
X45899214Y-48816880D01*
X45803976Y-48769261D01*
X45756357Y-48721642D01*
X45708738Y-48626404D01*
X45661119Y-48435928D01*
X45661119Y-48197833D01*
X45708738Y-48007357D01*
X45756357Y-47912119D01*
X45803976Y-47864500D01*
X45899214Y-47816880D01*
X46994452Y-48293071D02*
X47137309Y-48340690D01*
X47184928Y-48388309D01*
X47232547Y-48483547D01*
X47232547Y-48626404D01*
X47184928Y-48721642D01*
X47137309Y-48769261D01*
X47042071Y-48816880D01*
X46661119Y-48816880D01*
X46661119Y-47816880D01*
X46994452Y-47816880D01*
X47089690Y-47864500D01*
X47137309Y-47912119D01*
X47184928Y-48007357D01*
X47184928Y-48102595D01*
X47137309Y-48197833D01*
X47089690Y-48245452D01*
X46994452Y-48293071D01*
X46661119Y-48293071D01*
X47661119Y-48435928D02*
X48423023Y-48435928D01*
X49089690Y-47816880D02*
X49184928Y-47816880D01*
X49280166Y-47864500D01*
X49327785Y-47912119D01*
X49375404Y-48007357D01*
X49423023Y-48197833D01*
X49423023Y-48435928D01*
X49375404Y-48626404D01*
X49327785Y-48721642D01*
X49280166Y-48769261D01*
X49184928Y-48816880D01*
X49089690Y-48816880D01*
X48994452Y-48769261D01*
X48946833Y-48721642D01*
X48899214Y-48626404D01*
X48851595Y-48435928D01*
X48851595Y-48197833D01*
X48899214Y-48007357D01*
X48946833Y-47912119D01*
X48994452Y-47864500D01*
X49089690Y-47816880D01*
X50327785Y-47816880D02*
X49851595Y-47816880D01*
X49803976Y-48293071D01*
X49851595Y-48245452D01*
X49946833Y-48197833D01*
X50184928Y-48197833D01*
X50280166Y-48245452D01*
X50327785Y-48293071D01*
X50375404Y-48388309D01*
X50375404Y-48626404D01*
X50327785Y-48721642D01*
X50280166Y-48769261D01*
X50184928Y-48816880D01*
X49946833Y-48816880D01*
X49851595Y-48769261D01*
X49803976Y-48721642D01*
X45351595Y-45975380D02*
X45351595Y-46784904D01*
X45399214Y-46880142D01*
X45446833Y-46927761D01*
X45542071Y-46975380D01*
X45732547Y-46975380D01*
X45827785Y-46927761D01*
X45875404Y-46880142D01*
X45923023Y-46784904D01*
X45923023Y-45975380D01*
X46351595Y-46070619D02*
X46399214Y-46023000D01*
X46494452Y-45975380D01*
X46732547Y-45975380D01*
X46827785Y-46023000D01*
X46875404Y-46070619D01*
X46923023Y-46165857D01*
X46923023Y-46261095D01*
X46875404Y-46403952D01*
X46303976Y-46975380D01*
X46923023Y-46975380D01*
X36957595Y-71524761D02*
X37100452Y-71572380D01*
X37338547Y-71572380D01*
X37433785Y-71524761D01*
X37481404Y-71477142D01*
X37529023Y-71381904D01*
X37529023Y-71286666D01*
X37481404Y-71191428D01*
X37433785Y-71143809D01*
X37338547Y-71096190D01*
X37148071Y-71048571D01*
X37052833Y-71000952D01*
X37005214Y-70953333D01*
X36957595Y-70858095D01*
X36957595Y-70762857D01*
X37005214Y-70667619D01*
X37052833Y-70620000D01*
X37148071Y-70572380D01*
X37386166Y-70572380D01*
X37529023Y-70620000D01*
X37957595Y-71572380D02*
X37957595Y-70572380D01*
X38338547Y-70572380D01*
X38433785Y-70620000D01*
X38481404Y-70667619D01*
X38529023Y-70762857D01*
X38529023Y-70905714D01*
X38481404Y-71000952D01*
X38433785Y-71048571D01*
X38338547Y-71096190D01*
X37957595Y-71096190D01*
X38909976Y-71286666D02*
X39386166Y-71286666D01*
X38814738Y-71572380D02*
X39148071Y-70572380D01*
X39481404Y-71572380D01*
X39814738Y-71572380D02*
X39814738Y-70572380D01*
X40386166Y-71572380D01*
X40386166Y-70572380D01*
X41052833Y-70572380D02*
X41148071Y-70572380D01*
X41243309Y-70620000D01*
X41290928Y-70667619D01*
X41338547Y-70762857D01*
X41386166Y-70953333D01*
X41386166Y-71191428D01*
X41338547Y-71381904D01*
X41290928Y-71477142D01*
X41243309Y-71524761D01*
X41148071Y-71572380D01*
X41052833Y-71572380D01*
X40957595Y-71524761D01*
X40909976Y-71477142D01*
X40862357Y-71381904D01*
X40814738Y-71191428D01*
X40814738Y-70953333D01*
X40862357Y-70762857D01*
X40909976Y-70667619D01*
X40957595Y-70620000D01*
X41052833Y-70572380D01*
X41767119Y-70667619D02*
X41814738Y-70620000D01*
X41909976Y-70572380D01*
X42148071Y-70572380D01*
X42243309Y-70620000D01*
X42290928Y-70667619D01*
X42338547Y-70762857D01*
X42338547Y-70858095D01*
X42290928Y-71000952D01*
X41719500Y-71572380D01*
X42338547Y-71572380D01*
X43100452Y-71048571D02*
X43243309Y-71096190D01*
X43290928Y-71143809D01*
X43338547Y-71239047D01*
X43338547Y-71381904D01*
X43290928Y-71477142D01*
X43243309Y-71524761D01*
X43148071Y-71572380D01*
X42767119Y-71572380D01*
X42767119Y-70572380D01*
X43100452Y-70572380D01*
X43195690Y-70620000D01*
X43243309Y-70667619D01*
X43290928Y-70762857D01*
X43290928Y-70858095D01*
X43243309Y-70953333D01*
X43195690Y-71000952D01*
X43100452Y-71048571D01*
X42767119Y-71048571D01*
X43767119Y-71191428D02*
X44529023Y-71191428D01*
X45195690Y-70572380D02*
X45290928Y-70572380D01*
X45386166Y-70620000D01*
X45433785Y-70667619D01*
X45481404Y-70762857D01*
X45529023Y-70953333D01*
X45529023Y-71191428D01*
X45481404Y-71381904D01*
X45433785Y-71477142D01*
X45386166Y-71524761D01*
X45290928Y-71572380D01*
X45195690Y-71572380D01*
X45100452Y-71524761D01*
X45052833Y-71477142D01*
X45005214Y-71381904D01*
X44957595Y-71191428D01*
X44957595Y-70953333D01*
X45005214Y-70762857D01*
X45052833Y-70667619D01*
X45100452Y-70620000D01*
X45195690Y-70572380D01*
X46433785Y-70572380D02*
X45957595Y-70572380D01*
X45909976Y-71048571D01*
X45957595Y-71000952D01*
X46052833Y-70953333D01*
X46290928Y-70953333D01*
X46386166Y-71000952D01*
X46433785Y-71048571D01*
X46481404Y-71143809D01*
X46481404Y-71381904D01*
X46433785Y-71477142D01*
X46386166Y-71524761D01*
X46290928Y-71572380D01*
X46052833Y-71572380D01*
X45957595Y-71524761D01*
X45909976Y-71477142D01*
X41084595Y-68730880D02*
X41084595Y-69540404D01*
X41132214Y-69635642D01*
X41179833Y-69683261D01*
X41275071Y-69730880D01*
X41465547Y-69730880D01*
X41560785Y-69683261D01*
X41608404Y-69635642D01*
X41656023Y-69540404D01*
X41656023Y-68730880D01*
X42656023Y-69730880D02*
X42084595Y-69730880D01*
X42370309Y-69730880D02*
X42370309Y-68730880D01*
X42275071Y-68873738D01*
X42179833Y-68968976D01*
X42084595Y-69016595D01*
X57316904Y-66825880D02*
X57935952Y-66825880D01*
X57602619Y-67206833D01*
X57745476Y-67206833D01*
X57840714Y-67254452D01*
X57888333Y-67302071D01*
X57935952Y-67397309D01*
X57935952Y-67635404D01*
X57888333Y-67730642D01*
X57840714Y-67778261D01*
X57745476Y-67825880D01*
X57459761Y-67825880D01*
X57364523Y-67778261D01*
X57316904Y-67730642D01*
X58269285Y-66825880D02*
X58888333Y-66825880D01*
X58555000Y-67206833D01*
X58697857Y-67206833D01*
X58793095Y-67254452D01*
X58840714Y-67302071D01*
X58888333Y-67397309D01*
X58888333Y-67635404D01*
X58840714Y-67730642D01*
X58793095Y-67778261D01*
X58697857Y-67825880D01*
X58412142Y-67825880D01*
X58316904Y-67778261D01*
X58269285Y-67730642D01*
X59507380Y-66825880D02*
X59602619Y-66825880D01*
X59697857Y-66873500D01*
X59745476Y-66921119D01*
X59793095Y-67016357D01*
X59840714Y-67206833D01*
X59840714Y-67444928D01*
X59793095Y-67635404D01*
X59745476Y-67730642D01*
X59697857Y-67778261D01*
X59602619Y-67825880D01*
X59507380Y-67825880D01*
X59412142Y-67778261D01*
X59364523Y-67730642D01*
X59316904Y-67635404D01*
X59269285Y-67444928D01*
X59269285Y-67206833D01*
X59316904Y-67016357D01*
X59364523Y-66921119D01*
X59412142Y-66873500D01*
X59507380Y-66825880D01*
X60269285Y-67159214D02*
X60269285Y-67825880D01*
X60269285Y-67254452D02*
X60316904Y-67206833D01*
X60412142Y-67159214D01*
X60555000Y-67159214D01*
X60650238Y-67206833D01*
X60697857Y-67302071D01*
X60697857Y-67825880D01*
X58871833Y-66397142D02*
X58824214Y-66444761D01*
X58681357Y-66492380D01*
X58586119Y-66492380D01*
X58443261Y-66444761D01*
X58348023Y-66349523D01*
X58300404Y-66254285D01*
X58252785Y-66063809D01*
X58252785Y-65920952D01*
X58300404Y-65730476D01*
X58348023Y-65635238D01*
X58443261Y-65540000D01*
X58586119Y-65492380D01*
X58681357Y-65492380D01*
X58824214Y-65540000D01*
X58871833Y-65587619D01*
X59443261Y-65920952D02*
X59348023Y-65873333D01*
X59300404Y-65825714D01*
X59252785Y-65730476D01*
X59252785Y-65682857D01*
X59300404Y-65587619D01*
X59348023Y-65540000D01*
X59443261Y-65492380D01*
X59633738Y-65492380D01*
X59728976Y-65540000D01*
X59776595Y-65587619D01*
X59824214Y-65682857D01*
X59824214Y-65730476D01*
X59776595Y-65825714D01*
X59728976Y-65873333D01*
X59633738Y-65920952D01*
X59443261Y-65920952D01*
X59348023Y-65968571D01*
X59300404Y-66016190D01*
X59252785Y-66111428D01*
X59252785Y-66301904D01*
X59300404Y-66397142D01*
X59348023Y-66444761D01*
X59443261Y-66492380D01*
X59633738Y-66492380D01*
X59728976Y-66444761D01*
X59776595Y-66397142D01*
X59824214Y-66301904D01*
X59824214Y-66111428D01*
X59776595Y-66016190D01*
X59728976Y-65968571D01*
X59633738Y-65920952D01*
X57316904Y-61936380D02*
X57935952Y-61936380D01*
X57602619Y-62317333D01*
X57745476Y-62317333D01*
X57840714Y-62364952D01*
X57888333Y-62412571D01*
X57935952Y-62507809D01*
X57935952Y-62745904D01*
X57888333Y-62841142D01*
X57840714Y-62888761D01*
X57745476Y-62936380D01*
X57459761Y-62936380D01*
X57364523Y-62888761D01*
X57316904Y-62841142D01*
X58269285Y-61936380D02*
X58888333Y-61936380D01*
X58555000Y-62317333D01*
X58697857Y-62317333D01*
X58793095Y-62364952D01*
X58840714Y-62412571D01*
X58888333Y-62507809D01*
X58888333Y-62745904D01*
X58840714Y-62841142D01*
X58793095Y-62888761D01*
X58697857Y-62936380D01*
X58412142Y-62936380D01*
X58316904Y-62888761D01*
X58269285Y-62841142D01*
X59507380Y-61936380D02*
X59602619Y-61936380D01*
X59697857Y-61984000D01*
X59745476Y-62031619D01*
X59793095Y-62126857D01*
X59840714Y-62317333D01*
X59840714Y-62555428D01*
X59793095Y-62745904D01*
X59745476Y-62841142D01*
X59697857Y-62888761D01*
X59602619Y-62936380D01*
X59507380Y-62936380D01*
X59412142Y-62888761D01*
X59364523Y-62841142D01*
X59316904Y-62745904D01*
X59269285Y-62555428D01*
X59269285Y-62317333D01*
X59316904Y-62126857D01*
X59364523Y-62031619D01*
X59412142Y-61984000D01*
X59507380Y-61936380D01*
X60269285Y-62269714D02*
X60269285Y-62936380D01*
X60269285Y-62364952D02*
X60316904Y-62317333D01*
X60412142Y-62269714D01*
X60555000Y-62269714D01*
X60650238Y-62317333D01*
X60697857Y-62412571D01*
X60697857Y-62936380D01*
X58888333Y-61126642D02*
X58840714Y-61174261D01*
X58697857Y-61221880D01*
X58602619Y-61221880D01*
X58459761Y-61174261D01*
X58364523Y-61079023D01*
X58316904Y-60983785D01*
X58269285Y-60793309D01*
X58269285Y-60650452D01*
X58316904Y-60459976D01*
X58364523Y-60364738D01*
X58459761Y-60269500D01*
X58602619Y-60221880D01*
X58697857Y-60221880D01*
X58840714Y-60269500D01*
X58888333Y-60317119D01*
X59745476Y-60221880D02*
X59555000Y-60221880D01*
X59459761Y-60269500D01*
X59412142Y-60317119D01*
X59316904Y-60459976D01*
X59269285Y-60650452D01*
X59269285Y-61031404D01*
X59316904Y-61126642D01*
X59364523Y-61174261D01*
X59459761Y-61221880D01*
X59650238Y-61221880D01*
X59745476Y-61174261D01*
X59793095Y-61126642D01*
X59840714Y-61031404D01*
X59840714Y-60793309D01*
X59793095Y-60698071D01*
X59745476Y-60650452D01*
X59650238Y-60602833D01*
X59459761Y-60602833D01*
X59364523Y-60650452D01*
X59316904Y-60698071D01*
X59269285Y-60793309D01*
X61809333Y-30551380D02*
X61237904Y-30551380D01*
X61523619Y-30551380D02*
X61523619Y-29551380D01*
X61428380Y-29694238D01*
X61333142Y-29789476D01*
X61237904Y-29837095D01*
X62666476Y-29884714D02*
X62666476Y-30551380D01*
X62237904Y-29884714D02*
X62237904Y-30408523D01*
X62285523Y-30503761D01*
X62380761Y-30551380D01*
X62523619Y-30551380D01*
X62618857Y-30503761D01*
X62666476Y-30456142D01*
X61745833Y-28932142D02*
X61698214Y-28979761D01*
X61555357Y-29027380D01*
X61460119Y-29027380D01*
X61317261Y-28979761D01*
X61222023Y-28884523D01*
X61174404Y-28789285D01*
X61126785Y-28598809D01*
X61126785Y-28455952D01*
X61174404Y-28265476D01*
X61222023Y-28170238D01*
X61317261Y-28075000D01*
X61460119Y-28027380D01*
X61555357Y-28027380D01*
X61698214Y-28075000D01*
X61745833Y-28122619D01*
X62602976Y-28360714D02*
X62602976Y-29027380D01*
X62364880Y-27979761D02*
X62126785Y-28694047D01*
X62745833Y-28694047D01*
X26217833Y-67492619D02*
X26265452Y-67445000D01*
X26360690Y-67397380D01*
X26598785Y-67397380D01*
X26694023Y-67445000D01*
X26741642Y-67492619D01*
X26789261Y-67587857D01*
X26789261Y-67683095D01*
X26741642Y-67825952D01*
X26170214Y-68397380D01*
X26789261Y-68397380D01*
X27170214Y-67492619D02*
X27217833Y-67445000D01*
X27313071Y-67397380D01*
X27551166Y-67397380D01*
X27646404Y-67445000D01*
X27694023Y-67492619D01*
X27741642Y-67587857D01*
X27741642Y-67683095D01*
X27694023Y-67825952D01*
X27122595Y-68397380D01*
X27741642Y-68397380D01*
X28360690Y-67397380D02*
X28455928Y-67397380D01*
X28551166Y-67445000D01*
X28598785Y-67492619D01*
X28646404Y-67587857D01*
X28694023Y-67778333D01*
X28694023Y-68016428D01*
X28646404Y-68206904D01*
X28598785Y-68302142D01*
X28551166Y-68349761D01*
X28455928Y-68397380D01*
X28360690Y-68397380D01*
X28265452Y-68349761D01*
X28217833Y-68302142D01*
X28170214Y-68206904D01*
X28122595Y-68016428D01*
X28122595Y-67778333D01*
X28170214Y-67587857D01*
X28217833Y-67492619D01*
X28265452Y-67445000D01*
X28360690Y-67397380D01*
X29313071Y-67397380D02*
X29408309Y-67397380D01*
X29503547Y-67445000D01*
X29551166Y-67492619D01*
X29598785Y-67587857D01*
X29646404Y-67778333D01*
X29646404Y-68016428D01*
X29598785Y-68206904D01*
X29551166Y-68302142D01*
X29503547Y-68349761D01*
X29408309Y-68397380D01*
X29313071Y-68397380D01*
X29217833Y-68349761D01*
X29170214Y-68302142D01*
X29122595Y-68206904D01*
X29074976Y-68016428D01*
X29074976Y-67778333D01*
X29122595Y-67587857D01*
X29170214Y-67492619D01*
X29217833Y-67445000D01*
X29313071Y-67397380D01*
X30503547Y-67730714D02*
X30503547Y-68397380D01*
X30074976Y-67730714D02*
X30074976Y-68254523D01*
X30122595Y-68349761D01*
X30217833Y-68397380D01*
X30360690Y-68397380D01*
X30455928Y-68349761D01*
X30503547Y-68302142D01*
X21486833Y-68302142D02*
X21439214Y-68349761D01*
X21296357Y-68397380D01*
X21201119Y-68397380D01*
X21058261Y-68349761D01*
X20963023Y-68254523D01*
X20915404Y-68159285D01*
X20867785Y-67968809D01*
X20867785Y-67825952D01*
X20915404Y-67635476D01*
X20963023Y-67540238D01*
X21058261Y-67445000D01*
X21201119Y-67397380D01*
X21296357Y-67397380D01*
X21439214Y-67445000D01*
X21486833Y-67492619D01*
X21820166Y-67397380D02*
X22439214Y-67397380D01*
X22105880Y-67778333D01*
X22248738Y-67778333D01*
X22343976Y-67825952D01*
X22391595Y-67873571D01*
X22439214Y-67968809D01*
X22439214Y-68206904D01*
X22391595Y-68302142D01*
X22343976Y-68349761D01*
X22248738Y-68397380D01*
X21963023Y-68397380D01*
X21867785Y-68349761D01*
X21820166Y-68302142D01*
X54689500Y-74382380D02*
X54879976Y-74382380D01*
X54975214Y-74430000D01*
X55070452Y-74525238D01*
X55118071Y-74715714D01*
X55118071Y-75049047D01*
X55070452Y-75239523D01*
X54975214Y-75334761D01*
X54879976Y-75382380D01*
X54689500Y-75382380D01*
X54594261Y-75334761D01*
X54499023Y-75239523D01*
X54451404Y-75049047D01*
X54451404Y-74715714D01*
X54499023Y-74525238D01*
X54594261Y-74430000D01*
X54689500Y-74382380D01*
X55546642Y-74382380D02*
X55546642Y-75191904D01*
X55594261Y-75287142D01*
X55641880Y-75334761D01*
X55737119Y-75382380D01*
X55927595Y-75382380D01*
X56022833Y-75334761D01*
X56070452Y-75287142D01*
X56118071Y-75191904D01*
X56118071Y-74382380D01*
X56451404Y-74382380D02*
X57022833Y-74382380D01*
X56737119Y-75382380D02*
X56737119Y-74382380D01*
X55229166Y-75969880D02*
X55229166Y-76684166D01*
X55181547Y-76827023D01*
X55086309Y-76922261D01*
X54943452Y-76969880D01*
X54848214Y-76969880D01*
X55610119Y-75969880D02*
X56229166Y-75969880D01*
X55895833Y-76350833D01*
X56038690Y-76350833D01*
X56133928Y-76398452D01*
X56181547Y-76446071D01*
X56229166Y-76541309D01*
X56229166Y-76779404D01*
X56181547Y-76874642D01*
X56133928Y-76922261D01*
X56038690Y-76969880D01*
X55752976Y-76969880D01*
X55657738Y-76922261D01*
X55610119Y-76874642D01*
M02*
