G04 #@! TF.GenerationSoftware,KiCad,Pcbnew,(5.99.0-576-ga860ac506)*
G04 #@! TF.CreationDate,2021-04-05T16:40:01+02:00*
G04 #@! TF.ProjectId,8 Inch Floppy Power Supply,3820496e-6368-4204-966c-6f7070792050,rev?*
G04 #@! TF.SameCoordinates,Original*
G04 #@! TF.FileFunction,Legend,Top*
G04 #@! TF.FilePolarity,Positive*
%FSLAX46Y46*%
G04 Gerber Fmt 4.6, Leading zero omitted, Abs format (unit mm)*
G04 Created by KiCad (PCBNEW (5.99.0-576-ga860ac506)) date 2021-04-05 16:40:01*
%MOMM*%
%LPD*%
G04 APERTURE LIST*
%ADD10C,0.250000*%
%ADD11C,0.150000*%
%ADD12C,0.120000*%
G04 APERTURE END LIST*
D10*
X21201261Y-78049380D02*
X20867928Y-77573190D01*
X20629833Y-78049380D02*
X20629833Y-77049380D01*
X21010785Y-77049380D01*
X21106023Y-77097000D01*
X21153642Y-77144619D01*
X21201261Y-77239857D01*
X21201261Y-77382714D01*
X21153642Y-77477952D01*
X21106023Y-77525571D01*
X21010785Y-77573190D01*
X20629833Y-77573190D01*
X22010785Y-78001761D02*
X21915547Y-78049380D01*
X21725071Y-78049380D01*
X21629833Y-78001761D01*
X21582214Y-77906523D01*
X21582214Y-77525571D01*
X21629833Y-77430333D01*
X21725071Y-77382714D01*
X21915547Y-77382714D01*
X22010785Y-77430333D01*
X22058404Y-77525571D01*
X22058404Y-77620809D01*
X21582214Y-77716047D01*
X22391738Y-77382714D02*
X22629833Y-78049380D01*
X22867928Y-77382714D01*
X23248880Y-77954142D02*
X23296500Y-78001761D01*
X23248880Y-78049380D01*
X23201261Y-78001761D01*
X23248880Y-77954142D01*
X23248880Y-78049380D01*
X25010785Y-78049380D02*
X24439357Y-78049380D01*
X24725071Y-78049380D02*
X24725071Y-77049380D01*
X24629833Y-77192238D01*
X24534595Y-77287476D01*
X24439357Y-77335095D01*
D11*
X25384666Y-80546380D02*
X25384666Y-79546380D01*
X25622761Y-79546380D01*
X25765619Y-79594000D01*
X25860857Y-79689238D01*
X25908476Y-79784476D01*
X25956095Y-79974952D01*
X25956095Y-80117809D01*
X25908476Y-80308285D01*
X25860857Y-80403523D01*
X25765619Y-80498761D01*
X25622761Y-80546380D01*
X25384666Y-80546380D01*
X26765619Y-80498761D02*
X26670380Y-80546380D01*
X26479904Y-80546380D01*
X26384666Y-80498761D01*
X26337047Y-80403523D01*
X26337047Y-80022571D01*
X26384666Y-79927333D01*
X26479904Y-79879714D01*
X26670380Y-79879714D01*
X26765619Y-79927333D01*
X26813238Y-80022571D01*
X26813238Y-80117809D01*
X26337047Y-80213047D01*
X27194190Y-80498761D02*
X27289428Y-80546380D01*
X27479904Y-80546380D01*
X27575142Y-80498761D01*
X27622761Y-80403523D01*
X27622761Y-80355904D01*
X27575142Y-80260666D01*
X27479904Y-80213047D01*
X27337047Y-80213047D01*
X27241809Y-80165428D01*
X27194190Y-80070190D01*
X27194190Y-80022571D01*
X27241809Y-79927333D01*
X27337047Y-79879714D01*
X27479904Y-79879714D01*
X27575142Y-79927333D01*
X28051333Y-80546380D02*
X28051333Y-79879714D01*
X28051333Y-79546380D02*
X28003714Y-79594000D01*
X28051333Y-79641619D01*
X28098952Y-79594000D01*
X28051333Y-79546380D01*
X28051333Y-79641619D01*
X28956095Y-79879714D02*
X28956095Y-80689238D01*
X28908476Y-80784476D01*
X28860857Y-80832095D01*
X28765619Y-80879714D01*
X28622761Y-80879714D01*
X28527523Y-80832095D01*
X28956095Y-80498761D02*
X28860857Y-80546380D01*
X28670380Y-80546380D01*
X28575142Y-80498761D01*
X28527523Y-80451142D01*
X28479904Y-80355904D01*
X28479904Y-80070190D01*
X28527523Y-79974952D01*
X28575142Y-79927333D01*
X28670380Y-79879714D01*
X28860857Y-79879714D01*
X28956095Y-79927333D01*
X29432285Y-79879714D02*
X29432285Y-80546380D01*
X29432285Y-79974952D02*
X29479904Y-79927333D01*
X29575142Y-79879714D01*
X29718000Y-79879714D01*
X29813238Y-79927333D01*
X29860857Y-80022571D01*
X29860857Y-80546380D01*
X30718000Y-80498761D02*
X30622761Y-80546380D01*
X30432285Y-80546380D01*
X30337047Y-80498761D01*
X30289428Y-80403523D01*
X30289428Y-80022571D01*
X30337047Y-79927333D01*
X30432285Y-79879714D01*
X30622761Y-79879714D01*
X30718000Y-79927333D01*
X30765619Y-80022571D01*
X30765619Y-80117809D01*
X30289428Y-80213047D01*
X31622761Y-80546380D02*
X31622761Y-79546380D01*
X31622761Y-80498761D02*
X31527523Y-80546380D01*
X31337047Y-80546380D01*
X31241809Y-80498761D01*
X31194190Y-80451142D01*
X31146571Y-80355904D01*
X31146571Y-80070190D01*
X31194190Y-79974952D01*
X31241809Y-79927333D01*
X31337047Y-79879714D01*
X31527523Y-79879714D01*
X31622761Y-79927333D01*
X32860857Y-80546380D02*
X32860857Y-79546380D01*
X32860857Y-79927333D02*
X32956095Y-79879714D01*
X33146571Y-79879714D01*
X33241809Y-79927333D01*
X33289428Y-79974952D01*
X33337047Y-80070190D01*
X33337047Y-80355904D01*
X33289428Y-80451142D01*
X33241809Y-80498761D01*
X33146571Y-80546380D01*
X32956095Y-80546380D01*
X32860857Y-80498761D01*
X33670380Y-79879714D02*
X33908476Y-80546380D01*
X34146571Y-79879714D02*
X33908476Y-80546380D01*
X33813238Y-80784476D01*
X33765619Y-80832095D01*
X33670380Y-80879714D01*
X25337047Y-81156380D02*
X25337047Y-81870666D01*
X25289428Y-82013523D01*
X25194190Y-82108761D01*
X25051333Y-82156380D01*
X24956095Y-82156380D01*
X25956095Y-82156380D02*
X25860857Y-82108761D01*
X25813238Y-82061142D01*
X25765619Y-81965904D01*
X25765619Y-81680190D01*
X25813238Y-81584952D01*
X25860857Y-81537333D01*
X25956095Y-81489714D01*
X26098952Y-81489714D01*
X26194190Y-81537333D01*
X26241809Y-81584952D01*
X26289428Y-81680190D01*
X26289428Y-81965904D01*
X26241809Y-82061142D01*
X26194190Y-82108761D01*
X26098952Y-82156380D01*
X25956095Y-82156380D01*
X27098952Y-82108761D02*
X27003714Y-82156380D01*
X26813238Y-82156380D01*
X26718000Y-82108761D01*
X26670380Y-82013523D01*
X26670380Y-81632571D01*
X26718000Y-81537333D01*
X26813238Y-81489714D01*
X27003714Y-81489714D01*
X27098952Y-81537333D01*
X27146571Y-81632571D01*
X27146571Y-81727809D01*
X26670380Y-81823047D01*
X27718000Y-82156380D02*
X27622761Y-82108761D01*
X27575142Y-82013523D01*
X27575142Y-81156380D01*
X28813238Y-82108761D02*
X28956095Y-82156380D01*
X29194190Y-82156380D01*
X29289428Y-82108761D01*
X29337047Y-82061142D01*
X29384666Y-81965904D01*
X29384666Y-81870666D01*
X29337047Y-81775428D01*
X29289428Y-81727809D01*
X29194190Y-81680190D01*
X29003714Y-81632571D01*
X28908476Y-81584952D01*
X28860857Y-81537333D01*
X28813238Y-81442095D01*
X28813238Y-81346857D01*
X28860857Y-81251619D01*
X28908476Y-81204000D01*
X29003714Y-81156380D01*
X29241809Y-81156380D01*
X29384666Y-81204000D01*
X30241809Y-82108761D02*
X30146571Y-82156380D01*
X29956095Y-82156380D01*
X29860857Y-82108761D01*
X29813238Y-82061142D01*
X29765619Y-81965904D01*
X29765619Y-81680190D01*
X29813238Y-81584952D01*
X29860857Y-81537333D01*
X29956095Y-81489714D01*
X30146571Y-81489714D01*
X30241809Y-81537333D01*
X30670380Y-82156380D02*
X30670380Y-81156380D01*
X31098952Y-82156380D02*
X31098952Y-81632571D01*
X31051333Y-81537333D01*
X30956095Y-81489714D01*
X30813238Y-81489714D01*
X30718000Y-81537333D01*
X30670380Y-81584952D01*
X31575142Y-82156380D02*
X31575142Y-81489714D01*
X31575142Y-81584952D02*
X31622761Y-81537333D01*
X31718000Y-81489714D01*
X31860857Y-81489714D01*
X31956095Y-81537333D01*
X32003714Y-81632571D01*
X32003714Y-82156380D01*
X32003714Y-81632571D02*
X32051333Y-81537333D01*
X32146571Y-81489714D01*
X32289428Y-81489714D01*
X32384666Y-81537333D01*
X32432285Y-81632571D01*
X32432285Y-82156380D01*
X32908476Y-82156380D02*
X32908476Y-81489714D01*
X32908476Y-81156380D02*
X32860857Y-81204000D01*
X32908476Y-81251619D01*
X32956095Y-81204000D01*
X32908476Y-81156380D01*
X32908476Y-81251619D01*
X33813238Y-82156380D02*
X33813238Y-81156380D01*
X33813238Y-82108761D02*
X33718000Y-82156380D01*
X33527523Y-82156380D01*
X33432285Y-82108761D01*
X33384666Y-82061142D01*
X33337047Y-81965904D01*
X33337047Y-81680190D01*
X33384666Y-81584952D01*
X33432285Y-81537333D01*
X33527523Y-81489714D01*
X33718000Y-81489714D01*
X33813238Y-81537333D01*
X34146571Y-81489714D02*
X34527523Y-81489714D01*
X34289428Y-81156380D02*
X34289428Y-82013523D01*
X34337047Y-82108761D01*
X34432285Y-82156380D01*
X34527523Y-82156380D01*
D12*
X66279000Y-67647500D02*
X67579000Y-67647500D01*
X66929000Y-68247500D02*
X66929000Y-67047500D01*
X66683000Y-60216500D02*
X67175000Y-60216500D01*
X66331000Y-60256500D02*
X67527000Y-60256500D01*
X66115000Y-60296500D02*
X67743000Y-60296500D01*
X65946000Y-60336500D02*
X67912000Y-60336500D01*
X65802000Y-60376500D02*
X68056000Y-60376500D01*
X65675000Y-60416500D02*
X68183000Y-60416500D01*
X65560000Y-60456500D02*
X68298000Y-60456500D01*
X65456000Y-60496500D02*
X68402000Y-60496500D01*
X65359000Y-60536500D02*
X68499000Y-60536500D01*
X65269000Y-60576500D02*
X68589000Y-60576500D01*
X65184000Y-60616500D02*
X68674000Y-60616500D01*
X65103000Y-60656500D02*
X68755000Y-60656500D01*
X65027000Y-60696500D02*
X68831000Y-60696500D01*
X64955000Y-60736500D02*
X68903000Y-60736500D01*
X64886000Y-60776500D02*
X68972000Y-60776500D01*
X64820000Y-60816500D02*
X69038000Y-60816500D01*
X64756000Y-60856500D02*
X69102000Y-60856500D01*
X64695000Y-60896500D02*
X69163000Y-60896500D01*
X64636000Y-60936500D02*
X69222000Y-60936500D01*
X64580000Y-60976500D02*
X69278000Y-60976500D01*
X64525000Y-61016500D02*
X69333000Y-61016500D01*
X64472000Y-61056500D02*
X69386000Y-61056500D01*
X64421000Y-61096500D02*
X69437000Y-61096500D01*
X64372000Y-61136500D02*
X69486000Y-61136500D01*
X64324000Y-61176500D02*
X69534000Y-61176500D01*
X64277000Y-61216500D02*
X69581000Y-61216500D01*
X64232000Y-61256500D02*
X69626000Y-61256500D01*
X64189000Y-61296500D02*
X69669000Y-61296500D01*
X64146000Y-61336500D02*
X69712000Y-61336500D01*
X64105000Y-61376500D02*
X69753000Y-61376500D01*
X64064000Y-61416500D02*
X69794000Y-61416500D01*
X64025000Y-61456500D02*
X69833000Y-61456500D01*
X63987000Y-61496500D02*
X69871000Y-61496500D01*
X63950000Y-61536500D02*
X69908000Y-61536500D01*
X67909000Y-61576500D02*
X69944000Y-61576500D01*
X63914000Y-61576500D02*
X65949000Y-61576500D01*
X67909000Y-61616500D02*
X69979000Y-61616500D01*
X63879000Y-61616500D02*
X65949000Y-61616500D01*
X67909000Y-61656500D02*
X70013000Y-61656500D01*
X63845000Y-61656500D02*
X65949000Y-61656500D01*
X67909000Y-61696500D02*
X70047000Y-61696500D01*
X63811000Y-61696500D02*
X65949000Y-61696500D01*
X67909000Y-61736500D02*
X70079000Y-61736500D01*
X63779000Y-61736500D02*
X65949000Y-61736500D01*
X67909000Y-61776500D02*
X70111000Y-61776500D01*
X63747000Y-61776500D02*
X65949000Y-61776500D01*
X67909000Y-61816500D02*
X70142000Y-61816500D01*
X63716000Y-61816500D02*
X65949000Y-61816500D01*
X67909000Y-61856500D02*
X70172000Y-61856500D01*
X63686000Y-61856500D02*
X65949000Y-61856500D01*
X67909000Y-61896500D02*
X70201000Y-61896500D01*
X63657000Y-61896500D02*
X65949000Y-61896500D01*
X67909000Y-61936500D02*
X70230000Y-61936500D01*
X63628000Y-61936500D02*
X65949000Y-61936500D01*
X67909000Y-61976500D02*
X70258000Y-61976500D01*
X63600000Y-61976500D02*
X65949000Y-61976500D01*
X67909000Y-62016500D02*
X70285000Y-62016500D01*
X63573000Y-62016500D02*
X65949000Y-62016500D01*
X67909000Y-62056500D02*
X70312000Y-62056500D01*
X63546000Y-62056500D02*
X65949000Y-62056500D01*
X67909000Y-62096500D02*
X70337000Y-62096500D01*
X63521000Y-62096500D02*
X65949000Y-62096500D01*
X67909000Y-62136500D02*
X70363000Y-62136500D01*
X63495000Y-62136500D02*
X65949000Y-62136500D01*
X67909000Y-62176500D02*
X70387000Y-62176500D01*
X63471000Y-62176500D02*
X65949000Y-62176500D01*
X67909000Y-62216500D02*
X70411000Y-62216500D01*
X63447000Y-62216500D02*
X65949000Y-62216500D01*
X67909000Y-62256500D02*
X70434000Y-62256500D01*
X63424000Y-62256500D02*
X65949000Y-62256500D01*
X67909000Y-62296500D02*
X70457000Y-62296500D01*
X63401000Y-62296500D02*
X65949000Y-62296500D01*
X67909000Y-62336500D02*
X70479000Y-62336500D01*
X63379000Y-62336500D02*
X65949000Y-62336500D01*
X67909000Y-62376500D02*
X70501000Y-62376500D01*
X63357000Y-62376500D02*
X65949000Y-62376500D01*
X67909000Y-62416500D02*
X70522000Y-62416500D01*
X63336000Y-62416500D02*
X65949000Y-62416500D01*
X67909000Y-62456500D02*
X70542000Y-62456500D01*
X63316000Y-62456500D02*
X65949000Y-62456500D01*
X67909000Y-62496500D02*
X70562000Y-62496500D01*
X63296000Y-62496500D02*
X65949000Y-62496500D01*
X67909000Y-62536500D02*
X70581000Y-62536500D01*
X63277000Y-62536500D02*
X65949000Y-62536500D01*
X67909000Y-62576500D02*
X70600000Y-62576500D01*
X63258000Y-62576500D02*
X65949000Y-62576500D01*
X67909000Y-62616500D02*
X70619000Y-62616500D01*
X63239000Y-62616500D02*
X65949000Y-62616500D01*
X67909000Y-62656500D02*
X70636000Y-62656500D01*
X63222000Y-62656500D02*
X65949000Y-62656500D01*
X67909000Y-62696500D02*
X70654000Y-62696500D01*
X63204000Y-62696500D02*
X65949000Y-62696500D01*
X67909000Y-62736500D02*
X70670000Y-62736500D01*
X63188000Y-62736500D02*
X65949000Y-62736500D01*
X67909000Y-62776500D02*
X70687000Y-62776500D01*
X63171000Y-62776500D02*
X65949000Y-62776500D01*
X67909000Y-62816500D02*
X70702000Y-62816500D01*
X63156000Y-62816500D02*
X65949000Y-62816500D01*
X67909000Y-62856500D02*
X70718000Y-62856500D01*
X63140000Y-62856500D02*
X65949000Y-62856500D01*
X67909000Y-62896500D02*
X70732000Y-62896500D01*
X63126000Y-62896500D02*
X65949000Y-62896500D01*
X67909000Y-62936500D02*
X70747000Y-62936500D01*
X63111000Y-62936500D02*
X65949000Y-62936500D01*
X67909000Y-62976500D02*
X70761000Y-62976500D01*
X63097000Y-62976500D02*
X65949000Y-62976500D01*
X67909000Y-63016500D02*
X70774000Y-63016500D01*
X63084000Y-63016500D02*
X65949000Y-63016500D01*
X67909000Y-63056500D02*
X70787000Y-63056500D01*
X63071000Y-63056500D02*
X65949000Y-63056500D01*
X67909000Y-63096500D02*
X70799000Y-63096500D01*
X63059000Y-63096500D02*
X65949000Y-63096500D01*
X67909000Y-63136500D02*
X70812000Y-63136500D01*
X63046000Y-63136500D02*
X65949000Y-63136500D01*
X67909000Y-63176500D02*
X70823000Y-63176500D01*
X63035000Y-63176500D02*
X65949000Y-63176500D01*
X67909000Y-63216500D02*
X70834000Y-63216500D01*
X63024000Y-63216500D02*
X65949000Y-63216500D01*
X67909000Y-63256500D02*
X70845000Y-63256500D01*
X63013000Y-63256500D02*
X65949000Y-63256500D01*
X67909000Y-63296500D02*
X70855000Y-63296500D01*
X63003000Y-63296500D02*
X65949000Y-63296500D01*
X67909000Y-63336500D02*
X70865000Y-63336500D01*
X62993000Y-63336500D02*
X65949000Y-63336500D01*
X67909000Y-63376500D02*
X70875000Y-63376500D01*
X62983000Y-63376500D02*
X65949000Y-63376500D01*
X67909000Y-63416500D02*
X70884000Y-63416500D01*
X62974000Y-63416500D02*
X65949000Y-63416500D01*
X67909000Y-63456500D02*
X70892000Y-63456500D01*
X62966000Y-63456500D02*
X65949000Y-63456500D01*
X67909000Y-63496500D02*
X70900000Y-63496500D01*
X62958000Y-63496500D02*
X65949000Y-63496500D01*
X62950000Y-63536500D02*
X70908000Y-63536500D01*
X62942000Y-63576500D02*
X70916000Y-63576500D01*
X62935000Y-63617500D02*
X70923000Y-63617500D01*
X62929000Y-63657500D02*
X70929000Y-63657500D01*
X62923000Y-63697500D02*
X70935000Y-63697500D01*
X62917000Y-63737500D02*
X70941000Y-63737500D01*
X62912000Y-63777500D02*
X70946000Y-63777500D01*
X62907000Y-63817500D02*
X70951000Y-63817500D01*
X62902000Y-63857500D02*
X70956000Y-63857500D01*
X62898000Y-63897500D02*
X70960000Y-63897500D01*
X62894000Y-63937500D02*
X70964000Y-63937500D01*
X62891000Y-63977500D02*
X70967000Y-63977500D01*
X62888000Y-64017500D02*
X70970000Y-64017500D01*
X62886000Y-64057500D02*
X70972000Y-64057500D01*
X62883000Y-64097500D02*
X70975000Y-64097500D01*
X62882000Y-64137500D02*
X70976000Y-64137500D01*
X62880000Y-64177500D02*
X70978000Y-64177500D01*
X62879000Y-64217500D02*
X70979000Y-64217500D01*
X62879000Y-64257500D02*
X70979000Y-64257500D01*
X62879000Y-64297500D02*
X70979000Y-64297500D01*
X71019000Y-64297500D02*
G75*
G03*
X71019000Y-64297500I-4090000J0D01*
G01*
X70767500Y-82158000D02*
X70767500Y-73398000D01*
X70767500Y-73398000D02*
X64527500Y-73398000D01*
X64527500Y-73398000D02*
X64527500Y-82158000D01*
X64527500Y-82158000D02*
X70767500Y-82158000D01*
X69047500Y-73398000D02*
X69047500Y-72928000D01*
X69047500Y-72928000D02*
X68747500Y-72928000D01*
X68747500Y-72928000D02*
X68747500Y-73398000D01*
X68747500Y-73398000D02*
X69047500Y-73398000D01*
X66547500Y-73398000D02*
X66547500Y-72928000D01*
X66547500Y-72928000D02*
X66247500Y-72928000D01*
X66247500Y-72928000D02*
X66247500Y-73398000D01*
X66247500Y-73398000D02*
X66547500Y-73398000D01*
X70297500Y-71628000D02*
X70897500Y-71328000D01*
X70897500Y-71328000D02*
X70897500Y-71928000D01*
X70897500Y-71928000D02*
X70297500Y-71628000D01*
X58971500Y-20307000D02*
X58471500Y-20307000D01*
X58971500Y-21047000D02*
X58971500Y-20307000D01*
X43411500Y-33107000D02*
X43411500Y-32107000D01*
X45411500Y-33107000D02*
X45411500Y-32107000D01*
X45411500Y-32107000D02*
X43411500Y-32107000D01*
X45411500Y-33107000D02*
X43411500Y-33107000D01*
X45456500Y-27328000D02*
X46064500Y-26719000D01*
X43023500Y-29761000D02*
X43190500Y-29593000D01*
X45114500Y-27137000D02*
X45798500Y-26453000D01*
X42757500Y-29495000D02*
X42955500Y-29297000D01*
X52911500Y-33107000D02*
X52911500Y-32107000D01*
X54911500Y-33107000D02*
X54911500Y-32107000D01*
X54911500Y-32107000D02*
X52911500Y-32107000D01*
X54911500Y-33107000D02*
X52911500Y-33107000D01*
X55231500Y-27054000D02*
X55565500Y-26719000D01*
X54691500Y-27061000D02*
X55299500Y-26453000D01*
X52257500Y-29495000D02*
X52364500Y-29388000D01*
X20571500Y-33167000D02*
X58731500Y-33167000D01*
X20571500Y-20547000D02*
X20571500Y-33167000D01*
X58731500Y-20547000D02*
X20571500Y-20547000D01*
X58731500Y-33167000D02*
X58731500Y-20547000D01*
X58731500Y-31107000D02*
X20571500Y-31107000D01*
X58731500Y-25107000D02*
X20571500Y-25107000D01*
X58731500Y-21107000D02*
X20571500Y-21107000D01*
X46591500Y-28107000D02*
G75*
G03*
X46591500Y-28107000I-2180000J0D01*
G01*
X53873555Y-25926278D02*
G75*
G02*
X55426500Y-29676000I37945J-2180722D01*
G01*
X54692711Y-30143303D02*
G75*
G02*
X53129500Y-30143000I-781211J2036303D01*
G01*
X52397145Y-29675161D02*
G75*
G02*
X53911500Y-25927000I1514355J1568161D01*
G01*
X35614500Y-27137000D02*
X36298500Y-26453000D01*
X35911500Y-33107000D02*
X33911500Y-33107000D01*
X33257500Y-29495000D02*
X33455500Y-29297000D01*
X35911500Y-33107000D02*
X35911500Y-32107000D01*
X33911500Y-33107000D02*
X33911500Y-32107000D01*
X35911500Y-32107000D02*
X33911500Y-32107000D01*
X35956500Y-27328000D02*
X36564500Y-26719000D01*
X33523500Y-29761000D02*
X33690500Y-29593000D01*
X37091500Y-28107000D02*
G75*
G03*
X37091500Y-28107000I-2180000J0D01*
G01*
X26114500Y-27137000D02*
X26798500Y-26453000D01*
X26411500Y-33107000D02*
X24411500Y-33107000D01*
X23757500Y-29495000D02*
X23955500Y-29297000D01*
X26411500Y-33107000D02*
X26411500Y-32107000D01*
X24411500Y-33107000D02*
X24411500Y-32107000D01*
X26411500Y-32107000D02*
X24411500Y-32107000D01*
X26456500Y-27328000D02*
X27064500Y-26719000D01*
X24023500Y-29761000D02*
X24190500Y-29593000D01*
X27591500Y-28107000D02*
G75*
G03*
X27591500Y-28107000I-2180000J0D01*
G01*
X55080500Y-64290000D02*
G75*
G03*
X55080500Y-64290000I-4090000J0D01*
G01*
X46940500Y-64290000D02*
X55040500Y-64290000D01*
X46940500Y-64250000D02*
X55040500Y-64250000D01*
X46940500Y-64210000D02*
X55040500Y-64210000D01*
X46941500Y-64170000D02*
X55039500Y-64170000D01*
X46943500Y-64130000D02*
X55037500Y-64130000D01*
X46944500Y-64090000D02*
X55036500Y-64090000D01*
X46947500Y-64050000D02*
X55033500Y-64050000D01*
X46949500Y-64010000D02*
X55031500Y-64010000D01*
X46952500Y-63970000D02*
X55028500Y-63970000D01*
X46955500Y-63930000D02*
X55025500Y-63930000D01*
X46959500Y-63890000D02*
X55021500Y-63890000D01*
X46963500Y-63850000D02*
X55017500Y-63850000D01*
X46968500Y-63810000D02*
X55012500Y-63810000D01*
X46973500Y-63770000D02*
X55007500Y-63770000D01*
X46978500Y-63730000D02*
X55002500Y-63730000D01*
X46984500Y-63690000D02*
X54996500Y-63690000D01*
X46990500Y-63650000D02*
X54990500Y-63650000D01*
X46996500Y-63610000D02*
X54984500Y-63610000D01*
X47003500Y-63569000D02*
X54977500Y-63569000D01*
X47011500Y-63529000D02*
X54969500Y-63529000D01*
X47019500Y-63489000D02*
X50010500Y-63489000D01*
X51970500Y-63489000D02*
X54961500Y-63489000D01*
X47027500Y-63449000D02*
X50010500Y-63449000D01*
X51970500Y-63449000D02*
X54953500Y-63449000D01*
X47035500Y-63409000D02*
X50010500Y-63409000D01*
X51970500Y-63409000D02*
X54945500Y-63409000D01*
X47044500Y-63369000D02*
X50010500Y-63369000D01*
X51970500Y-63369000D02*
X54936500Y-63369000D01*
X47054500Y-63329000D02*
X50010500Y-63329000D01*
X51970500Y-63329000D02*
X54926500Y-63329000D01*
X47064500Y-63289000D02*
X50010500Y-63289000D01*
X51970500Y-63289000D02*
X54916500Y-63289000D01*
X47074500Y-63249000D02*
X50010500Y-63249000D01*
X51970500Y-63249000D02*
X54906500Y-63249000D01*
X47085500Y-63209000D02*
X50010500Y-63209000D01*
X51970500Y-63209000D02*
X54895500Y-63209000D01*
X47096500Y-63169000D02*
X50010500Y-63169000D01*
X51970500Y-63169000D02*
X54884500Y-63169000D01*
X47107500Y-63129000D02*
X50010500Y-63129000D01*
X51970500Y-63129000D02*
X54873500Y-63129000D01*
X47120500Y-63089000D02*
X50010500Y-63089000D01*
X51970500Y-63089000D02*
X54860500Y-63089000D01*
X47132500Y-63049000D02*
X50010500Y-63049000D01*
X51970500Y-63049000D02*
X54848500Y-63049000D01*
X47145500Y-63009000D02*
X50010500Y-63009000D01*
X51970500Y-63009000D02*
X54835500Y-63009000D01*
X47158500Y-62969000D02*
X50010500Y-62969000D01*
X51970500Y-62969000D02*
X54822500Y-62969000D01*
X47172500Y-62929000D02*
X50010500Y-62929000D01*
X51970500Y-62929000D02*
X54808500Y-62929000D01*
X47187500Y-62889000D02*
X50010500Y-62889000D01*
X51970500Y-62889000D02*
X54793500Y-62889000D01*
X47201500Y-62849000D02*
X50010500Y-62849000D01*
X51970500Y-62849000D02*
X54779500Y-62849000D01*
X47217500Y-62809000D02*
X50010500Y-62809000D01*
X51970500Y-62809000D02*
X54763500Y-62809000D01*
X47232500Y-62769000D02*
X50010500Y-62769000D01*
X51970500Y-62769000D02*
X54748500Y-62769000D01*
X47249500Y-62729000D02*
X50010500Y-62729000D01*
X51970500Y-62729000D02*
X54731500Y-62729000D01*
X47265500Y-62689000D02*
X50010500Y-62689000D01*
X51970500Y-62689000D02*
X54715500Y-62689000D01*
X47283500Y-62649000D02*
X50010500Y-62649000D01*
X51970500Y-62649000D02*
X54697500Y-62649000D01*
X47300500Y-62609000D02*
X50010500Y-62609000D01*
X51970500Y-62609000D02*
X54680500Y-62609000D01*
X47319500Y-62569000D02*
X50010500Y-62569000D01*
X51970500Y-62569000D02*
X54661500Y-62569000D01*
X47338500Y-62529000D02*
X50010500Y-62529000D01*
X51970500Y-62529000D02*
X54642500Y-62529000D01*
X47357500Y-62489000D02*
X50010500Y-62489000D01*
X51970500Y-62489000D02*
X54623500Y-62489000D01*
X47377500Y-62449000D02*
X50010500Y-62449000D01*
X51970500Y-62449000D02*
X54603500Y-62449000D01*
X47397500Y-62409000D02*
X50010500Y-62409000D01*
X51970500Y-62409000D02*
X54583500Y-62409000D01*
X47418500Y-62369000D02*
X50010500Y-62369000D01*
X51970500Y-62369000D02*
X54562500Y-62369000D01*
X47440500Y-62329000D02*
X50010500Y-62329000D01*
X51970500Y-62329000D02*
X54540500Y-62329000D01*
X47462500Y-62289000D02*
X50010500Y-62289000D01*
X51970500Y-62289000D02*
X54518500Y-62289000D01*
X47485500Y-62249000D02*
X50010500Y-62249000D01*
X51970500Y-62249000D02*
X54495500Y-62249000D01*
X47508500Y-62209000D02*
X50010500Y-62209000D01*
X51970500Y-62209000D02*
X54472500Y-62209000D01*
X47532500Y-62169000D02*
X50010500Y-62169000D01*
X51970500Y-62169000D02*
X54448500Y-62169000D01*
X47556500Y-62129000D02*
X50010500Y-62129000D01*
X51970500Y-62129000D02*
X54424500Y-62129000D01*
X47582500Y-62089000D02*
X50010500Y-62089000D01*
X51970500Y-62089000D02*
X54398500Y-62089000D01*
X47607500Y-62049000D02*
X50010500Y-62049000D01*
X51970500Y-62049000D02*
X54373500Y-62049000D01*
X47634500Y-62009000D02*
X50010500Y-62009000D01*
X51970500Y-62009000D02*
X54346500Y-62009000D01*
X47661500Y-61969000D02*
X50010500Y-61969000D01*
X51970500Y-61969000D02*
X54319500Y-61969000D01*
X47689500Y-61929000D02*
X50010500Y-61929000D01*
X51970500Y-61929000D02*
X54291500Y-61929000D01*
X47718500Y-61889000D02*
X50010500Y-61889000D01*
X51970500Y-61889000D02*
X54262500Y-61889000D01*
X47747500Y-61849000D02*
X50010500Y-61849000D01*
X51970500Y-61849000D02*
X54233500Y-61849000D01*
X47777500Y-61809000D02*
X50010500Y-61809000D01*
X51970500Y-61809000D02*
X54203500Y-61809000D01*
X47808500Y-61769000D02*
X50010500Y-61769000D01*
X51970500Y-61769000D02*
X54172500Y-61769000D01*
X47840500Y-61729000D02*
X50010500Y-61729000D01*
X51970500Y-61729000D02*
X54140500Y-61729000D01*
X47872500Y-61689000D02*
X50010500Y-61689000D01*
X51970500Y-61689000D02*
X54108500Y-61689000D01*
X47906500Y-61649000D02*
X50010500Y-61649000D01*
X51970500Y-61649000D02*
X54074500Y-61649000D01*
X47940500Y-61609000D02*
X50010500Y-61609000D01*
X51970500Y-61609000D02*
X54040500Y-61609000D01*
X47975500Y-61569000D02*
X50010500Y-61569000D01*
X51970500Y-61569000D02*
X54005500Y-61569000D01*
X48011500Y-61529000D02*
X53969500Y-61529000D01*
X48048500Y-61489000D02*
X53932500Y-61489000D01*
X48086500Y-61449000D02*
X53894500Y-61449000D01*
X48125500Y-61409000D02*
X53855500Y-61409000D01*
X48166500Y-61369000D02*
X53814500Y-61369000D01*
X48207500Y-61329000D02*
X53773500Y-61329000D01*
X48250500Y-61289000D02*
X53730500Y-61289000D01*
X48293500Y-61249000D02*
X53687500Y-61249000D01*
X48338500Y-61209000D02*
X53642500Y-61209000D01*
X48385500Y-61169000D02*
X53595500Y-61169000D01*
X48433500Y-61129000D02*
X53547500Y-61129000D01*
X48482500Y-61089000D02*
X53498500Y-61089000D01*
X48533500Y-61049000D02*
X53447500Y-61049000D01*
X48586500Y-61009000D02*
X53394500Y-61009000D01*
X48641500Y-60969000D02*
X53339500Y-60969000D01*
X48697500Y-60929000D02*
X53283500Y-60929000D01*
X48756500Y-60889000D02*
X53224500Y-60889000D01*
X48817500Y-60849000D02*
X53163500Y-60849000D01*
X48881500Y-60809000D02*
X53099500Y-60809000D01*
X48947500Y-60769000D02*
X53033500Y-60769000D01*
X49016500Y-60729000D02*
X52964500Y-60729000D01*
X49088500Y-60689000D02*
X52892500Y-60689000D01*
X49164500Y-60649000D02*
X52816500Y-60649000D01*
X49245500Y-60609000D02*
X52735500Y-60609000D01*
X49330500Y-60569000D02*
X52650500Y-60569000D01*
X49420500Y-60529000D02*
X52560500Y-60529000D01*
X49517500Y-60489000D02*
X52463500Y-60489000D01*
X49621500Y-60449000D02*
X52359500Y-60449000D01*
X49736500Y-60409000D02*
X52244500Y-60409000D01*
X49863500Y-60369000D02*
X52117500Y-60369000D01*
X50007500Y-60329000D02*
X51973500Y-60329000D01*
X50176500Y-60289000D02*
X51804500Y-60289000D01*
X50392500Y-60249000D02*
X51588500Y-60249000D01*
X50744500Y-60209000D02*
X51236500Y-60209000D01*
X50990500Y-68240000D02*
X50990500Y-67040000D01*
X50340500Y-67640000D02*
X51640500Y-67640000D01*
X33560000Y-59769000D02*
X37560000Y-59769000D01*
X20240000Y-59389000D02*
X20240000Y-33789000D01*
X20240000Y-33789000D02*
X71280000Y-33789000D01*
X71280000Y-33789000D02*
X71280000Y-59389000D01*
X71280000Y-59389000D02*
X20240000Y-59389000D01*
X46442500Y-82130000D02*
X37002500Y-82130000D01*
X46442500Y-60090000D02*
X46442500Y-82130000D01*
X37002500Y-60090000D02*
X46442500Y-60090000D01*
X37002500Y-82130000D02*
X37002500Y-60090000D01*
X39322500Y-82510000D02*
X41322500Y-82510000D01*
X56341500Y-65078500D02*
X61561500Y-65078500D01*
X56341500Y-68398500D02*
X61561500Y-68398500D01*
X56341500Y-65078500D02*
X56341500Y-65742500D01*
X56341500Y-67734500D02*
X56341500Y-68398500D01*
X61561500Y-65078500D02*
X61561500Y-65742500D01*
X61561500Y-67734500D02*
X61561500Y-68398500D01*
X61561500Y-62654500D02*
X61561500Y-63318500D01*
X61561500Y-59998500D02*
X61561500Y-60662500D01*
X56341500Y-62654500D02*
X56341500Y-63318500D01*
X56341500Y-59998500D02*
X56341500Y-60662500D01*
X56341500Y-63318500D02*
X61561500Y-63318500D01*
X56341500Y-59998500D02*
X61561500Y-59998500D01*
X59716000Y-25630500D02*
X64236000Y-25630500D01*
X59716000Y-33250500D02*
X64236000Y-33250500D01*
X64236000Y-33250500D02*
X64236000Y-25630500D01*
X59716000Y-33250500D02*
X59716000Y-25630500D01*
X34494500Y-68845000D02*
X34494500Y-67045000D01*
X35394500Y-67945000D02*
X33594500Y-67945000D01*
X20363500Y-68308000D02*
X20363500Y-67582000D01*
X20403500Y-68804000D02*
X20403500Y-67086000D01*
X20443500Y-69109000D02*
X20443500Y-66781000D01*
X20483500Y-69350000D02*
X20483500Y-66540000D01*
X20523500Y-69555000D02*
X20523500Y-66335000D01*
X20563500Y-69737000D02*
X20563500Y-66153000D01*
X20603500Y-69901000D02*
X20603500Y-65989000D01*
X20643500Y-70052000D02*
X20643500Y-65838000D01*
X20683500Y-70193000D02*
X20683500Y-65697000D01*
X20723500Y-70324000D02*
X20723500Y-65566000D01*
X20763500Y-70448000D02*
X20763500Y-65442000D01*
X20803500Y-70566000D02*
X20803500Y-65324000D01*
X20843500Y-70678000D02*
X20843500Y-65212000D01*
X20883500Y-70786000D02*
X20883500Y-65104000D01*
X20923500Y-70888000D02*
X20923500Y-65002000D01*
X20963500Y-70987000D02*
X20963500Y-64903000D01*
X21003500Y-71083000D02*
X21003500Y-64807000D01*
X21043500Y-71175000D02*
X21043500Y-64715000D01*
X21083500Y-71264000D02*
X21083500Y-64626000D01*
X21123500Y-71350000D02*
X21123500Y-64540000D01*
X21163500Y-71434000D02*
X21163500Y-64456000D01*
X21203500Y-71515000D02*
X21203500Y-64375000D01*
X21243500Y-71594000D02*
X21243500Y-64296000D01*
X21283500Y-71671000D02*
X21283500Y-64219000D01*
X21323500Y-71747000D02*
X21323500Y-64143000D01*
X21363500Y-71820000D02*
X21363500Y-64070000D01*
X21403500Y-71891000D02*
X21403500Y-63999000D01*
X21443500Y-71961000D02*
X21443500Y-63929000D01*
X21483500Y-72029000D02*
X21483500Y-63861000D01*
X21523500Y-72096000D02*
X21523500Y-63794000D01*
X21563500Y-72162000D02*
X21563500Y-63728000D01*
X21603500Y-72226000D02*
X21603500Y-63664000D01*
X21643500Y-72288000D02*
X21643500Y-63602000D01*
X21683500Y-72350000D02*
X21683500Y-63540000D01*
X21723500Y-72410000D02*
X21723500Y-63480000D01*
X21763500Y-72469000D02*
X21763500Y-63421000D01*
X21803500Y-72527000D02*
X21803500Y-63363000D01*
X21843500Y-72584000D02*
X21843500Y-63306000D01*
X21883500Y-72640000D02*
X21883500Y-63250000D01*
X21923500Y-72695000D02*
X21923500Y-63195000D01*
X21963500Y-72749000D02*
X21963500Y-63141000D01*
X22003500Y-72802000D02*
X22003500Y-63088000D01*
X22043500Y-72854000D02*
X22043500Y-63036000D01*
X22083500Y-72905000D02*
X22083500Y-62985000D01*
X22123500Y-72956000D02*
X22123500Y-62934000D01*
X22163500Y-73005000D02*
X22163500Y-62885000D01*
X22203500Y-73054000D02*
X22203500Y-62836000D01*
X22243500Y-73102000D02*
X22243500Y-62788000D01*
X22283500Y-73150000D02*
X22283500Y-62740000D01*
X22323500Y-73196000D02*
X22323500Y-62694000D01*
X22363500Y-73242000D02*
X22363500Y-62648000D01*
X22403500Y-73288000D02*
X22403500Y-62602000D01*
X22443500Y-73332000D02*
X22443500Y-62558000D01*
X22483500Y-73376000D02*
X22483500Y-62514000D01*
X22523500Y-73419000D02*
X22523500Y-62471000D01*
X22563500Y-73462000D02*
X22563500Y-62428000D01*
X22603500Y-73504000D02*
X22603500Y-62386000D01*
X22643500Y-73545000D02*
X22643500Y-62345000D01*
X22683500Y-73586000D02*
X22683500Y-62304000D01*
X22723500Y-73626000D02*
X22723500Y-62264000D01*
X22763500Y-73666000D02*
X22763500Y-62224000D01*
X22803500Y-73705000D02*
X22803500Y-62185000D01*
X22843500Y-73744000D02*
X22843500Y-62146000D01*
X22883500Y-73782000D02*
X22883500Y-62108000D01*
X22923500Y-73820000D02*
X22923500Y-62070000D01*
X22963500Y-73857000D02*
X22963500Y-62033000D01*
X23003500Y-73893000D02*
X23003500Y-61997000D01*
X23043500Y-73929000D02*
X23043500Y-61961000D01*
X23083500Y-73965000D02*
X23083500Y-61925000D01*
X23123500Y-74000000D02*
X23123500Y-61890000D01*
X23163500Y-74035000D02*
X23163500Y-61855000D01*
X23203500Y-74069000D02*
X23203500Y-61821000D01*
X23243500Y-74103000D02*
X23243500Y-61787000D01*
X23283500Y-74136000D02*
X23283500Y-61754000D01*
X23323500Y-66565000D02*
X23323500Y-61721000D01*
X23323500Y-74169000D02*
X23323500Y-69325000D01*
X23363500Y-66565000D02*
X23363500Y-61688000D01*
X23363500Y-74202000D02*
X23363500Y-69325000D01*
X23403500Y-66565000D02*
X23403500Y-61656000D01*
X23403500Y-74234000D02*
X23403500Y-69325000D01*
X23443500Y-66565000D02*
X23443500Y-61625000D01*
X23443500Y-74265000D02*
X23443500Y-69325000D01*
X23483500Y-66565000D02*
X23483500Y-61593000D01*
X23483500Y-74297000D02*
X23483500Y-69325000D01*
X23523500Y-66565000D02*
X23523500Y-61563000D01*
X23523500Y-74327000D02*
X23523500Y-69325000D01*
X23563500Y-66565000D02*
X23563500Y-61532000D01*
X23563500Y-74358000D02*
X23563500Y-69325000D01*
X23603500Y-66565000D02*
X23603500Y-61502000D01*
X23603500Y-74388000D02*
X23603500Y-69325000D01*
X23643500Y-66565000D02*
X23643500Y-61472000D01*
X23643500Y-74418000D02*
X23643500Y-69325000D01*
X23683500Y-66565000D02*
X23683500Y-61443000D01*
X23683500Y-74447000D02*
X23683500Y-69325000D01*
X23723500Y-66565000D02*
X23723500Y-61414000D01*
X23723500Y-74476000D02*
X23723500Y-69325000D01*
X23763500Y-66565000D02*
X23763500Y-61386000D01*
X23763500Y-74504000D02*
X23763500Y-69325000D01*
X23803500Y-66565000D02*
X23803500Y-61357000D01*
X23803500Y-74533000D02*
X23803500Y-69325000D01*
X23843500Y-66565000D02*
X23843500Y-61330000D01*
X23843500Y-74560000D02*
X23843500Y-69325000D01*
X23883500Y-66565000D02*
X23883500Y-61302000D01*
X23883500Y-74588000D02*
X23883500Y-69325000D01*
X23923500Y-66565000D02*
X23923500Y-61275000D01*
X23923500Y-74615000D02*
X23923500Y-69325000D01*
X23963500Y-66565000D02*
X23963500Y-61248000D01*
X23963500Y-74642000D02*
X23963500Y-69325000D01*
X24003500Y-66565000D02*
X24003500Y-61222000D01*
X24003500Y-74668000D02*
X24003500Y-69325000D01*
X24043500Y-66565000D02*
X24043500Y-61196000D01*
X24043500Y-74694000D02*
X24043500Y-69325000D01*
X24083500Y-66565000D02*
X24083500Y-61170000D01*
X24083500Y-74720000D02*
X24083500Y-69325000D01*
X24123500Y-66565000D02*
X24123500Y-61144000D01*
X24123500Y-74746000D02*
X24123500Y-69325000D01*
X24163500Y-66565000D02*
X24163500Y-61119000D01*
X24163500Y-74771000D02*
X24163500Y-69325000D01*
X24203500Y-66565000D02*
X24203500Y-61095000D01*
X24203500Y-74795000D02*
X24203500Y-69325000D01*
X24243500Y-66565000D02*
X24243500Y-61070000D01*
X24243500Y-74820000D02*
X24243500Y-69325000D01*
X24283500Y-66565000D02*
X24283500Y-61046000D01*
X24283500Y-74844000D02*
X24283500Y-69325000D01*
X24323500Y-66565000D02*
X24323500Y-61022000D01*
X24323500Y-74868000D02*
X24323500Y-69325000D01*
X24363500Y-66565000D02*
X24363500Y-60999000D01*
X24363500Y-74891000D02*
X24363500Y-69325000D01*
X24403500Y-66565000D02*
X24403500Y-60975000D01*
X24403500Y-74915000D02*
X24403500Y-69325000D01*
X24443500Y-66565000D02*
X24443500Y-60953000D01*
X24443500Y-74937000D02*
X24443500Y-69325000D01*
X24483500Y-66565000D02*
X24483500Y-60930000D01*
X24483500Y-74960000D02*
X24483500Y-69325000D01*
X24523500Y-66565000D02*
X24523500Y-60908000D01*
X24523500Y-74982000D02*
X24523500Y-69325000D01*
X24563500Y-66565000D02*
X24563500Y-60886000D01*
X24563500Y-75004000D02*
X24563500Y-69325000D01*
X24603500Y-66565000D02*
X24603500Y-60864000D01*
X24603500Y-75026000D02*
X24603500Y-69325000D01*
X24643500Y-66565000D02*
X24643500Y-60843000D01*
X24643500Y-75047000D02*
X24643500Y-69325000D01*
X24683500Y-66565000D02*
X24683500Y-60821000D01*
X24683500Y-75069000D02*
X24683500Y-69325000D01*
X24723500Y-66565000D02*
X24723500Y-60801000D01*
X24723500Y-75089000D02*
X24723500Y-69325000D01*
X24763500Y-66565000D02*
X24763500Y-60780000D01*
X24763500Y-75110000D02*
X24763500Y-69325000D01*
X24803500Y-66565000D02*
X24803500Y-60760000D01*
X24803500Y-75130000D02*
X24803500Y-69325000D01*
X24843500Y-66565000D02*
X24843500Y-60740000D01*
X24843500Y-75150000D02*
X24843500Y-69325000D01*
X24883500Y-66565000D02*
X24883500Y-60720000D01*
X24883500Y-75170000D02*
X24883500Y-69325000D01*
X24923500Y-66565000D02*
X24923500Y-60700000D01*
X24923500Y-75190000D02*
X24923500Y-69325000D01*
X24963500Y-66565000D02*
X24963500Y-60681000D01*
X24963500Y-75209000D02*
X24963500Y-69325000D01*
X25003500Y-66565000D02*
X25003500Y-60662000D01*
X25003500Y-75228000D02*
X25003500Y-69325000D01*
X25043500Y-66565000D02*
X25043500Y-60644000D01*
X25043500Y-75246000D02*
X25043500Y-69325000D01*
X25083500Y-66565000D02*
X25083500Y-60625000D01*
X25083500Y-75265000D02*
X25083500Y-69325000D01*
X25123500Y-66565000D02*
X25123500Y-60607000D01*
X25123500Y-75283000D02*
X25123500Y-69325000D01*
X25163500Y-66565000D02*
X25163500Y-60589000D01*
X25163500Y-75301000D02*
X25163500Y-69325000D01*
X25203500Y-66565000D02*
X25203500Y-60572000D01*
X25203500Y-75318000D02*
X25203500Y-69325000D01*
X25243500Y-66565000D02*
X25243500Y-60554000D01*
X25243500Y-75336000D02*
X25243500Y-69325000D01*
X25283500Y-66565000D02*
X25283500Y-60537000D01*
X25283500Y-75353000D02*
X25283500Y-69325000D01*
X25323500Y-66565000D02*
X25323500Y-60520000D01*
X25323500Y-75370000D02*
X25323500Y-69325000D01*
X25363500Y-66565000D02*
X25363500Y-60504000D01*
X25363500Y-75386000D02*
X25363500Y-69325000D01*
X25403500Y-66565000D02*
X25403500Y-60487000D01*
X25403500Y-75403000D02*
X25403500Y-69325000D01*
X25443500Y-66565000D02*
X25443500Y-60471000D01*
X25443500Y-75419000D02*
X25443500Y-69325000D01*
X25483500Y-66565000D02*
X25483500Y-60455000D01*
X25483500Y-75435000D02*
X25483500Y-69325000D01*
X25523500Y-66565000D02*
X25523500Y-60440000D01*
X25523500Y-75450000D02*
X25523500Y-69325000D01*
X25563500Y-66565000D02*
X25563500Y-60424000D01*
X25563500Y-75466000D02*
X25563500Y-69325000D01*
X25603500Y-66565000D02*
X25603500Y-60409000D01*
X25603500Y-75481000D02*
X25603500Y-69325000D01*
X25643500Y-66565000D02*
X25643500Y-60395000D01*
X25643500Y-75495000D02*
X25643500Y-69325000D01*
X25683500Y-66565000D02*
X25683500Y-60380000D01*
X25683500Y-75510000D02*
X25683500Y-69325000D01*
X25723500Y-66565000D02*
X25723500Y-60365000D01*
X25723500Y-75525000D02*
X25723500Y-69325000D01*
X25763500Y-66565000D02*
X25763500Y-60351000D01*
X25763500Y-75539000D02*
X25763500Y-69325000D01*
X25803500Y-66565000D02*
X25803500Y-60337000D01*
X25803500Y-75553000D02*
X25803500Y-69325000D01*
X25843500Y-66565000D02*
X25843500Y-60324000D01*
X25843500Y-75566000D02*
X25843500Y-69325000D01*
X25883500Y-66565000D02*
X25883500Y-60310000D01*
X25883500Y-75580000D02*
X25883500Y-69325000D01*
X25923500Y-66565000D02*
X25923500Y-60297000D01*
X25923500Y-75593000D02*
X25923500Y-69325000D01*
X25963500Y-66565000D02*
X25963500Y-60284000D01*
X25963500Y-75606000D02*
X25963500Y-69325000D01*
X26003500Y-66565000D02*
X26003500Y-60271000D01*
X26003500Y-75619000D02*
X26003500Y-69325000D01*
X26043500Y-66565000D02*
X26043500Y-60259000D01*
X26043500Y-75631000D02*
X26043500Y-69325000D01*
X26083500Y-75644000D02*
X26083500Y-60246000D01*
X26123500Y-75656000D02*
X26123500Y-60234000D01*
X26163500Y-75668000D02*
X26163500Y-60222000D01*
X26203500Y-75679000D02*
X26203500Y-60211000D01*
X26243500Y-75691000D02*
X26243500Y-60199000D01*
X26283500Y-75702000D02*
X26283500Y-60188000D01*
X26323500Y-75713000D02*
X26323500Y-60177000D01*
X26363500Y-75724000D02*
X26363500Y-60166000D01*
X26403500Y-75734000D02*
X26403500Y-60156000D01*
X26443500Y-75744000D02*
X26443500Y-60146000D01*
X26483500Y-75754000D02*
X26483500Y-60136000D01*
X26523500Y-75764000D02*
X26523500Y-60126000D01*
X26563500Y-75774000D02*
X26563500Y-60116000D01*
X26603500Y-75783000D02*
X26603500Y-60107000D01*
X26643500Y-75793000D02*
X26643500Y-60097000D01*
X26683500Y-75802000D02*
X26683500Y-60088000D01*
X26723500Y-75811000D02*
X26723500Y-60079000D01*
X26763500Y-75819000D02*
X26763500Y-60071000D01*
X26803500Y-75828000D02*
X26803500Y-60062000D01*
X26843500Y-75836000D02*
X26843500Y-60054000D01*
X26883500Y-75844000D02*
X26883500Y-60046000D01*
X26923500Y-75851000D02*
X26923500Y-60039000D01*
X26963500Y-75859000D02*
X26963500Y-60031000D01*
X27003500Y-75866000D02*
X27003500Y-60024000D01*
X27043500Y-75873000D02*
X27043500Y-60017000D01*
X27083500Y-75880000D02*
X27083500Y-60010000D01*
X27123500Y-75887000D02*
X27123500Y-60003000D01*
X27163500Y-75894000D02*
X27163500Y-59996000D01*
X27203500Y-75900000D02*
X27203500Y-59990000D01*
X27243500Y-75906000D02*
X27243500Y-59984000D01*
X27283500Y-75912000D02*
X27283500Y-59978000D01*
X27323500Y-75918000D02*
X27323500Y-59972000D01*
X27363500Y-75923000D02*
X27363500Y-59967000D01*
X27403500Y-75928000D02*
X27403500Y-59962000D01*
X27443500Y-75933000D02*
X27443500Y-59957000D01*
X27483500Y-75938000D02*
X27483500Y-59952000D01*
X27523500Y-75943000D02*
X27523500Y-59947000D01*
X27563500Y-75947000D02*
X27563500Y-59943000D01*
X27603500Y-75952000D02*
X27603500Y-59938000D01*
X27643500Y-75956000D02*
X27643500Y-59934000D01*
X27683500Y-75960000D02*
X27683500Y-59930000D01*
X27723500Y-75963000D02*
X27723500Y-59927000D01*
X27764500Y-75967000D02*
X27764500Y-59923000D01*
X27804500Y-75970000D02*
X27804500Y-59920000D01*
X27844500Y-75973000D02*
X27844500Y-59917000D01*
X27884500Y-75976000D02*
X27884500Y-59914000D01*
X27924500Y-75979000D02*
X27924500Y-59911000D01*
X27964500Y-75981000D02*
X27964500Y-59909000D01*
X28004500Y-75984000D02*
X28004500Y-59906000D01*
X28044500Y-75986000D02*
X28044500Y-59904000D01*
X28084500Y-75987000D02*
X28084500Y-59903000D01*
X28124500Y-75989000D02*
X28124500Y-59901000D01*
X28164500Y-75991000D02*
X28164500Y-59899000D01*
X28204500Y-75992000D02*
X28204500Y-59898000D01*
X28244500Y-75993000D02*
X28244500Y-59897000D01*
X28284500Y-75994000D02*
X28284500Y-59896000D01*
X28324500Y-75995000D02*
X28324500Y-59895000D01*
X28364500Y-75995000D02*
X28364500Y-59895000D01*
X28404500Y-75995000D02*
X28404500Y-59895000D01*
X28444500Y-75996000D02*
X28444500Y-59894000D01*
X36534500Y-67945000D02*
G75*
G03*
X36534500Y-67945000I-8090000J0D01*
G01*
X46880500Y-82279000D02*
X46880500Y-68929000D01*
X46880500Y-68929000D02*
X63880500Y-68929000D01*
X63880500Y-68929000D02*
X63880500Y-82279000D01*
X63880500Y-82279000D02*
X46880500Y-82279000D01*
D11*
X61976142Y-64464166D02*
X62023761Y-64511785D01*
X62071380Y-64654642D01*
X62071380Y-64749880D01*
X62023761Y-64892738D01*
X61928523Y-64987976D01*
X61833285Y-65035595D01*
X61642809Y-65083214D01*
X61499952Y-65083214D01*
X61309476Y-65035595D01*
X61214238Y-64987976D01*
X61119000Y-64892738D01*
X61071380Y-64749880D01*
X61071380Y-64654642D01*
X61119000Y-64511785D01*
X61166619Y-64464166D01*
X61071380Y-63559404D02*
X61071380Y-64035595D01*
X61547571Y-64083214D01*
X61499952Y-64035595D01*
X61452333Y-63940357D01*
X61452333Y-63702261D01*
X61499952Y-63607023D01*
X61547571Y-63559404D01*
X61642809Y-63511785D01*
X61880904Y-63511785D01*
X61976142Y-63559404D01*
X62023761Y-63607023D01*
X62071380Y-63702261D01*
X62071380Y-63940357D01*
X62023761Y-64035595D01*
X61976142Y-64083214D01*
X67314166Y-68880380D02*
X67314166Y-69594666D01*
X67266547Y-69737523D01*
X67171309Y-69832761D01*
X67028452Y-69880380D01*
X66933214Y-69880380D01*
X68314166Y-69880380D02*
X67742738Y-69880380D01*
X68028452Y-69880380D02*
X68028452Y-68880380D01*
X67933214Y-69023238D01*
X67837976Y-69118476D01*
X67742738Y-69166095D01*
X59928166Y-21867880D02*
X59928166Y-22582166D01*
X59880547Y-22725023D01*
X59785309Y-22820261D01*
X59642452Y-22867880D01*
X59547214Y-22867880D01*
X60356738Y-21963119D02*
X60404357Y-21915500D01*
X60499595Y-21867880D01*
X60737690Y-21867880D01*
X60832928Y-21915500D01*
X60880547Y-21963119D01*
X60928166Y-22058357D01*
X60928166Y-22153595D01*
X60880547Y-22296452D01*
X60309119Y-22867880D01*
X60928166Y-22867880D01*
X47458333Y-60936142D02*
X47410714Y-60983761D01*
X47267857Y-61031380D01*
X47172619Y-61031380D01*
X47029761Y-60983761D01*
X46934523Y-60888523D01*
X46886904Y-60793285D01*
X46839285Y-60602809D01*
X46839285Y-60459952D01*
X46886904Y-60269476D01*
X46934523Y-60174238D01*
X47029761Y-60079000D01*
X47172619Y-60031380D01*
X47267857Y-60031380D01*
X47410714Y-60079000D01*
X47458333Y-60126619D01*
X47791666Y-60031380D02*
X48458333Y-60031380D01*
X48029761Y-61031380D01*
X65278095Y-32408880D02*
X65278095Y-33218404D01*
X65325714Y-33313642D01*
X65373333Y-33361261D01*
X65468571Y-33408880D01*
X65659047Y-33408880D01*
X65754285Y-33361261D01*
X65801904Y-33313642D01*
X65849523Y-33218404D01*
X65849523Y-32408880D01*
X66278095Y-32504119D02*
X66325714Y-32456500D01*
X66420952Y-32408880D01*
X66659047Y-32408880D01*
X66754285Y-32456500D01*
X66801904Y-32504119D01*
X66849523Y-32599357D01*
X66849523Y-32694595D01*
X66801904Y-32837452D01*
X66230476Y-33408880D01*
X66849523Y-33408880D01*
X35115595Y-76795380D02*
X35115595Y-77604904D01*
X35163214Y-77700142D01*
X35210833Y-77747761D01*
X35306071Y-77795380D01*
X35496547Y-77795380D01*
X35591785Y-77747761D01*
X35639404Y-77700142D01*
X35687023Y-77604904D01*
X35687023Y-76795380D01*
X36687023Y-77795380D02*
X36115595Y-77795380D01*
X36401309Y-77795380D02*
X36401309Y-76795380D01*
X36306071Y-76938238D01*
X36210833Y-77033476D01*
X36115595Y-77081095D01*
X62888833Y-68429142D02*
X62841214Y-68476761D01*
X62698357Y-68524380D01*
X62603119Y-68524380D01*
X62460261Y-68476761D01*
X62365023Y-68381523D01*
X62317404Y-68286285D01*
X62269785Y-68095809D01*
X62269785Y-67952952D01*
X62317404Y-67762476D01*
X62365023Y-67667238D01*
X62460261Y-67572000D01*
X62603119Y-67524380D01*
X62698357Y-67524380D01*
X62841214Y-67572000D01*
X62888833Y-67619619D01*
X63460261Y-67952952D02*
X63365023Y-67905333D01*
X63317404Y-67857714D01*
X63269785Y-67762476D01*
X63269785Y-67714857D01*
X63317404Y-67619619D01*
X63365023Y-67572000D01*
X63460261Y-67524380D01*
X63650738Y-67524380D01*
X63745976Y-67572000D01*
X63793595Y-67619619D01*
X63841214Y-67714857D01*
X63841214Y-67762476D01*
X63793595Y-67857714D01*
X63745976Y-67905333D01*
X63650738Y-67952952D01*
X63460261Y-67952952D01*
X63365023Y-68000571D01*
X63317404Y-68048190D01*
X63269785Y-68143428D01*
X63269785Y-68333904D01*
X63317404Y-68429142D01*
X63365023Y-68476761D01*
X63460261Y-68524380D01*
X63650738Y-68524380D01*
X63745976Y-68476761D01*
X63793595Y-68429142D01*
X63841214Y-68333904D01*
X63841214Y-68143428D01*
X63793595Y-68048190D01*
X63745976Y-68000571D01*
X63650738Y-67952952D01*
X54697333Y-60618642D02*
X54649714Y-60666261D01*
X54506857Y-60713880D01*
X54411619Y-60713880D01*
X54268761Y-60666261D01*
X54173523Y-60571023D01*
X54125904Y-60475785D01*
X54078285Y-60285309D01*
X54078285Y-60142452D01*
X54125904Y-59951976D01*
X54173523Y-59856738D01*
X54268761Y-59761500D01*
X54411619Y-59713880D01*
X54506857Y-59713880D01*
X54649714Y-59761500D01*
X54697333Y-59809119D01*
X55554476Y-59713880D02*
X55364000Y-59713880D01*
X55268761Y-59761500D01*
X55221142Y-59809119D01*
X55125904Y-59951976D01*
X55078285Y-60142452D01*
X55078285Y-60523404D01*
X55125904Y-60618642D01*
X55173523Y-60666261D01*
X55268761Y-60713880D01*
X55459238Y-60713880D01*
X55554476Y-60666261D01*
X55602095Y-60618642D01*
X55649714Y-60523404D01*
X55649714Y-60285309D01*
X55602095Y-60190071D01*
X55554476Y-60142452D01*
X55459238Y-60094833D01*
X55268761Y-60094833D01*
X55173523Y-60142452D01*
X55125904Y-60190071D01*
X55078285Y-60285309D01*
X61809333Y-24804642D02*
X61761714Y-24852261D01*
X61618857Y-24899880D01*
X61523619Y-24899880D01*
X61380761Y-24852261D01*
X61285523Y-24757023D01*
X61237904Y-24661785D01*
X61190285Y-24471309D01*
X61190285Y-24328452D01*
X61237904Y-24137976D01*
X61285523Y-24042738D01*
X61380761Y-23947500D01*
X61523619Y-23899880D01*
X61618857Y-23899880D01*
X61761714Y-23947500D01*
X61809333Y-23995119D01*
X62666476Y-24233214D02*
X62666476Y-24899880D01*
X62428380Y-23852261D02*
X62190285Y-24566547D01*
X62809333Y-24566547D01*
X28471833Y-77509642D02*
X28424214Y-77557261D01*
X28281357Y-77604880D01*
X28186119Y-77604880D01*
X28043261Y-77557261D01*
X27948023Y-77462023D01*
X27900404Y-77366785D01*
X27852785Y-77176309D01*
X27852785Y-77033452D01*
X27900404Y-76842976D01*
X27948023Y-76747738D01*
X28043261Y-76652500D01*
X28186119Y-76604880D01*
X28281357Y-76604880D01*
X28424214Y-76652500D01*
X28471833Y-76700119D01*
X28805166Y-76604880D02*
X29424214Y-76604880D01*
X29090880Y-76985833D01*
X29233738Y-76985833D01*
X29328976Y-77033452D01*
X29376595Y-77081071D01*
X29424214Y-77176309D01*
X29424214Y-77414404D01*
X29376595Y-77509642D01*
X29328976Y-77557261D01*
X29233738Y-77604880D01*
X28948023Y-77604880D01*
X28852785Y-77557261D01*
X28805166Y-77509642D01*
X54213166Y-67460880D02*
X54213166Y-68175166D01*
X54165547Y-68318023D01*
X54070309Y-68413261D01*
X53927452Y-68460880D01*
X53832214Y-68460880D01*
X54594119Y-67460880D02*
X55213166Y-67460880D01*
X54879833Y-67841833D01*
X55022690Y-67841833D01*
X55117928Y-67889452D01*
X55165547Y-67937071D01*
X55213166Y-68032309D01*
X55213166Y-68270404D01*
X55165547Y-68365642D01*
X55117928Y-68413261D01*
X55022690Y-68460880D01*
X54736976Y-68460880D01*
X54641738Y-68413261D01*
X54594119Y-68365642D01*
M02*
