G04 #@! TF.GenerationSoftware,KiCad,Pcbnew,(5.99.0-576-ga860ac506)*
G04 #@! TF.CreationDate,2021-04-05T16:40:01+02:00*
G04 #@! TF.ProjectId,8 Inch Floppy Power Supply,3820496e-6368-4204-966c-6f7070792050,rev?*
G04 #@! TF.SameCoordinates,Original*
G04 #@! TF.FileFunction,Other,User*
%FSLAX46Y46*%
G04 Gerber Fmt 4.6, Leading zero omitted, Abs format (unit mm)*
G04 Created by KiCad (PCBNEW (5.99.0-576-ga860ac506)) date 2021-04-05 16:40:01*
%MOMM*%
%LPD*%
G04 APERTURE LIST*
%ADD10C,0.050000*%
G04 APERTURE END LIST*
D10*
X62579000Y-59947500D02*
X62579000Y-68647500D01*
X71279000Y-59947500D02*
X62579000Y-59947500D01*
X71279000Y-68647500D02*
X71279000Y-59947500D01*
X62579000Y-68647500D02*
X71279000Y-68647500D01*
X24000000Y-81000000D02*
G75*
G03*
X24000000Y-81000000I-2000000J0D01*
G01*
X71500000Y-22000000D02*
G75*
G03*
X71500000Y-22000000I-2000000J0D01*
G01*
X71107500Y-82508000D02*
X71107500Y-70178000D01*
X71107500Y-70178000D02*
X64187500Y-70178000D01*
X64187500Y-70178000D02*
X64187500Y-82508000D01*
X64187500Y-82508000D02*
X71107500Y-82508000D01*
X20111500Y-33607000D02*
X59211500Y-33607000D01*
X20111500Y-20107000D02*
X20111500Y-33607000D01*
X59211500Y-20107000D02*
X20111500Y-20107000D01*
X59211500Y-33607000D02*
X59211500Y-20107000D01*
X46640500Y-68640000D02*
X55340500Y-68640000D01*
X55340500Y-68640000D02*
X55340500Y-59940000D01*
X55340500Y-59940000D02*
X46640500Y-59940000D01*
X46640500Y-59940000D02*
X46640500Y-68640000D01*
X71410000Y-33659000D02*
X20110000Y-33659000D01*
X71410000Y-59519000D02*
X20110000Y-59519000D01*
X20110000Y-59519000D02*
X20110000Y-33659000D01*
X71410000Y-59519000D02*
X71410000Y-33659000D01*
X36872500Y-82260000D02*
X46572500Y-82260000D01*
X36872500Y-82260000D02*
X36872500Y-59960000D01*
X46572500Y-82260000D02*
X46572500Y-59960000D01*
X36872500Y-59960000D02*
X46572500Y-59960000D01*
X55401500Y-64788500D02*
X55401500Y-68688500D01*
X55401500Y-68688500D02*
X62501500Y-68688500D01*
X62501500Y-68688500D02*
X62501500Y-64788500D01*
X62501500Y-64788500D02*
X55401500Y-64788500D01*
X62501500Y-59708500D02*
X55401500Y-59708500D01*
X62501500Y-63608500D02*
X62501500Y-59708500D01*
X55401500Y-63608500D02*
X62501500Y-63608500D01*
X55401500Y-59708500D02*
X55401500Y-63608500D01*
X59426000Y-25340500D02*
X59426000Y-33540500D01*
X64526000Y-25340500D02*
X59426000Y-25340500D01*
X64526000Y-33540500D02*
X64526000Y-25340500D01*
X59426000Y-33540500D02*
X64526000Y-33540500D01*
X20094500Y-76295000D02*
X36794500Y-76295000D01*
X20094500Y-59595000D02*
X20094500Y-76295000D01*
X36794500Y-59595000D02*
X20094500Y-59595000D01*
X36794500Y-76295000D02*
X36794500Y-59595000D01*
X46680500Y-68729000D02*
X46680500Y-82479000D01*
X46680500Y-82479000D02*
X64080500Y-82479000D01*
X64080500Y-82479000D02*
X64080500Y-68729000D01*
X64080500Y-68729000D02*
X46680500Y-68729000D01*
M02*
