M48
; DRILL file {KiCad (5.99.0-576-ga860ac506)} date 05.04.2021 16:39:57
; FORMAT={-:-/ absolute / metric / decimal}
; #@! TF.CreationDate,2021-04-05T16:39:57+02:00
; #@! TF.GenerationSoftware,Kicad,Pcbnew,(5.99.0-576-ga860ac506)
; #@! TF.FileFunction,Plated,1,2,PTH
FMAT,2
METRIC
T1C0.800
T2C1.000
T3C1.100
T4C1.200
T5C1.500
T6C1.550
%
G90
G05
T1
X50.99Y-62.54
X56.451Y-66.739
X56.451Y-61.658
X61.451Y-61.658
X61.976Y-26.941
X61.976Y-31.941
X50.99Y-66.04
X61.451Y-66.739
X66.929Y-62.547
X66.929Y-66.047
T2
X40.322Y-62.23
X40.322Y-64.77
X40.322Y-67.31
X40.322Y-69.85
X40.322Y-74.93
X40.322Y-77.47
X40.322Y-80.01
T3
X50.88Y-70.279
X50.88Y-73.279
X53.88Y-70.279
X53.88Y-73.279
X56.88Y-70.279
X56.88Y-73.279
X59.88Y-70.279
X59.88Y-73.279
T4
X66.397Y-71.628
X68.897Y-71.628
X24.694Y-67.945
X32.194Y-67.945
T5
X35.56Y-44.069
X35.56Y-49.149
X55.88Y-36.449
X55.88Y-56.769
T6
X25.412Y-28.067
X34.911Y-28.067
X44.411Y-28.067
X53.911Y-28.067
T0
M30
